# Blender v2.79 (sub 0) OBJ File: '.'
# www.blender.org
B Head
-0.010 -0.051 0.082
-0.005 -0.051 0.083
0.001 -0.051 0.083
0.007 -0.050 0.083
0.007 -0.048 0.085
0.008 -0.050 0.083
0.009 -0.053 0.081
0.007 -0.054 0.081
0.006 -0.055 0.081
0.001 -0.053 0.082
B HeadTop_End
-0.010 -0.117 0.201
-0.008 -0.122 0.198
-0.003 -0.132 0.192
0.002 -0.133 0.191
0.001 -0.124 0.197
0.005 -0.128 0.195
0.004 -0.130 0.193
0.001 -0.127 0.195
-0.001 -0.129 0.194
-0.005 -0.128 0.194
B Hips
0.010 0.017 0.696
0.003 0.027 0.776
-0.002 0.040 0.845
-0.016 0.057 0.893
-0.033 0.037 0.925
-0.045 0.041 0.904
-0.050 0.070 0.844
-0.049 0.121 0.770
-0.052 0.163 0.730
-0.047 0.153 0.735
B LeftArm
0.106 0.021 -0.008
0.103 0.033 -0.005
0.099 0.044 -0.004
0.097 0.049 -0.005
0.094 0.053 -0.009
0.094 0.052 -0.016
0.095 0.046 -0.024
0.095 0.040 -0.033
0.096 0.033 -0.037
0.101 0.016 -0.035
B LeftFoot
0.016 0.393 -0.209
0.014 0.320 -0.309
0.013 0.178 -0.408
0.009 0.004 -0.445
-0.010 -0.078 -0.438
-0.032 -0.022 -0.444
-0.047 0.108 -0.429
-0.046 0.216 -0.387
-0.054 0.286 -0.337
-0.059 0.322 -0.301
B LeftForeArm
0.146 0.128 -0.199
0.152 0.144 -0.184
0.156 0.158 -0.168
0.152 0.172 -0.158
0.137 0.177 -0.166
0.117 0.172 -0.185
0.104 0.151 -0.209
0.101 0.119 -0.230
0.100 0.083 -0.246
0.102 0.054 -0.253
B LeftHand
-0.056 -0.138 -0.241
-0.050 -0.153 -0.233
-0.047 -0.171 -0.221
-0.054 -0.181 -0.212
-0.050 -0.181 -0.212
-0.040 -0.182 -0.214
-0.036 -0.182 -0.214
-0.046 -0.191 -0.204
-0.068 -0.222 -0.163
-0.101 -0.247 -0.096
B LeftHandIndex1
-0.039 -0.075 -0.041
-0.047 -0.071 -0.041
-0.046 -0.073 -0.038
-0.049 -0.071 -0.038
-0.048 -0.072 -0.037
-0.043 -0.076 -0.034
-0.038 -0.080 -0.031
-0.039 -0.083 -0.020
-0.044 -0.083 -0.002
-0.052 -0.075 0.022
B LeftHandIndex2
-0.035 0.012 0.001
-0.032 0.018 0.002
-0.032 0.018 0.001
-0.033 0.016 0.004
-0.035 0.013 0.004
-0.036 0.007 0.001
-0.037 0.002 -0.004
-0.036 -0.003 -0.006
-0.036 -0.006 -0.006
-0.036 -0.008 -0.003
B LeftHandIndex3
-0.008 0.023 0.015
-0.003 0.024 0.015
-0.003 0.024 0.015
-0.004 0.024 0.015
-0.007 0.023 0.015
-0.013 0.022 0.012
-0.019 0.020 0.009
-0.022 0.018 0.003
-0.024 0.015 -0.001
-0.025 0.013 -0.006
B LeftHandIndex4
0.014 0.018 0.016
0.018 0.014 0.016
0.018 0.014 0.015
0.018 0.016 0.015
0.015 0.018 0.015
0.009 0.022 0.015
0.001 0.024 0.013
-0.005 0.026 0.009
-0.009 0.026 0.002
-0.010 0.025 -0.006
B LeftHandMiddle1
-0.030 -0.067 -0.061
-0.036 -0.064 -0.061
-0.035 -0.067 -0.058
-0.040 -0.064 -0.059
-0.041 -0.064 -0.058
-0.037 -0.068 -0.056
-0.031 -0.073 -0.053
-0.032 -0.079 -0.043
-0.038 -0.084 -0.025
-0.047 -0.083 0.001
B LeftHandMiddle2
-0.033 0.016 -0.003
-0.030 0.021 -0.002
-0.030 0.021 -0.003
-0.031 0.020 0.000
-0.033 0.017 0.000
-0.035 0.012 -0.003
-0.036 0.006 -0.007
-0.036 0.001 -0.010
-0.036 -0.003 -0.009
-0.036 -0.005 -0.008
B LeftHandMiddle3
-0.007 0.024 0.016
-0.002 0.025 0.016
-0.002 0.025 0.016
-0.003 0.024 0.016
-0.006 0.024 0.016
-0.011 0.024 0.013
-0.017 0.022 0.010
-0.020 0.021 0.004
-0.022 0.019 -0.001
-0.023 0.017 -0.007
B LeftHandMiddle4
0.015 0.016 0.020
0.018 0.012 0.019
0.019 0.013 0.019
0.019 0.014 0.018
0.017 0.016 0.018
0.011 0.020 0.018
0.005 0.024 0.017
-0.000 0.027 0.012
-0.003 0.029 0.006
-0.004 0.029 -0.004
B LeftHandPinky1
-0.020 -0.032 -0.081
-0.021 -0.032 -0.081
-0.020 -0.035 -0.080
-0.027 -0.031 -0.079
-0.031 -0.030 -0.078
-0.029 -0.034 -0.077
-0.025 -0.040 -0.076
-0.026 -0.049 -0.070
-0.031 -0.061 -0.058
-0.039 -0.071 -0.038
B LeftHandPinky2
-0.027 0.023 -0.006
-0.022 0.028 -0.006
-0.022 0.028 -0.007
-0.024 0.027 -0.004
-0.027 0.024 -0.004
-0.030 0.020 -0.006
-0.031 0.014 -0.010
-0.032 0.010 -0.014
-0.032 0.005 -0.015
-0.033 0.000 -0.015
B LeftHandPinky3
-0.002 0.017 0.012
0.001 0.017 0.013
0.001 0.017 0.012
0.001 0.017 0.012
-0.001 0.017 0.012
-0.004 0.018 0.011
-0.008 0.018 0.009
-0.010 0.018 0.005
-0.011 0.018 0.001
-0.011 0.017 -0.005
B LeftHandPinky4
0.011 0.007 0.017
0.012 0.004 0.017
0.013 0.005 0.017
0.013 0.005 0.016
0.013 0.006 0.015
0.011 0.009 0.016
0.008 0.012 0.015
0.006 0.015 0.013
0.005 0.018 0.009
0.006 0.020 0.003
B LeftHandRing1
-0.024 -0.053 -0.073
-0.028 -0.051 -0.072
-0.027 -0.054 -0.071
-0.033 -0.051 -0.071
-0.035 -0.050 -0.070
-0.032 -0.054 -0.068
-0.028 -0.060 -0.066
-0.028 -0.068 -0.057
-0.034 -0.076 -0.042
-0.043 -0.080 -0.018
B LeftHandRing2
-0.027 0.015 -0.004
-0.025 0.019 -0.004
-0.025 0.019 -0.004
-0.026 0.018 -0.002
-0.027 0.016 -0.001
-0.029 0.012 -0.004
-0.030 0.007 -0.007
-0.030 0.004 -0.010
-0.030 0.000 -0.010
-0.030 -0.002 -0.009
B LeftHandRing3
-0.006 0.025 0.015
-0.001 0.025 0.016
-0.001 0.025 0.015
-0.001 0.025 0.016
-0.004 0.025 0.015
-0.009 0.025 0.013
-0.014 0.024 0.010
-0.017 0.024 0.005
-0.019 0.023 -0.001
-0.019 0.021 -0.008
B LeftHandRing4
0.014 0.014 0.018
0.016 0.011 0.018
0.017 0.011 0.017
0.017 0.011 0.017
0.016 0.013 0.016
0.012 0.017 0.016
0.008 0.020 0.016
0.005 0.023 0.012
0.003 0.025 0.007
0.003 0.026 -0.002
B LeftHandThumb1
-0.029 -0.026 0.005
-0.032 -0.023 0.004
-0.032 -0.023 0.005
-0.031 -0.024 0.007
-0.030 -0.025 0.008
-0.028 -0.026 0.009
-0.027 -0.028 0.010
-0.027 -0.026 0.013
-0.028 -0.021 0.019
-0.029 -0.012 0.024
B LeftHandThumb2
-0.024 -0.034 -0.006
-0.026 -0.032 -0.006
-0.026 -0.033 -0.005
-0.027 -0.032 -0.004
-0.027 -0.032 -0.003
-0.026 -0.033 -0.002
-0.026 -0.033 -0.001
-0.027 -0.031 0.003
-0.030 -0.028 0.009
-0.033 -0.019 0.016
B LeftHandThumb3
-0.016 -0.024 -0.019
-0.017 -0.023 -0.019
-0.017 -0.024 -0.018
-0.019 -0.022 -0.018
-0.020 -0.022 -0.017
-0.019 -0.023 -0.016
-0.019 -0.024 -0.015
-0.021 -0.025 -0.012
-0.023 -0.024 -0.006
-0.027 -0.021 0.001
B LeftHandThumb4
-0.008 -0.023 -0.009
-0.010 -0.022 -0.008
-0.010 -0.023 -0.007
-0.011 -0.022 -0.008
-0.011 -0.022 -0.008
-0.010 -0.022 -0.009
-0.009 -0.022 -0.009
-0.010 -0.023 -0.008
-0.012 -0.022 -0.004
-0.015 -0.021 0.001
B LeftLeg
0.005 -0.274 -0.349
0.003 -0.292 -0.334
-0.014 -0.304 -0.323
-0.030 -0.277 -0.345
-0.026 -0.240 -0.372
-0.032 -0.244 -0.369
-0.031 -0.257 -0.360
-0.033 -0.250 -0.365
-0.024 -0.203 -0.394
-0.021 -0.098 -0.432
B LeftShoulder
0.034 -0.032 0.112
0.036 -0.025 0.113
0.039 -0.020 0.113
0.043 -0.017 0.112
0.044 -0.014 0.112
0.047 -0.016 0.110
0.052 -0.019 0.108
0.056 -0.023 0.105
0.058 -0.029 0.103
0.055 -0.032 0.103
B LeftToeBase
0.013 0.017 -0.137
0.009 -0.025 -0.136
0.013 -0.073 -0.117
0.004 -0.102 -0.093
-0.015 -0.112 -0.079
0.002 -0.109 -0.085
0.015 -0.106 -0.087
0.014 -0.106 -0.087
0.015 -0.106 -0.087
0.015 -0.106 -0.087
B LeftToe_End
0.005 -0.046 -0.081
0.003 -0.065 -0.067
0.011 -0.083 -0.039
0.021 -0.090 -0.007
0.015 -0.091 0.009
0.013 -0.091 0.010
0.013 -0.092 0.004
0.012 -0.092 0.004
0.013 -0.092 0.007
0.013 -0.091 0.010
B LeftUpLeg
0.077 -0.007 0.117
0.081 -0.004 0.077
0.085 -0.003 0.046
0.093 -0.006 0.024
0.100 0.006 -0.000
0.104 0.002 0.004
0.107 -0.016 0.033
0.106 -0.046 0.069
0.107 -0.070 0.087
0.105 -0.066 0.085
B Neck
-0.017 -0.063 0.156
-0.011 -0.059 0.158
-0.005 -0.057 0.159
0.002 -0.054 0.160
0.003 -0.050 0.161
0.007 -0.052 0.160
0.013 -0.053 0.160
0.017 -0.056 0.158
0.019 -0.061 0.156
0.014 -0.058 0.158
B RightArm
-0.104 0.014 -0.025
-0.105 0.004 -0.026
-0.105 -0.005 -0.024
-0.104 -0.021 -0.020
-0.104 -0.025 -0.020
-0.103 -0.028 -0.019
-0.106 -0.015 -0.017
-0.107 0.003 -0.015
-0.108 0.010 -0.008
-0.107 0.015 -0.000
B RightFoot
0.088 0.310 -0.308
0.084 0.304 -0.314
0.078 0.304 -0.316
0.068 0.292 -0.330
0.052 0.297 -0.328
0.058 0.375 -0.234
0.058 0.420 -0.135
0.047 0.436 -0.079
0.026 0.428 -0.119
0.025 0.389 -0.216
B RightForeArm
-0.143 0.063 -0.230
-0.151 0.051 -0.228
-0.155 0.045 -0.227
-0.165 0.052 -0.218
-0.175 0.056 -0.209
-0.177 0.067 -0.205
-0.168 0.067 -0.211
-0.158 0.085 -0.213
-0.154 0.115 -0.201
-0.160 0.145 -0.175
B RightHand
0.142 -0.160 -0.186
0.185 -0.154 -0.149
0.219 -0.150 -0.100
0.236 -0.138 -0.075
0.241 -0.124 -0.083
0.226 -0.120 -0.123
0.188 -0.115 -0.178
0.126 -0.103 -0.232
0.079 -0.081 -0.260
0.068 -0.074 -0.265
B RightHandIndex1
0.058 -0.068 -0.027
0.063 -0.069 -0.012
0.070 -0.063 0.000
0.076 -0.056 0.003
0.077 -0.054 0.000
0.071 -0.060 -0.014
0.062 -0.063 -0.031
0.049 -0.061 -0.052
0.034 -0.055 -0.068
0.028 -0.054 -0.071
B RightHandIndex2
0.034 0.004 -0.015
0.035 0.002 -0.010
0.036 0.005 -0.005
0.036 0.010 -0.002
0.035 0.012 -0.001
0.035 0.012 -0.004
0.034 0.013 -0.008
0.031 0.015 -0.013
0.030 0.016 -0.014
0.033 0.014 -0.010
B RightHandIndex3
0.018 0.022 -0.000
0.019 0.022 -0.001
0.017 0.023 0.001
0.013 0.025 0.003
0.011 0.026 0.005
0.011 0.026 0.006
0.011 0.025 0.007
0.012 0.024 0.009
0.014 0.021 0.013
0.014 0.019 0.017
B RightHandIndex4
-0.002 0.026 0.010
-0.002 0.027 0.007
-0.005 0.027 0.005
-0.009 0.025 0.006
-0.012 0.024 0.007
-0.011 0.023 0.011
-0.010 0.021 0.015
-0.008 0.018 0.019
-0.005 0.013 0.024
-0.006 0.011 0.025
B RightHandMiddle1
0.048 -0.066 -0.049
0.056 -0.069 -0.035
0.067 -0.064 -0.023
0.074 -0.057 -0.021
0.075 -0.054 -0.023
0.066 -0.058 -0.037
0.053 -0.059 -0.053
0.035 -0.055 -0.070
0.018 -0.045 -0.082
0.014 -0.041 -0.085
B RightHandMiddle2
0.033 0.008 -0.015
0.035 0.005 -0.011
0.036 0.008 -0.006
0.035 0.013 -0.003
0.034 0.015 -0.002
0.033 0.015 -0.005
0.032 0.016 -0.009
0.029 0.018 -0.014
0.028 0.019 -0.014
0.031 0.018 -0.010
B RightHandMiddle3
0.023 0.017 -0.006
0.025 0.015 -0.005
0.025 0.016 -0.002
0.021 0.020 0.001
0.018 0.023 0.002
0.017 0.024 0.003
0.016 0.025 0.004
0.014 0.025 0.006
0.015 0.023 0.011
0.015 0.020 0.016
B RightHandMiddle4
0.016 0.024 0.001
0.019 0.023 -0.000
0.018 0.024 0.001
0.012 0.027 0.004
0.007 0.028 0.006
0.004 0.028 0.009
0.001 0.027 0.013
0.000 0.023 0.018
0.000 0.017 0.024
-0.003 0.012 0.027
B RightHandPinky1
0.031 -0.039 -0.074
0.042 -0.045 -0.065
0.055 -0.042 -0.056
0.062 -0.035 -0.054
0.063 -0.032 -0.055
0.052 -0.032 -0.065
0.036 -0.030 -0.076
0.014 -0.023 -0.085
-0.001 -0.009 -0.089
-0.001 -0.003 -0.089
B RightHandPinky2
0.030 0.013 -0.016
0.032 0.012 -0.012
0.032 0.014 -0.007
0.031 0.018 -0.005
0.030 0.020 -0.005
0.030 0.019 -0.008
0.028 0.018 -0.013
0.024 0.020 -0.018
0.022 0.021 -0.018
0.025 0.021 -0.016
B RightHandPinky3
0.006 0.020 0.005
0.005 0.020 0.004
0.002 0.020 0.004
-0.000 0.020 0.005
-0.001 0.020 0.005
0.001 0.020 0.007
0.004 0.019 0.008
0.006 0.018 0.008
0.009 0.016 0.010
0.010 0.014 0.011
B RightHandPinky4
-0.012 0.011 0.014
-0.014 0.012 0.011
-0.017 0.010 0.008
-0.018 0.008 0.007
-0.018 0.008 0.008
-0.016 0.009 0.011
-0.012 0.009 0.015
-0.007 0.008 0.018
-0.003 0.005 0.020
-0.002 0.004 0.021
B RightHandRing1
0.040 -0.056 -0.062
0.049 -0.061 -0.051
0.062 -0.057 -0.040
0.069 -0.049 -0.038
0.070 -0.046 -0.040
0.060 -0.048 -0.052
0.045 -0.048 -0.066
0.024 -0.042 -0.079
0.007 -0.030 -0.088
0.006 -0.025 -0.089
B RightHandRing2
0.029 0.010 -0.014
0.031 0.009 -0.011
0.031 0.011 -0.006
0.030 0.015 -0.004
0.029 0.017 -0.003
0.029 0.016 -0.005
0.028 0.016 -0.009
0.026 0.018 -0.013
0.025 0.019 -0.013
0.027 0.017 -0.010
B RightHandRing3
0.010 0.027 0.004
0.010 0.027 0.003
0.007 0.028 0.003
0.003 0.028 0.004
0.001 0.028 0.006
0.003 0.028 0.008
0.005 0.027 0.010
0.007 0.025 0.012
0.010 0.022 0.016
0.012 0.019 0.018
B RightHandRing4
-0.013 0.018 0.015
-0.015 0.019 0.011
-0.018 0.018 0.008
-0.020 0.015 0.007
-0.021 0.014 0.008
-0.019 0.014 0.012
-0.016 0.014 0.016
-0.011 0.012 0.021
-0.007 0.008 0.024
-0.007 0.007 0.024
B RightHandThumb1
0.035 -0.017 0.009
0.033 -0.015 0.016
0.031 -0.012 0.021
0.031 -0.009 0.023
0.031 -0.009 0.022
0.033 -0.013 0.017
0.035 -0.017 0.009
0.035 -0.019 -0.001
0.032 -0.021 -0.010
0.029 -0.024 -0.011
B RightHandThumb2
0.036 -0.022 -0.001
0.035 -0.021 0.006
0.036 -0.018 0.012
0.037 -0.014 0.014
0.037 -0.013 0.013
0.038 -0.016 0.007
0.038 -0.018 -0.002
0.036 -0.018 -0.013
0.032 -0.017 -0.021
0.030 -0.019 -0.022
B RightHandThumb3
0.025 -0.017 -0.015
0.028 -0.018 -0.009
0.030 -0.015 -0.004
0.032 -0.012 -0.003
0.032 -0.011 -0.004
0.031 -0.012 -0.009
0.027 -0.013 -0.016
0.022 -0.011 -0.024
0.017 -0.008 -0.029
0.016 -0.007 -0.029
B RightHandThumb4
0.012 -0.017 -0.015
0.014 -0.018 -0.012
0.017 -0.017 -0.009
0.020 -0.015 -0.008
0.020 -0.014 -0.007
0.019 -0.015 -0.010
0.016 -0.015 -0.013
0.013 -0.014 -0.017
0.010 -0.012 -0.021
0.010 -0.012 -0.021
B RightLeg
0.017 -0.169 -0.410
0.023 -0.042 -0.441
0.025 0.045 -0.441
0.030 0.110 -0.429
0.027 0.165 -0.411
0.016 0.112 -0.429
0.002 0.024 -0.443
-0.007 -0.086 -0.435
0.002 -0.198 -0.397
0.010 -0.272 -0.350
B RightShoulder
-0.057 -0.036 0.101
-0.054 -0.038 0.102
-0.050 -0.041 0.103
-0.045 -0.040 0.105
-0.044 -0.037 0.107
-0.041 -0.037 0.108
-0.038 -0.036 0.110
-0.035 -0.036 0.111
-0.033 -0.037 0.110
-0.036 -0.031 0.111
B RightToeBase
-0.011 -0.107 -0.087
-0.010 -0.107 -0.087
-0.005 -0.076 -0.115
-0.003 -0.034 -0.134
0.013 0.004 -0.137
0.007 0.037 -0.133
-0.002 0.072 -0.118
-0.011 0.084 -0.109
-0.024 0.083 -0.108
-0.026 0.022 -0.134
B RightToe_End
-0.009 -0.092 -0.000
-0.008 -0.092 0.002
-0.006 -0.090 0.022
-0.012 -0.089 0.024
-0.019 -0.081 -0.042
-0.016 -0.044 -0.080
-0.021 -0.041 -0.080
-0.014 -0.043 -0.081
-0.001 -0.056 -0.074
0.003 -0.065 -0.066
B RightUpLeg
-0.087 0.006 0.109
-0.083 0.006 0.067
-0.078 0.003 0.026
-0.069 -0.004 -0.000
-0.064 0.008 -0.007
-0.060 0.003 0.006
-0.057 -0.015 0.033
-0.058 -0.045 0.066
-0.057 -0.069 0.082
-0.059 -0.063 0.080
B Spine
-0.018 -0.070 0.268
-0.014 -0.066 0.228
-0.018 -0.063 0.193
-0.012 -0.070 0.167
0.011 -0.056 0.154
0.024 -0.054 0.166
0.025 -0.070 0.195
0.022 -0.105 0.227
0.020 -0.134 0.242
0.017 -0.130 0.240
B Spine1
-0.007 -0.024 0.097
-0.007 -0.023 0.097
-0.006 -0.020 0.098
-0.004 -0.020 0.098
-0.002 -0.019 0.098
0.001 -0.017 0.099
0.003 -0.017 0.099
0.004 -0.019 0.098
0.006 -0.022 0.097
0.006 -0.022 0.097
B Spine2
-0.008 -0.028 0.089
-0.007 -0.026 0.089
-0.005 -0.024 0.090
-0.002 -0.023 0.090
-0.000 -0.022 0.091
0.002 -0.021 0.091
0.005 -0.021 0.091
0.007 -0.023 0.090
0.008 -0.026 0.089
0.007 -0.025 0.090
