# Blender v2.79 (sub 0) OBJ File: 'Start Walking.blend'
# www.blender.org
B Head
-0.001 -0.019 0.096
-0.001 -0.019 0.096
-0.001 -0.019 0.096
-0.001 -0.020 0.096
-0.001 -0.019 0.096
-0.001 -0.020 0.096
-0.001 -0.021 0.095
-0.002 -0.020 0.096
-0.002 -0.021 0.095
-0.001 -0.022 0.095
-0.001 -0.023 0.095
-0.001 -0.024 0.095
-0.002 -0.025 0.094
-0.002 -0.026 0.094
-0.002 -0.026 0.094
-0.002 -0.027 0.094
B HeadTop_End
0.008 -0.066 0.223
0.008 -0.066 0.223
0.008 -0.066 0.223
0.008 -0.067 0.223
0.008 -0.065 0.223
0.008 -0.066 0.223
0.007 -0.068 0.222
0.006 -0.068 0.223
0.005 -0.069 0.222
0.004 -0.070 0.222
0.004 -0.070 0.222
0.003 -0.068 0.223
0.002 -0.067 0.223
0.003 -0.065 0.224
0.004 -0.064 0.224
0.004 -0.063 0.224
B Hips
0.000 -0.000 -0.000
0.000 -0.000 -0.000
0.000 -0.000 -0.000
0.000 -0.000 -0.000
0.000 -0.000 -0.000
0.000 -0.000 -0.000
0.000 -0.000 -0.000
0.000 -0.000 -0.000
0.000 -0.000 -0.000
0.000 -0.000 -0.000
0.000 -0.000 -0.000
0.000 -0.000 -0.000
0.000 -0.000 -0.000
0.000 -0.000 -0.000
0.000 -0.000 -0.000
0.000 -0.000 -0.000
B LeftArm
0.106 0.004 -0.023
0.106 0.004 -0.023
0.106 0.004 -0.023
0.106 0.004 -0.023
0.106 0.003 -0.023
0.106 0.004 -0.024
0.106 0.004 -0.023
0.106 0.005 -0.023
0.106 0.005 -0.023
0.106 0.006 -0.024
0.106 0.005 -0.024
0.106 0.005 -0.024
0.106 0.004 -0.024
0.106 0.002 -0.024
0.105 0.001 -0.025
0.105 -0.001 -0.025
B LeftFoot
-0.016 0.040 -0.443
-0.016 0.040 -0.443
-0.019 0.041 -0.443
-0.021 0.042 -0.443
-0.025 0.042 -0.443
-0.030 0.042 -0.442
-0.035 0.042 -0.442
-0.037 0.044 -0.442
-0.041 0.045 -0.441
-0.045 0.062 -0.439
-0.048 0.074 -0.437
-0.050 0.095 -0.432
-0.052 0.116 -0.427
-0.051 0.127 -0.424
-0.050 0.132 -0.422
-0.047 0.139 -0.420
B LeftForeArm
0.077 -0.015 -0.267
0.077 -0.015 -0.267
0.077 -0.014 -0.267
0.077 -0.013 -0.267
0.077 -0.015 -0.267
0.077 -0.014 -0.267
0.076 -0.011 -0.268
0.076 -0.013 -0.268
0.075 -0.013 -0.268
0.075 -0.012 -0.268
0.075 -0.012 -0.268
0.077 -0.012 -0.267
0.079 -0.011 -0.267
0.079 -0.011 -0.267
0.078 -0.010 -0.267
0.079 -0.008 -0.267
B LeftHand
0.045 -0.044 -0.276
0.045 -0.044 -0.276
0.044 -0.044 -0.276
0.043 -0.044 -0.276
0.042 -0.047 -0.276
0.041 -0.046 -0.277
0.041 -0.043 -0.277
0.041 -0.044 -0.277
0.041 -0.045 -0.277
0.041 -0.042 -0.277
0.040 -0.042 -0.277
0.038 -0.044 -0.277
0.036 -0.046 -0.277
0.032 -0.047 -0.278
0.028 -0.046 -0.278
0.025 -0.044 -0.279
B LeftHandIndex1
-0.001 -0.058 -0.074
-0.001 -0.058 -0.074
-0.001 -0.057 -0.075
-0.000 -0.057 -0.074
0.001 -0.059 -0.073
0.002 -0.060 -0.072
0.003 -0.059 -0.073
0.003 -0.060 -0.072
0.004 -0.061 -0.072
0.004 -0.061 -0.072
0.004 -0.061 -0.071
0.003 -0.061 -0.071
0.002 -0.060 -0.072
-0.001 -0.057 -0.075
-0.005 -0.053 -0.077
-0.007 -0.050 -0.079
B LeftHandIndex2
0.001 -0.015 -0.034
0.001 -0.015 -0.034
0.001 -0.014 -0.034
0.001 -0.014 -0.034
0.002 -0.015 -0.034
0.002 -0.015 -0.034
0.002 -0.015 -0.034
0.003 -0.016 -0.033
0.003 -0.016 -0.033
0.003 -0.016 -0.033
0.003 -0.016 -0.033
0.003 -0.016 -0.033
0.002 -0.016 -0.034
0.001 -0.014 -0.034
-0.000 -0.012 -0.035
-0.001 -0.011 -0.035
B LeftHandIndex3
-0.004 -0.009 -0.027
-0.004 -0.009 -0.027
-0.004 -0.009 -0.027
-0.003 -0.009 -0.027
-0.003 -0.010 -0.027
-0.003 -0.010 -0.027
-0.003 -0.010 -0.027
-0.002 -0.010 -0.027
-0.002 -0.010 -0.027
-0.002 -0.010 -0.027
-0.002 -0.010 -0.027
-0.002 -0.010 -0.026
-0.003 -0.010 -0.027
-0.004 -0.009 -0.027
-0.005 -0.007 -0.027
-0.005 -0.006 -0.027
B LeftHandIndex4
-0.006 -0.008 -0.026
-0.006 -0.008 -0.026
-0.006 -0.007 -0.026
-0.005 -0.008 -0.026
-0.005 -0.008 -0.026
-0.005 -0.008 -0.026
-0.005 -0.008 -0.026
-0.004 -0.009 -0.026
-0.004 -0.009 -0.026
-0.004 -0.009 -0.026
-0.004 -0.009 -0.026
-0.004 -0.009 -0.026
-0.005 -0.008 -0.026
-0.006 -0.007 -0.026
-0.007 -0.006 -0.026
-0.007 -0.005 -0.026
B LeftHandMiddle1
0.012 -0.042 -0.085
0.012 -0.042 -0.085
0.012 -0.041 -0.085
0.013 -0.041 -0.085
0.014 -0.043 -0.084
0.015 -0.043 -0.084
0.016 -0.043 -0.084
0.016 -0.044 -0.083
0.017 -0.044 -0.083
0.017 -0.044 -0.083
0.018 -0.045 -0.082
0.017 -0.045 -0.082
0.015 -0.044 -0.083
0.012 -0.041 -0.085
0.008 -0.036 -0.088
0.007 -0.033 -0.089
B LeftHandMiddle2
0.001 -0.015 -0.034
0.001 -0.015 -0.034
0.001 -0.014 -0.034
0.001 -0.014 -0.034
0.002 -0.015 -0.034
0.002 -0.015 -0.034
0.002 -0.015 -0.034
0.003 -0.016 -0.033
0.003 -0.016 -0.033
0.003 -0.016 -0.033
0.003 -0.016 -0.033
0.003 -0.016 -0.033
0.002 -0.016 -0.034
0.001 -0.014 -0.034
-0.000 -0.012 -0.035
-0.001 -0.011 -0.035
B LeftHandMiddle3
-0.004 -0.009 -0.028
-0.004 -0.009 -0.028
-0.004 -0.009 -0.028
-0.004 -0.009 -0.028
-0.003 -0.010 -0.028
-0.003 -0.010 -0.028
-0.003 -0.010 -0.028
-0.002 -0.010 -0.028
-0.002 -0.010 -0.027
-0.002 -0.010 -0.027
-0.002 -0.011 -0.027
-0.002 -0.011 -0.027
-0.003 -0.010 -0.028
-0.004 -0.009 -0.028
-0.005 -0.007 -0.028
-0.005 -0.006 -0.028
B LeftHandMiddle4
-0.006 -0.008 -0.028
-0.006 -0.008 -0.028
-0.006 -0.008 -0.028
-0.006 -0.008 -0.028
-0.005 -0.009 -0.028
-0.005 -0.009 -0.028
-0.005 -0.009 -0.028
-0.005 -0.009 -0.028
-0.005 -0.009 -0.028
-0.004 -0.009 -0.028
-0.004 -0.009 -0.028
-0.005 -0.010 -0.028
-0.005 -0.009 -0.028
-0.006 -0.008 -0.028
-0.007 -0.006 -0.028
-0.007 -0.005 -0.028
B LeftHandPinky1
0.018 -0.001 -0.088
0.018 -0.001 -0.088
0.018 -0.000 -0.088
0.019 -0.001 -0.087
0.020 -0.002 -0.087
0.021 -0.003 -0.087
0.021 -0.002 -0.087
0.022 -0.003 -0.087
0.023 -0.004 -0.086
0.023 -0.004 -0.086
0.023 -0.004 -0.086
0.023 -0.005 -0.086
0.021 -0.004 -0.087
0.019 -0.000 -0.087
0.016 0.004 -0.088
0.015 0.007 -0.088
B LeftHandPinky2
0.002 -0.012 -0.034
0.002 -0.012 -0.034
0.002 -0.012 -0.034
0.002 -0.012 -0.034
0.003 -0.013 -0.034
0.003 -0.013 -0.033
0.003 -0.013 -0.034
0.004 -0.013 -0.033
0.004 -0.013 -0.033
0.004 -0.013 -0.033
0.004 -0.013 -0.033
0.004 -0.013 -0.033
0.003 -0.013 -0.033
0.002 -0.012 -0.034
0.001 -0.010 -0.035
0.000 -0.009 -0.035
B LeftHandPinky3
-0.003 -0.007 -0.020
-0.003 -0.007 -0.020
-0.003 -0.006 -0.020
-0.003 -0.007 -0.020
-0.002 -0.007 -0.020
-0.002 -0.007 -0.020
-0.002 -0.007 -0.020
-0.002 -0.007 -0.020
-0.002 -0.007 -0.020
-0.001 -0.007 -0.020
-0.001 -0.008 -0.020
-0.002 -0.008 -0.020
-0.002 -0.007 -0.020
-0.003 -0.006 -0.020
-0.003 -0.005 -0.020
-0.004 -0.004 -0.020
B LeftHandPinky4
-0.004 -0.006 -0.020
-0.004 -0.006 -0.020
-0.004 -0.006 -0.020
-0.004 -0.006 -0.020
-0.004 -0.006 -0.020
-0.004 -0.007 -0.020
-0.004 -0.006 -0.020
-0.003 -0.007 -0.020
-0.003 -0.007 -0.020
-0.003 -0.007 -0.020
-0.003 -0.007 -0.020
-0.003 -0.007 -0.020
-0.004 -0.006 -0.020
-0.004 -0.006 -0.020
-0.005 -0.004 -0.020
-0.005 -0.004 -0.020
B LeftHandRing1
0.017 -0.024 -0.088
0.017 -0.024 -0.088
0.017 -0.023 -0.089
0.018 -0.023 -0.088
0.019 -0.025 -0.087
0.020 -0.025 -0.087
0.021 -0.025 -0.087
0.021 -0.026 -0.087
0.022 -0.026 -0.086
0.023 -0.026 -0.086
0.023 -0.027 -0.086
0.022 -0.027 -0.086
0.020 -0.026 -0.087
0.017 -0.023 -0.088
0.014 -0.018 -0.090
0.013 -0.015 -0.091
B LeftHandRing2
0.001 -0.012 -0.029
0.001 -0.012 -0.029
0.001 -0.012 -0.029
0.001 -0.012 -0.029
0.001 -0.013 -0.029
0.002 -0.013 -0.029
0.002 -0.013 -0.029
0.002 -0.013 -0.029
0.002 -0.013 -0.028
0.003 -0.013 -0.028
0.003 -0.014 -0.028
0.002 -0.014 -0.028
0.002 -0.013 -0.029
0.001 -0.012 -0.029
-0.000 -0.011 -0.030
-0.001 -0.009 -0.030
B LeftHandRing3
-0.004 -0.009 -0.028
-0.004 -0.009 -0.028
-0.004 -0.009 -0.028
-0.004 -0.009 -0.028
-0.003 -0.010 -0.028
-0.003 -0.010 -0.028
-0.003 -0.010 -0.028
-0.002 -0.010 -0.028
-0.002 -0.010 -0.027
-0.002 -0.010 -0.027
-0.002 -0.011 -0.027
-0.002 -0.011 -0.027
-0.003 -0.010 -0.028
-0.004 -0.009 -0.028
-0.005 -0.007 -0.028
-0.005 -0.006 -0.028
B LeftHandRing4
-0.006 -0.007 -0.025
-0.006 -0.007 -0.025
-0.005 -0.007 -0.025
-0.005 -0.007 -0.025
-0.005 -0.008 -0.025
-0.005 -0.008 -0.025
-0.004 -0.008 -0.025
-0.004 -0.008 -0.025
-0.004 -0.008 -0.025
-0.004 -0.008 -0.025
-0.004 -0.008 -0.025
-0.004 -0.009 -0.025
-0.005 -0.008 -0.025
-0.005 -0.007 -0.025
-0.006 -0.006 -0.025
-0.007 -0.004 -0.025
B LeftHandThumb1
-0.021 -0.030 -0.016
-0.021 -0.030 -0.016
-0.021 -0.030 -0.016
-0.020 -0.030 -0.016
-0.020 -0.030 -0.016
-0.019 -0.031 -0.016
-0.019 -0.031 -0.016
-0.019 -0.031 -0.016
-0.019 -0.031 -0.016
-0.019 -0.031 -0.016
-0.019 -0.031 -0.016
-0.019 -0.031 -0.016
-0.020 -0.030 -0.016
-0.021 -0.029 -0.016
-0.022 -0.028 -0.017
-0.023 -0.027 -0.018
B LeftHandThumb2
-0.010 -0.022 -0.034
-0.010 -0.022 -0.034
-0.010 -0.021 -0.035
-0.010 -0.022 -0.035
-0.009 -0.022 -0.034
-0.008 -0.023 -0.034
-0.008 -0.023 -0.034
-0.008 -0.023 -0.034
-0.008 -0.023 -0.034
-0.008 -0.023 -0.034
-0.008 -0.023 -0.034
-0.008 -0.023 -0.034
-0.009 -0.023 -0.034
-0.010 -0.021 -0.035
-0.012 -0.019 -0.035
-0.012 -0.018 -0.036
B LeftHandThumb3
-0.006 -0.010 -0.032
-0.006 -0.010 -0.032
-0.006 -0.010 -0.032
-0.006 -0.010 -0.032
-0.005 -0.011 -0.032
-0.005 -0.011 -0.032
-0.005 -0.011 -0.032
-0.005 -0.012 -0.032
-0.004 -0.012 -0.032
-0.004 -0.012 -0.032
-0.004 -0.012 -0.032
-0.004 -0.012 -0.032
-0.005 -0.011 -0.032
-0.006 -0.010 -0.032
-0.007 -0.008 -0.032
-0.008 -0.007 -0.033
B LeftHandThumb4
-0.003 -0.007 -0.025
-0.003 -0.007 -0.025
-0.003 -0.006 -0.025
-0.003 -0.006 -0.025
-0.003 -0.007 -0.025
-0.002 -0.007 -0.025
-0.002 -0.007 -0.025
-0.002 -0.007 -0.025
-0.002 -0.008 -0.025
-0.002 -0.008 -0.025
-0.002 -0.008 -0.025
-0.002 -0.008 -0.025
-0.002 -0.007 -0.025
-0.003 -0.006 -0.025
-0.004 -0.005 -0.025
-0.005 -0.004 -0.025
B LeftLeg
-0.038 0.011 -0.442
-0.038 0.011 -0.442
-0.038 0.012 -0.442
-0.038 0.016 -0.442
-0.035 0.021 -0.442
-0.036 0.023 -0.442
-0.041 0.024 -0.441
-0.042 0.027 -0.441
-0.042 0.032 -0.441
-0.040 0.020 -0.441
-0.041 0.015 -0.442
-0.041 0.000 -0.442
-0.042 -0.015 -0.441
-0.045 -0.019 -0.441
-0.046 -0.015 -0.441
-0.047 -0.012 -0.441
B LeftShoulder
0.041 0.020 0.112
0.041 0.020 0.112
0.042 0.020 0.112
0.042 0.019 0.112
0.042 0.020 0.112
0.042 0.019 0.112
0.042 0.018 0.112
0.042 0.019 0.112
0.042 0.019 0.112
0.043 0.018 0.112
0.043 0.017 0.112
0.044 0.016 0.112
0.043 0.014 0.112
0.044 0.012 0.112
0.045 0.010 0.112
0.046 0.007 0.112
B LeftToeBase
0.013 -0.104 -0.090
0.013 -0.104 -0.090
0.014 -0.104 -0.090
0.012 -0.104 -0.090
0.014 -0.104 -0.090
0.015 -0.104 -0.090
0.016 -0.104 -0.090
0.016 -0.104 -0.089
0.018 -0.104 -0.089
0.017 -0.105 -0.088
0.016 -0.106 -0.087
0.016 -0.106 -0.087
0.016 -0.106 -0.087
0.017 -0.106 -0.087
0.018 -0.106 -0.087
0.019 -0.105 -0.087
B LeftToe_End
0.014 -0.092 0.002
0.014 -0.092 0.002
0.015 -0.092 0.002
0.013 -0.092 0.002
0.014 -0.092 0.002
0.016 -0.091 0.002
0.016 -0.091 0.002
0.016 -0.091 0.002
0.016 -0.091 0.002
0.015 -0.092 0.003
0.014 -0.092 0.004
0.014 -0.092 0.003
0.014 -0.092 0.002
0.014 -0.092 0.002
0.016 -0.091 0.002
0.016 -0.091 0.003
B LeftUpLeg
0.079 0.024 -0.068
0.079 0.024 -0.068
0.079 0.024 -0.069
0.079 0.023 -0.069
0.080 0.023 -0.069
0.080 0.024 -0.068
0.079 0.026 -0.068
0.080 0.026 -0.067
0.080 0.026 -0.067
0.080 0.027 -0.067
0.080 0.027 -0.067
0.080 0.027 -0.066
0.081 0.028 -0.065
0.081 0.029 -0.065
0.080 0.030 -0.065
0.080 0.032 -0.064
B Neck
-0.006 0.014 0.168
-0.006 0.014 0.168
-0.006 0.014 0.168
-0.005 0.013 0.168
-0.004 0.014 0.168
-0.004 0.013 0.168
-0.004 0.012 0.168
-0.004 0.013 0.168
-0.004 0.013 0.168
-0.004 0.011 0.168
-0.003 0.009 0.168
-0.003 0.008 0.168
-0.003 0.006 0.169
-0.002 0.004 0.169
-0.001 0.003 0.169
-0.000 0.000 0.169
B RightArm
-0.104 0.019 -0.026
-0.104 0.019 -0.026
-0.104 0.018 -0.026
-0.104 0.018 -0.026
-0.104 0.018 -0.025
-0.104 0.018 -0.025
-0.104 0.018 -0.025
-0.104 0.018 -0.026
-0.104 0.017 -0.026
-0.104 0.017 -0.025
-0.104 0.017 -0.025
-0.104 0.018 -0.024
-0.104 0.021 -0.024
-0.103 0.023 -0.023
-0.103 0.026 -0.022
-0.102 0.029 -0.021
B RightFoot
-0.004 0.104 -0.433
-0.004 0.104 -0.433
-0.005 0.106 -0.433
-0.007 0.106 -0.432
-0.009 0.107 -0.432
-0.011 0.108 -0.432
-0.012 0.112 -0.431
-0.015 0.118 -0.429
-0.017 0.128 -0.426
-0.018 0.145 -0.420
-0.019 0.164 -0.414
-0.018 0.179 -0.407
-0.013 0.194 -0.401
-0.001 0.217 -0.389
0.013 0.222 -0.386
0.025 0.203 -0.395
B RightForeArm
-0.093 0.022 -0.262
-0.093 0.022 -0.262
-0.092 0.023 -0.262
-0.092 0.024 -0.262
-0.093 0.022 -0.261
-0.094 0.024 -0.261
-0.095 0.027 -0.260
-0.095 0.026 -0.260
-0.095 0.028 -0.260
-0.096 0.032 -0.259
-0.098 0.035 -0.258
-0.098 0.037 -0.258
-0.096 0.040 -0.258
-0.094 0.043 -0.259
-0.092 0.049 -0.258
-0.088 0.058 -0.258
B RightHand
-0.022 -0.056 -0.277
-0.022 -0.056 -0.277
-0.023 -0.054 -0.277
-0.023 -0.052 -0.278
-0.024 -0.053 -0.277
-0.024 -0.053 -0.277
-0.024 -0.050 -0.278
-0.025 -0.051 -0.278
-0.026 -0.049 -0.278
-0.027 -0.046 -0.278
-0.026 -0.045 -0.279
-0.024 -0.045 -0.279
-0.023 -0.042 -0.279
-0.026 -0.037 -0.280
-0.030 -0.029 -0.280
-0.030 -0.021 -0.281
B RightHandIndex1
-0.010 -0.052 -0.077
-0.010 -0.052 -0.077
-0.012 -0.053 -0.077
-0.013 -0.052 -0.077
-0.013 -0.053 -0.077
-0.013 -0.053 -0.076
-0.014 -0.053 -0.076
-0.015 -0.053 -0.076
-0.015 -0.053 -0.076
-0.015 -0.052 -0.077
-0.015 -0.052 -0.077
-0.016 -0.052 -0.077
-0.017 -0.051 -0.077
-0.021 -0.050 -0.077
-0.025 -0.048 -0.077
-0.028 -0.044 -0.078
B RightHandIndex2
-0.006 -0.012 -0.035
-0.006 -0.012 -0.035
-0.007 -0.012 -0.034
-0.007 -0.012 -0.034
-0.008 -0.012 -0.034
-0.008 -0.012 -0.034
-0.008 -0.012 -0.034
-0.008 -0.012 -0.034
-0.008 -0.012 -0.034
-0.008 -0.012 -0.034
-0.008 -0.012 -0.034
-0.008 -0.012 -0.034
-0.008 -0.011 -0.034
-0.009 -0.011 -0.034
-0.010 -0.010 -0.034
-0.011 -0.008 -0.034
B RightHandIndex3
-0.003 -0.008 -0.027
-0.003 -0.008 -0.027
-0.003 -0.008 -0.027
-0.004 -0.008 -0.027
-0.004 -0.008 -0.027
-0.004 -0.008 -0.027
-0.004 -0.008 -0.027
-0.004 -0.008 -0.027
-0.004 -0.008 -0.027
-0.004 -0.008 -0.027
-0.004 -0.008 -0.027
-0.004 -0.008 -0.027
-0.004 -0.008 -0.027
-0.005 -0.008 -0.027
-0.006 -0.007 -0.027
-0.006 -0.006 -0.027
B RightHandIndex4
-0.002 -0.007 -0.027
-0.002 -0.007 -0.027
-0.002 -0.008 -0.027
-0.003 -0.007 -0.027
-0.003 -0.008 -0.026
-0.003 -0.008 -0.026
-0.003 -0.008 -0.026
-0.003 -0.008 -0.026
-0.003 -0.008 -0.026
-0.003 -0.007 -0.027
-0.003 -0.007 -0.027
-0.003 -0.007 -0.027
-0.003 -0.007 -0.027
-0.004 -0.007 -0.027
-0.005 -0.006 -0.027
-0.005 -0.005 -0.027
B RightHandMiddle1
-0.025 -0.036 -0.085
-0.025 -0.036 -0.085
-0.027 -0.036 -0.084
-0.028 -0.036 -0.084
-0.029 -0.037 -0.083
-0.029 -0.037 -0.083
-0.029 -0.036 -0.083
-0.030 -0.036 -0.083
-0.030 -0.036 -0.083
-0.030 -0.035 -0.083
-0.030 -0.034 -0.084
-0.030 -0.034 -0.084
-0.031 -0.033 -0.084
-0.033 -0.031 -0.084
-0.036 -0.028 -0.083
-0.039 -0.024 -0.084
B RightHandMiddle2
-0.006 -0.012 -0.035
-0.006 -0.012 -0.035
-0.007 -0.012 -0.034
-0.007 -0.012 -0.034
-0.008 -0.012 -0.034
-0.008 -0.012 -0.034
-0.008 -0.012 -0.034
-0.008 -0.012 -0.034
-0.008 -0.012 -0.034
-0.008 -0.012 -0.034
-0.008 -0.012 -0.034
-0.008 -0.012 -0.034
-0.008 -0.011 -0.034
-0.009 -0.011 -0.034
-0.010 -0.010 -0.034
-0.011 -0.008 -0.034
B RightHandMiddle3
-0.003 -0.008 -0.028
-0.003 -0.008 -0.028
-0.003 -0.009 -0.028
-0.004 -0.008 -0.028
-0.004 -0.009 -0.028
-0.004 -0.009 -0.028
-0.004 -0.009 -0.028
-0.004 -0.009 -0.028
-0.004 -0.009 -0.028
-0.004 -0.008 -0.028
-0.004 -0.008 -0.028
-0.004 -0.008 -0.028
-0.004 -0.008 -0.028
-0.005 -0.008 -0.028
-0.006 -0.007 -0.028
-0.007 -0.006 -0.028
B RightHandMiddle4
-0.002 -0.008 -0.028
-0.002 -0.008 -0.028
-0.002 -0.008 -0.028
-0.003 -0.008 -0.028
-0.003 -0.008 -0.028
-0.003 -0.008 -0.028
-0.003 -0.008 -0.028
-0.003 -0.008 -0.028
-0.004 -0.008 -0.028
-0.003 -0.008 -0.028
-0.003 -0.008 -0.028
-0.003 -0.008 -0.028
-0.003 -0.008 -0.028
-0.004 -0.007 -0.028
-0.005 -0.007 -0.028
-0.006 -0.006 -0.028
B RightHandPinky1
-0.032 0.005 -0.083
-0.032 0.005 -0.083
-0.034 0.004 -0.082
-0.036 0.004 -0.082
-0.037 0.003 -0.081
-0.038 0.003 -0.081
-0.037 0.004 -0.081
-0.037 0.004 -0.081
-0.037 0.005 -0.081
-0.037 0.006 -0.081
-0.036 0.006 -0.082
-0.035 0.007 -0.082
-0.034 0.008 -0.082
-0.035 0.010 -0.082
-0.036 0.013 -0.081
-0.036 0.017 -0.080
B RightHandPinky2
-0.006 -0.012 -0.034
-0.006 -0.012 -0.034
-0.007 -0.012 -0.033
-0.007 -0.012 -0.033
-0.007 -0.012 -0.033
-0.007 -0.012 -0.033
-0.008 -0.012 -0.033
-0.008 -0.012 -0.033
-0.008 -0.012 -0.033
-0.008 -0.011 -0.033
-0.008 -0.011 -0.033
-0.008 -0.011 -0.033
-0.008 -0.011 -0.033
-0.009 -0.010 -0.033
-0.010 -0.009 -0.033
-0.011 -0.008 -0.033
B RightHandPinky3
-0.002 -0.006 -0.020
-0.002 -0.006 -0.020
-0.002 -0.006 -0.020
-0.003 -0.006 -0.020
-0.003 -0.006 -0.020
-0.003 -0.006 -0.020
-0.003 -0.006 -0.020
-0.003 -0.006 -0.020
-0.003 -0.006 -0.020
-0.003 -0.006 -0.020
-0.003 -0.006 -0.020
-0.003 -0.006 -0.020
-0.003 -0.006 -0.020
-0.004 -0.006 -0.020
-0.004 -0.005 -0.020
-0.005 -0.004 -0.020
B RightHandPinky4
-0.001 -0.006 -0.020
-0.001 -0.006 -0.020
-0.002 -0.006 -0.020
-0.002 -0.006 -0.020
-0.002 -0.006 -0.020
-0.002 -0.006 -0.020
-0.002 -0.006 -0.020
-0.003 -0.006 -0.020
-0.003 -0.006 -0.020
-0.002 -0.006 -0.020
-0.002 -0.006 -0.020
-0.002 -0.006 -0.020
-0.002 -0.005 -0.020
-0.003 -0.005 -0.020
-0.004 -0.005 -0.020
-0.004 -0.004 -0.020
B RightHandRing1
-0.031 -0.017 -0.086
-0.031 -0.017 -0.086
-0.033 -0.018 -0.085
-0.035 -0.018 -0.084
-0.036 -0.019 -0.084
-0.036 -0.019 -0.084
-0.036 -0.018 -0.084
-0.036 -0.018 -0.084
-0.036 -0.018 -0.084
-0.036 -0.016 -0.084
-0.035 -0.016 -0.084
-0.035 -0.016 -0.085
-0.035 -0.014 -0.085
-0.037 -0.012 -0.084
-0.039 -0.009 -0.084
-0.040 -0.005 -0.084
B RightHandRing2
-0.005 -0.011 -0.032
-0.005 -0.011 -0.032
-0.006 -0.011 -0.031
-0.007 -0.011 -0.031
-0.007 -0.011 -0.031
-0.007 -0.011 -0.031
-0.007 -0.011 -0.031
-0.007 -0.011 -0.031
-0.007 -0.011 -0.031
-0.007 -0.011 -0.031
-0.007 -0.011 -0.031
-0.007 -0.011 -0.031
-0.007 -0.010 -0.031
-0.008 -0.010 -0.031
-0.009 -0.009 -0.031
-0.010 -0.008 -0.031
B RightHandRing3
-0.003 -0.008 -0.028
-0.003 -0.008 -0.028
-0.003 -0.008 -0.027
-0.004 -0.008 -0.027
-0.004 -0.008 -0.027
-0.004 -0.009 -0.027
-0.004 -0.008 -0.027
-0.004 -0.009 -0.027
-0.004 -0.008 -0.027
-0.004 -0.008 -0.027
-0.004 -0.008 -0.027
-0.004 -0.008 -0.027
-0.004 -0.008 -0.027
-0.005 -0.008 -0.027
-0.006 -0.007 -0.027
-0.007 -0.006 -0.028
B RightHandRing4
-0.002 -0.007 -0.025
-0.002 -0.007 -0.025
-0.002 -0.007 -0.025
-0.003 -0.007 -0.025
-0.003 -0.007 -0.025
-0.003 -0.007 -0.025
-0.003 -0.007 -0.025
-0.003 -0.007 -0.025
-0.003 -0.007 -0.025
-0.003 -0.007 -0.025
-0.003 -0.007 -0.025
-0.003 -0.007 -0.025
-0.003 -0.007 -0.025
-0.004 -0.007 -0.025
-0.004 -0.006 -0.025
-0.005 -0.005 -0.025
B RightHandThumb1
0.018 -0.028 -0.021
0.018 -0.028 -0.021
0.018 -0.028 -0.022
0.018 -0.028 -0.022
0.018 -0.028 -0.022
0.018 -0.028 -0.022
0.017 -0.028 -0.022
0.017 -0.028 -0.022
0.017 -0.029 -0.022
0.016 -0.028 -0.022
0.016 -0.029 -0.022
0.016 -0.029 -0.022
0.015 -0.030 -0.022
0.013 -0.030 -0.022
0.011 -0.031 -0.023
0.009 -0.031 -0.024
B RightHandThumb2
0.010 -0.018 -0.036
0.010 -0.018 -0.036
0.009 -0.018 -0.037
0.009 -0.018 -0.037
0.008 -0.018 -0.037
0.008 -0.018 -0.037
0.008 -0.018 -0.037
0.008 -0.019 -0.037
0.008 -0.019 -0.037
0.008 -0.018 -0.037
0.008 -0.018 -0.037
0.008 -0.019 -0.037
0.007 -0.019 -0.037
0.006 -0.019 -0.037
0.004 -0.019 -0.037
0.003 -0.018 -0.038
B RightHandThumb3
0.002 -0.005 -0.034
0.002 -0.005 -0.034
0.001 -0.005 -0.034
-0.000 -0.005 -0.034
-0.000 -0.005 -0.034
-0.000 -0.005 -0.034
-0.001 -0.005 -0.034
-0.001 -0.005 -0.034
-0.001 -0.005 -0.034
-0.000 -0.005 -0.034
-0.000 -0.005 -0.034
0.000 -0.005 -0.034
-0.000 -0.005 -0.034
-0.001 -0.005 -0.034
-0.001 -0.004 -0.034
-0.002 -0.003 -0.034
B RightHandThumb4
-0.001 -0.002 -0.026
-0.001 -0.002 -0.026
-0.002 -0.002 -0.026
-0.003 -0.002 -0.026
-0.003 -0.002 -0.025
-0.003 -0.002 -0.025
-0.003 -0.002 -0.025
-0.003 -0.002 -0.025
-0.003 -0.002 -0.025
-0.003 -0.002 -0.026
-0.003 -0.002 -0.026
-0.002 -0.002 -0.026
-0.002 -0.002 -0.026
-0.003 -0.002 -0.026
-0.003 -0.001 -0.025
-0.004 -0.000 -0.025
B RightLeg
0.002 -0.061 -0.439
0.002 -0.061 -0.439
0.001 -0.060 -0.440
0.001 -0.057 -0.440
0.003 -0.052 -0.441
-0.000 -0.051 -0.441
-0.005 -0.053 -0.440
-0.005 -0.053 -0.440
-0.005 -0.058 -0.440
-0.006 -0.073 -0.438
-0.008 -0.091 -0.434
-0.011 -0.106 -0.431
-0.017 -0.128 -0.424
-0.026 -0.167 -0.410
-0.033 -0.201 -0.394
-0.038 -0.226 -0.380
B RightShoulder
-0.050 0.015 0.109
-0.050 0.015 0.109
-0.050 0.015 0.110
-0.049 0.014 0.110
-0.049 0.015 0.110
-0.049 0.015 0.110
-0.049 0.013 0.110
-0.049 0.014 0.110
-0.049 0.014 0.110
-0.049 0.013 0.110
-0.048 0.012 0.111
-0.048 0.011 0.111
-0.048 0.010 0.111
-0.047 0.010 0.111
-0.046 0.010 0.112
-0.046 0.009 0.112
B RightToeBase
-0.004 -0.094 -0.101
-0.004 -0.094 -0.101
-0.005 -0.094 -0.101
-0.005 -0.094 -0.101
-0.006 -0.095 -0.100
-0.006 -0.096 -0.099
-0.007 -0.097 -0.098
-0.009 -0.097 -0.098
-0.010 -0.097 -0.098
-0.012 -0.091 -0.103
-0.013 -0.082 -0.111
-0.014 -0.076 -0.115
-0.016 -0.066 -0.120
-0.017 -0.053 -0.126
-0.015 -0.048 -0.129
-0.009 -0.058 -0.125
B RightToe_End
0.010 -0.092 0.002
0.010 -0.092 0.002
0.009 -0.092 0.002
0.009 -0.092 0.002
0.008 -0.092 0.002
0.008 -0.092 0.002
0.007 -0.092 0.002
0.007 -0.093 0.002
0.007 -0.093 0.002
0.007 -0.093 0.001
0.007 -0.092 0.001
0.008 -0.092 0.001
0.007 -0.092 -0.004
0.002 -0.091 -0.020
-0.001 -0.086 -0.036
-0.001 -0.083 -0.041
B RightUpLeg
-0.084 0.015 -0.065
-0.084 0.015 -0.065
-0.085 0.015 -0.065
-0.085 0.016 -0.064
-0.084 0.016 -0.065
-0.084 0.017 -0.064
-0.084 0.017 -0.064
-0.084 0.017 -0.064
-0.084 0.016 -0.065
-0.084 0.016 -0.065
-0.084 0.016 -0.065
-0.084 0.016 -0.066
-0.083 0.017 -0.066
-0.083 0.018 -0.066
-0.084 0.019 -0.065
-0.084 0.019 -0.065
B Spine
0.003 -0.007 0.102
0.003 -0.007 0.102
0.003 -0.007 0.102
0.003 -0.007 0.102
0.003 -0.006 0.102
0.003 -0.008 0.101
0.003 -0.010 0.101
0.002 -0.010 0.101
0.002 -0.009 0.101
0.002 -0.009 0.101
0.002 -0.009 0.101
0.001 -0.010 0.101
0.000 -0.011 0.101
0.000 -0.012 0.101
0.001 -0.014 0.101
0.001 -0.016 0.101
B Spine1
-0.001 0.010 0.100
-0.001 0.010 0.100
-0.001 0.010 0.100
-0.001 0.010 0.100
-0.000 0.010 0.100
-0.000 0.009 0.100
-0.000 0.007 0.100
-0.000 0.008 0.100
-0.001 0.008 0.100
-0.000 0.008 0.100
-0.000 0.007 0.100
0.000 0.007 0.100
-0.000 0.006 0.100
0.000 0.004 0.100
0.001 0.003 0.100
0.001 0.001 0.100
B Spine2
-0.002 0.010 0.093
-0.002 0.010 0.093
-0.002 0.010 0.093
-0.002 0.009 0.093
-0.001 0.010 0.093
-0.001 0.009 0.093
-0.001 0.008 0.093
-0.001 0.008 0.093
-0.001 0.009 0.093
-0.001 0.008 0.093
-0.001 0.007 0.093
-0.001 0.006 0.093
-0.001 0.005 0.093
-0.000 0.004 0.093
0.000 0.003 0.093
0.000 0.002 0.093
