# Blender v2.79 (sub 0) OBJ File: 'Stop Walking.blend'
# www.blender.org
B Head
-0.002 -0.011 0.097
-0.001 -0.011 0.097
0.000 -0.011 0.097
0.001 -0.012 0.097
0.002 -0.012 0.097
0.003 -0.012 0.097
0.004 -0.011 0.097
0.004 -0.010 0.097
0.006 -0.008 0.097
0.007 -0.007 0.097
0.009 -0.006 0.097
0.010 -0.007 0.097
0.010 -0.008 0.097
0.010 -0.009 0.097
0.009 -0.009 0.097
0.008 -0.010 0.097
0.006 -0.010 0.097
0.005 -0.010 0.097
0.004 -0.010 0.097
0.002 -0.009 0.097
0.001 -0.009 0.097
0.000 -0.009 0.097
-0.000 -0.009 0.097
-0.001 -0.008 0.097
-0.001 -0.007 0.097
-0.002 -0.005 0.097
-0.002 -0.004 0.098
-0.003 -0.003 0.098
-0.003 -0.003 0.098
-0.004 -0.003 0.098
-0.004 -0.004 0.097
-0.004 -0.005 0.097
-0.005 -0.005 0.097
-0.005 -0.006 0.097
-0.005 -0.006 0.097
-0.004 -0.005 0.097
-0.004 -0.005 0.097
-0.004 -0.004 0.097
-0.003 -0.003 0.098
-0.003 -0.002 0.098
-0.002 -0.000 0.098
-0.002 0.001 0.098
-0.001 0.002 0.098
-0.001 0.003 0.098
-0.001 0.003 0.098
-0.000 0.004 0.098
-0.000 0.004 0.098
0.000 0.005 0.098
0.000 0.005 0.098
0.000 0.006 0.097
0.001 0.006 0.097
0.001 0.006 0.097
0.001 0.006 0.097
0.001 0.006 0.097
0.001 0.006 0.097
0.001 0.006 0.097
0.000 0.006 0.097
0.000 0.006 0.097
0.000 0.006 0.097
-0.000 0.006 0.097
-0.000 0.006 0.097
-0.000 0.006 0.097
-0.001 0.006 0.097
-0.001 0.006 0.097
-0.001 0.006 0.097
-0.001 0.006 0.097
-0.001 0.006 0.097
-0.002 0.006 0.097
-0.002 0.006 0.097
-0.002 0.006 0.097
-0.002 0.006 0.097
-0.002 0.006 0.097
-0.002 0.006 0.097
B HeadTop_End
-0.003 -0.084 0.217
0.000 -0.084 0.217
0.003 -0.084 0.217
0.004 -0.084 0.217
0.005 -0.084 0.217
0.005 -0.082 0.218
0.004 -0.080 0.219
0.002 -0.077 0.220
0.000 -0.074 0.221
-0.002 -0.071 0.222
-0.005 -0.066 0.223
-0.006 -0.062 0.224
-0.006 -0.059 0.225
-0.006 -0.058 0.225
-0.007 -0.060 0.225
-0.009 -0.064 0.224
-0.010 -0.067 0.223
-0.010 -0.069 0.222
-0.009 -0.070 0.222
-0.009 -0.070 0.222
-0.009 -0.071 0.222
-0.009 -0.071 0.221
-0.009 -0.071 0.221
-0.009 -0.071 0.222
-0.009 -0.071 0.221
-0.010 -0.072 0.221
-0.009 -0.071 0.221
-0.008 -0.070 0.222
-0.007 -0.069 0.222
-0.007 -0.068 0.222
-0.005 -0.067 0.223
-0.004 -0.067 0.223
-0.002 -0.069 0.222
-0.000 -0.072 0.221
0.001 -0.075 0.220
0.002 -0.076 0.220
0.003 -0.076 0.220
0.003 -0.077 0.220
0.004 -0.078 0.219
0.003 -0.079 0.219
0.002 -0.080 0.219
0.001 -0.080 0.218
0.001 -0.080 0.219
0.001 -0.078 0.219
0.001 -0.076 0.220
0.000 -0.075 0.220
-0.001 -0.074 0.221
-0.001 -0.075 0.221
-0.001 -0.075 0.220
-0.001 -0.076 0.220
-0.001 -0.076 0.220
-0.001 -0.076 0.220
-0.000 -0.076 0.220
-0.000 -0.077 0.220
-0.001 -0.078 0.219
-0.001 -0.078 0.219
-0.001 -0.077 0.220
-0.001 -0.075 0.220
-0.000 -0.074 0.221
-0.000 -0.073 0.221
0.000 -0.073 0.221
0.000 -0.073 0.221
-0.000 -0.074 0.221
-0.000 -0.074 0.221
-0.001 -0.075 0.220
-0.001 -0.076 0.220
-0.001 -0.076 0.220
-0.001 -0.075 0.220
-0.001 -0.075 0.220
-0.002 -0.075 0.220
-0.002 -0.075 0.220
-0.001 -0.076 0.220
-0.001 -0.076 0.220
B Hips
-0.001 -0.009 -0.034
-0.001 -0.009 -0.034
-0.002 -0.008 -0.034
-0.002 -0.008 -0.034
-0.003 -0.007 -0.034
-0.003 -0.007 -0.034
-0.004 -0.007 -0.034
-0.003 -0.007 -0.034
-0.003 -0.007 -0.034
-0.002 -0.007 -0.034
-0.001 -0.007 -0.034
-0.001 -0.008 -0.034
-0.001 -0.008 -0.034
-0.001 -0.009 -0.034
-0.002 -0.009 -0.034
-0.002 -0.009 -0.034
-0.002 -0.009 -0.034
-0.002 -0.009 -0.034
-0.002 -0.008 -0.034
-0.001 -0.008 -0.034
-0.001 -0.007 -0.034
0.000 -0.007 -0.034
0.000 -0.006 -0.034
0.001 -0.006 -0.035
0.001 -0.006 -0.035
0.000 -0.006 -0.035
-0.000 -0.006 -0.035
-0.001 -0.006 -0.035
-0.001 -0.006 -0.034
-0.001 -0.006 -0.034
-0.001 -0.006 -0.034
-0.001 -0.007 -0.034
-0.001 -0.007 -0.034
-0.001 -0.007 -0.034
-0.000 -0.007 -0.034
-0.000 -0.007 -0.034
-0.000 -0.006 -0.034
-0.000 -0.006 -0.034
-0.001 -0.007 -0.034
-0.001 -0.007 -0.034
-0.001 -0.007 -0.034
-0.001 -0.007 -0.034
-0.001 -0.007 -0.034
-0.001 -0.006 -0.034
-0.001 -0.006 -0.034
-0.001 -0.006 -0.034
-0.001 -0.006 -0.035
-0.001 -0.006 -0.035
-0.001 -0.006 -0.035
-0.001 -0.005 -0.035
-0.002 -0.005 -0.035
-0.002 -0.005 -0.035
-0.002 -0.005 -0.035
-0.002 -0.005 -0.035
-0.002 -0.005 -0.035
-0.002 -0.005 -0.035
-0.002 -0.004 -0.035
-0.002 -0.004 -0.035
-0.002 -0.004 -0.035
-0.002 -0.004 -0.035
-0.002 -0.004 -0.035
-0.002 -0.004 -0.035
-0.001 -0.004 -0.035
-0.001 -0.004 -0.035
-0.001 -0.004 -0.035
-0.001 -0.004 -0.035
-0.001 -0.004 -0.035
-0.001 -0.004 -0.035
-0.001 -0.004 -0.035
-0.001 -0.004 -0.035
-0.001 -0.004 -0.035
-0.001 -0.004 -0.035
-0.001 -0.004 -0.035
B LeftArm
0.100 0.042 0.007
0.099 0.043 0.006
0.099 0.044 0.005
0.099 0.045 0.004
0.099 0.044 0.003
0.099 0.044 0.002
0.099 0.044 0.000
0.100 0.042 -0.002
0.101 0.039 -0.005
0.102 0.035 -0.007
0.104 0.029 -0.010
0.105 0.022 -0.012
0.106 0.015 -0.014
0.107 0.009 -0.015
0.107 0.003 -0.016
0.107 -0.001 -0.016
0.107 -0.005 -0.015
0.107 -0.008 -0.014
0.107 -0.010 -0.012
0.107 -0.010 -0.011
0.107 -0.010 -0.010
0.108 -0.008 -0.009
0.108 -0.006 -0.009
0.108 -0.003 -0.009
0.108 0.001 -0.008
0.108 0.006 -0.007
0.108 0.010 -0.006
0.107 0.014 -0.004
0.107 0.019 -0.002
0.106 0.024 0.000
0.105 0.029 0.002
0.103 0.034 0.004
0.101 0.038 0.005
0.100 0.042 0.006
0.098 0.045 0.007
0.097 0.048 0.007
0.096 0.049 0.006
0.096 0.049 0.006
0.097 0.048 0.005
0.098 0.046 0.003
0.099 0.043 0.002
0.100 0.041 0.001
0.101 0.038 0.000
0.102 0.036 -0.000
0.103 0.034 -0.001
0.104 0.032 -0.001
0.104 0.030 -0.001
0.105 0.028 -0.002
0.105 0.027 -0.002
0.105 0.026 -0.003
0.105 0.025 -0.003
0.106 0.024 -0.003
0.106 0.024 -0.003
0.106 0.024 -0.003
0.106 0.025 -0.002
0.105 0.025 -0.003
0.105 0.025 -0.003
0.105 0.026 -0.003
0.105 0.027 -0.003
0.105 0.027 -0.003
0.105 0.028 -0.003
0.105 0.029 -0.002
0.104 0.029 -0.002
0.104 0.030 -0.002
0.104 0.030 -0.002
0.104 0.031 -0.002
0.104 0.031 -0.002
0.104 0.031 -0.002
0.104 0.032 -0.001
0.104 0.032 -0.001
0.104 0.032 -0.001
0.104 0.032 -0.001
0.104 0.032 -0.001
B LeftFoot
-0.049 0.267 -0.353
-0.032 0.191 -0.401
-0.025 0.097 -0.434
-0.025 0.003 -0.445
-0.025 -0.067 -0.439
-0.025 -0.096 -0.434
-0.037 -0.075 -0.437
-0.043 -0.049 -0.441
-0.048 -0.025 -0.442
-0.056 0.008 -0.442
-0.062 0.037 -0.439
-0.066 0.066 -0.435
-0.068 0.092 -0.430
-0.068 0.110 -0.426
-0.069 0.124 -0.422
-0.070 0.136 -0.418
-0.073 0.145 -0.415
-0.074 0.152 -0.412
-0.074 0.161 -0.408
-0.073 0.169 -0.405
-0.071 0.175 -0.403
-0.070 0.189 -0.397
-0.071 0.213 -0.384
-0.072 0.239 -0.369
-0.072 0.258 -0.355
-0.070 0.271 -0.346
-0.064 0.282 -0.338
-0.063 0.296 -0.327
-0.069 0.312 -0.310
-0.079 0.327 -0.291
-0.088 0.339 -0.274
-0.093 0.343 -0.268
-0.090 0.336 -0.278
-0.078 0.314 -0.306
-0.060 0.275 -0.345
-0.040 0.216 -0.387
-0.023 0.152 -0.418
-0.016 0.109 -0.431
-0.015 0.087 -0.436
-0.015 0.074 -0.439
-0.016 0.068 -0.440
-0.018 0.069 -0.440
-0.018 0.071 -0.439
-0.018 0.072 -0.439
-0.019 0.073 -0.439
-0.020 0.075 -0.439
-0.020 0.075 -0.438
-0.021 0.073 -0.439
-0.020 0.070 -0.439
-0.020 0.066 -0.440
-0.020 0.062 -0.440
-0.020 0.060 -0.441
-0.020 0.060 -0.441
-0.020 0.062 -0.441
-0.020 0.062 -0.440
-0.020 0.062 -0.440
-0.019 0.062 -0.441
-0.019 0.059 -0.441
-0.018 0.055 -0.441
-0.018 0.051 -0.442
-0.018 0.048 -0.442
-0.018 0.046 -0.443
-0.018 0.043 -0.443
-0.018 0.040 -0.443
-0.018 0.036 -0.443
-0.018 0.032 -0.444
-0.018 0.029 -0.444
-0.018 0.026 -0.444
-0.018 0.024 -0.444
-0.018 0.023 -0.444
-0.018 0.021 -0.444
-0.018 0.020 -0.444
-0.018 0.019 -0.445
B LeftForeArm
0.101 0.059 -0.253
0.096 0.069 -0.252
0.089 0.075 -0.253
0.080 0.075 -0.256
0.072 0.072 -0.259
0.065 0.070 -0.261
0.061 0.070 -0.262
0.058 0.069 -0.264
0.053 0.060 -0.267
0.048 0.042 -0.271
0.041 0.021 -0.275
0.038 0.008 -0.276
0.039 -0.004 -0.276
0.046 -0.016 -0.274
0.053 -0.032 -0.271
0.057 -0.050 -0.268
0.062 -0.065 -0.264
0.070 -0.076 -0.259
0.080 -0.084 -0.253
0.090 -0.089 -0.248
0.100 -0.092 -0.243
0.108 -0.091 -0.240
0.113 -0.088 -0.239
0.116 -0.082 -0.239
0.116 -0.072 -0.243
0.111 -0.057 -0.249
0.101 -0.042 -0.256
0.090 -0.025 -0.262
0.084 -0.008 -0.265
0.085 0.008 -0.265
0.088 0.023 -0.263
0.090 0.036 -0.261
0.090 0.048 -0.259
0.088 0.058 -0.258
0.085 0.067 -0.256
0.083 0.074 -0.255
0.081 0.080 -0.254
0.078 0.081 -0.255
0.075 0.077 -0.257
0.073 0.068 -0.260
0.073 0.059 -0.262
0.075 0.052 -0.263
0.077 0.046 -0.263
0.081 0.042 -0.263
0.085 0.039 -0.262
0.090 0.036 -0.261
0.094 0.033 -0.260
0.096 0.029 -0.260
0.096 0.026 -0.260
0.095 0.025 -0.260
0.095 0.025 -0.261
0.094 0.026 -0.261
0.094 0.028 -0.261
0.093 0.030 -0.261
0.091 0.032 -0.261
0.088 0.035 -0.262
0.085 0.037 -0.263
0.081 0.038 -0.264
0.077 0.040 -0.265
0.074 0.041 -0.265
0.072 0.042 -0.266
0.071 0.043 -0.266
0.070 0.043 -0.266
0.069 0.043 -0.266
0.068 0.042 -0.267
0.067 0.041 -0.267
0.067 0.041 -0.267
0.067 0.040 -0.267
0.067 0.039 -0.267
0.067 0.039 -0.267
0.067 0.039 -0.267
0.067 0.039 -0.268
0.066 0.038 -0.268
B LeftHand
0.061 -0.059 -0.270
0.060 -0.051 -0.272
0.058 -0.038 -0.275
0.055 -0.022 -0.277
0.051 -0.008 -0.279
0.047 0.000 -0.279
0.042 0.001 -0.280
0.038 -0.000 -0.281
0.035 0.000 -0.281
0.035 0.002 -0.281
0.034 0.003 -0.281
0.030 -0.006 -0.282
0.027 -0.023 -0.281
0.022 -0.046 -0.279
0.015 -0.073 -0.273
0.005 -0.102 -0.264
-0.009 -0.129 -0.252
-0.025 -0.153 -0.237
-0.043 -0.171 -0.222
-0.061 -0.182 -0.208
-0.075 -0.188 -0.198
-0.086 -0.188 -0.194
-0.091 -0.186 -0.193
-0.091 -0.180 -0.199
-0.081 -0.173 -0.209
-0.062 -0.162 -0.224
-0.038 -0.146 -0.240
-0.011 -0.123 -0.255
0.014 -0.094 -0.267
0.032 -0.068 -0.273
0.042 -0.050 -0.276
0.047 -0.039 -0.277
0.049 -0.032 -0.277
0.048 -0.029 -0.278
0.043 -0.033 -0.278
0.037 -0.040 -0.278
0.031 -0.048 -0.277
0.024 -0.055 -0.277
0.020 -0.060 -0.276
0.017 -0.064 -0.275
0.016 -0.067 -0.275
0.016 -0.073 -0.273
0.014 -0.081 -0.271
0.011 -0.091 -0.268
0.007 -0.102 -0.264
0.003 -0.110 -0.261
-0.001 -0.118 -0.258
-0.003 -0.123 -0.255
-0.004 -0.126 -0.254
-0.005 -0.128 -0.253
-0.006 -0.129 -0.252
-0.007 -0.129 -0.252
-0.009 -0.129 -0.252
-0.010 -0.129 -0.252
-0.011 -0.127 -0.253
-0.009 -0.124 -0.254
-0.007 -0.121 -0.256
-0.005 -0.116 -0.259
-0.004 -0.110 -0.261
-0.003 -0.105 -0.263
-0.003 -0.100 -0.265
-0.003 -0.096 -0.266
-0.004 -0.093 -0.268
-0.004 -0.089 -0.269
-0.005 -0.086 -0.270
-0.006 -0.083 -0.271
-0.007 -0.081 -0.271
-0.008 -0.079 -0.272
-0.009 -0.077 -0.272
-0.010 -0.076 -0.273
-0.011 -0.075 -0.273
-0.011 -0.074 -0.273
-0.011 -0.073 -0.274
B LeftHandIndex1
0.023 -0.052 -0.075
0.023 -0.050 -0.076
0.022 -0.048 -0.078
0.020 -0.046 -0.079
0.019 -0.045 -0.080
0.019 -0.045 -0.080
0.019 -0.046 -0.080
0.018 -0.048 -0.079
0.017 -0.049 -0.079
0.015 -0.050 -0.078
0.010 -0.052 -0.078
0.003 -0.054 -0.077
-0.003 -0.055 -0.076
-0.003 -0.058 -0.074
-0.002 -0.062 -0.071
-0.001 -0.068 -0.065
-0.003 -0.074 -0.058
-0.007 -0.080 -0.049
-0.012 -0.085 -0.039
-0.017 -0.088 -0.029
-0.022 -0.089 -0.021
-0.026 -0.089 -0.015
-0.030 -0.088 -0.011
-0.032 -0.088 -0.012
-0.031 -0.087 -0.017
-0.025 -0.086 -0.028
-0.014 -0.082 -0.044
-0.001 -0.071 -0.061
0.009 -0.055 -0.075
0.014 -0.040 -0.084
0.016 -0.030 -0.088
0.017 -0.025 -0.089
0.020 -0.022 -0.089
0.022 -0.021 -0.089
0.024 -0.023 -0.088
0.025 -0.026 -0.087
0.028 -0.029 -0.085
0.031 -0.030 -0.084
0.032 -0.032 -0.082
0.030 -0.034 -0.082
0.027 -0.036 -0.082
0.024 -0.037 -0.083
0.023 -0.039 -0.083
0.022 -0.041 -0.082
0.021 -0.044 -0.080
0.020 -0.048 -0.079
0.018 -0.050 -0.077
0.016 -0.052 -0.077
0.015 -0.053 -0.076
0.014 -0.055 -0.075
0.014 -0.058 -0.073
0.013 -0.060 -0.071
0.012 -0.061 -0.071
0.011 -0.061 -0.071
0.010 -0.059 -0.072
0.011 -0.058 -0.073
0.011 -0.056 -0.075
0.012 -0.054 -0.076
0.012 -0.052 -0.077
0.013 -0.050 -0.079
0.013 -0.048 -0.080
0.013 -0.046 -0.081
0.014 -0.045 -0.082
0.014 -0.043 -0.083
0.015 -0.041 -0.083
0.015 -0.039 -0.084
0.015 -0.038 -0.085
0.015 -0.037 -0.085
0.015 -0.036 -0.086
0.015 -0.035 -0.086
0.015 -0.035 -0.086
0.015 -0.034 -0.086
0.015 -0.034 -0.086
B LeftHandIndex2
-0.004 -0.011 -0.035
-0.004 -0.010 -0.035
-0.004 -0.010 -0.035
-0.005 -0.009 -0.036
-0.005 -0.008 -0.036
-0.006 -0.008 -0.036
-0.006 -0.008 -0.036
-0.006 -0.009 -0.035
-0.006 -0.009 -0.035
-0.007 -0.009 -0.035
-0.008 -0.009 -0.035
-0.010 -0.009 -0.034
-0.011 -0.008 -0.034
-0.010 -0.008 -0.035
-0.009 -0.010 -0.034
-0.010 -0.012 -0.034
-0.011 -0.015 -0.032
-0.013 -0.018 -0.029
-0.015 -0.021 -0.027
-0.017 -0.022 -0.024
-0.019 -0.023 -0.022
-0.021 -0.023 -0.020
-0.022 -0.023 -0.019
-0.023 -0.022 -0.019
-0.022 -0.021 -0.021
-0.020 -0.019 -0.024
-0.016 -0.017 -0.029
-0.011 -0.012 -0.033
-0.007 -0.005 -0.036
-0.004 0.002 -0.037
-0.003 0.007 -0.036
-0.002 0.009 -0.036
-0.003 0.009 -0.036
-0.003 0.009 -0.036
-0.004 0.007 -0.036
-0.005 0.005 -0.036
-0.004 0.003 -0.037
-0.004 0.002 -0.037
-0.004 0.001 -0.037
-0.004 0.001 -0.037
-0.005 0.000 -0.037
-0.006 0.000 -0.037
-0.006 0.000 -0.036
-0.007 -0.001 -0.036
-0.007 -0.002 -0.036
-0.007 -0.003 -0.036
-0.008 -0.004 -0.036
-0.008 -0.004 -0.036
-0.009 -0.004 -0.036
-0.009 -0.005 -0.036
-0.009 -0.006 -0.035
-0.009 -0.007 -0.035
-0.010 -0.007 -0.035
-0.010 -0.007 -0.035
-0.010 -0.006 -0.035
-0.011 -0.005 -0.035
-0.011 -0.005 -0.035
-0.011 -0.004 -0.035
-0.011 -0.003 -0.035
-0.011 -0.002 -0.035
-0.011 -0.001 -0.035
-0.011 -0.001 -0.035
-0.011 -0.000 -0.035
-0.011 0.001 -0.035
-0.011 0.001 -0.035
-0.012 0.002 -0.035
-0.012 0.002 -0.035
-0.012 0.003 -0.035
-0.012 0.003 -0.035
-0.012 0.003 -0.035
-0.012 0.003 -0.035
-0.012 0.004 -0.035
-0.012 0.004 -0.035
B LeftHandIndex3
-0.014 -0.005 -0.024
-0.014 -0.005 -0.024
-0.015 -0.004 -0.024
-0.015 -0.004 -0.024
-0.015 -0.003 -0.024
-0.015 -0.003 -0.024
-0.016 -0.003 -0.024
-0.016 -0.004 -0.023
-0.016 -0.004 -0.023
-0.016 -0.004 -0.023
-0.017 -0.003 -0.023
-0.018 -0.001 -0.022
-0.018 0.001 -0.022
-0.017 0.002 -0.023
-0.017 0.001 -0.023
-0.017 -0.000 -0.023
-0.018 -0.002 -0.022
-0.020 -0.003 -0.020
-0.021 -0.004 -0.019
-0.022 -0.005 -0.018
-0.022 -0.004 -0.017
-0.023 -0.004 -0.016
-0.023 -0.003 -0.016
-0.024 -0.002 -0.016
-0.023 -0.001 -0.016
-0.023 -0.001 -0.017
-0.021 -0.000 -0.019
-0.019 0.001 -0.022
-0.016 0.004 -0.024
-0.013 0.008 -0.024
-0.012 0.011 -0.023
-0.012 0.012 -0.023
-0.013 0.012 -0.023
-0.014 0.010 -0.023
-0.015 0.008 -0.023
-0.015 0.006 -0.023
-0.015 0.004 -0.024
-0.015 0.003 -0.024
-0.015 0.003 -0.024
-0.016 0.002 -0.024
-0.016 0.003 -0.023
-0.017 0.003 -0.023
-0.017 0.003 -0.023
-0.017 0.003 -0.022
-0.018 0.003 -0.022
-0.018 0.002 -0.022
-0.018 0.002 -0.022
-0.018 0.003 -0.022
-0.019 0.003 -0.021
-0.019 0.003 -0.021
-0.019 0.002 -0.021
-0.019 0.002 -0.021
-0.019 0.002 -0.021
-0.019 0.003 -0.021
-0.020 0.003 -0.020
-0.020 0.003 -0.020
-0.020 0.004 -0.020
-0.020 0.004 -0.020
-0.020 0.005 -0.020
-0.020 0.005 -0.019
-0.021 0.005 -0.019
-0.021 0.005 -0.019
-0.021 0.005 -0.019
-0.021 0.006 -0.018
-0.021 0.006 -0.018
-0.021 0.006 -0.018
-0.021 0.006 -0.018
-0.021 0.006 -0.018
-0.022 0.007 -0.018
-0.022 0.007 -0.017
-0.022 0.007 -0.017
-0.022 0.007 -0.017
-0.022 0.007 -0.017
B LeftHandIndex4
-0.014 -0.005 -0.024
-0.014 -0.005 -0.023
-0.014 -0.004 -0.023
-0.015 -0.003 -0.023
-0.015 -0.003 -0.023
-0.015 -0.003 -0.023
-0.015 -0.003 -0.023
-0.015 -0.004 -0.023
-0.016 -0.004 -0.023
-0.016 -0.004 -0.022
-0.017 -0.003 -0.022
-0.017 -0.001 -0.022
-0.017 0.001 -0.022
-0.017 0.002 -0.022
-0.016 0.001 -0.023
-0.017 -0.000 -0.022
-0.018 -0.002 -0.021
-0.019 -0.003 -0.020
-0.020 -0.004 -0.018
-0.021 -0.004 -0.017
-0.022 -0.004 -0.017
-0.022 -0.004 -0.016
-0.023 -0.003 -0.015
-0.023 -0.002 -0.015
-0.023 -0.001 -0.016
-0.022 -0.001 -0.017
-0.021 -0.000 -0.019
-0.018 0.001 -0.021
-0.015 0.004 -0.023
-0.013 0.008 -0.023
-0.012 0.011 -0.023
-0.012 0.012 -0.022
-0.012 0.011 -0.022
-0.013 0.010 -0.022
-0.014 0.008 -0.022
-0.015 0.006 -0.023
-0.015 0.004 -0.023
-0.015 0.003 -0.023
-0.015 0.003 -0.023
-0.015 0.002 -0.023
-0.016 0.003 -0.023
-0.016 0.003 -0.022
-0.017 0.003 -0.022
-0.017 0.003 -0.022
-0.017 0.002 -0.022
-0.017 0.002 -0.022
-0.018 0.002 -0.021
-0.018 0.002 -0.021
-0.018 0.003 -0.021
-0.018 0.003 -0.021
-0.018 0.002 -0.021
-0.018 0.002 -0.021
-0.019 0.002 -0.020
-0.019 0.003 -0.020
-0.019 0.003 -0.020
-0.019 0.003 -0.020
-0.019 0.004 -0.019
-0.020 0.004 -0.019
-0.020 0.004 -0.019
-0.020 0.005 -0.019
-0.020 0.005 -0.018
-0.020 0.005 -0.018
-0.020 0.005 -0.018
-0.020 0.006 -0.018
-0.021 0.006 -0.018
-0.021 0.006 -0.018
-0.021 0.006 -0.017
-0.021 0.006 -0.017
-0.021 0.006 -0.017
-0.021 0.006 -0.017
-0.021 0.006 -0.017
-0.021 0.007 -0.017
-0.021 0.007 -0.017
B LeftHandMiddle1
0.033 -0.033 -0.083
0.032 -0.030 -0.084
0.031 -0.028 -0.086
0.030 -0.026 -0.087
0.029 -0.025 -0.087
0.028 -0.025 -0.087
0.028 -0.026 -0.087
0.027 -0.027 -0.087
0.027 -0.029 -0.087
0.025 -0.031 -0.087
0.021 -0.034 -0.087
0.016 -0.037 -0.087
0.012 -0.040 -0.086
0.013 -0.044 -0.084
0.016 -0.049 -0.080
0.016 -0.055 -0.076
0.013 -0.063 -0.070
0.009 -0.071 -0.063
0.004 -0.078 -0.054
-0.001 -0.084 -0.046
-0.006 -0.087 -0.038
-0.011 -0.089 -0.032
-0.015 -0.090 -0.029
-0.017 -0.089 -0.030
-0.015 -0.087 -0.035
-0.009 -0.083 -0.046
0.002 -0.074 -0.060
0.015 -0.059 -0.073
0.025 -0.039 -0.083
0.029 -0.022 -0.088
0.030 -0.012 -0.090
0.031 -0.006 -0.090
0.033 -0.002 -0.089
0.034 -0.001 -0.089
0.033 -0.002 -0.089
0.034 -0.004 -0.089
0.036 -0.007 -0.088
0.038 -0.008 -0.087
0.039 -0.010 -0.086
0.038 -0.012 -0.086
0.036 -0.015 -0.087
0.034 -0.016 -0.088
0.033 -0.018 -0.088
0.033 -0.021 -0.087
0.032 -0.025 -0.086
0.031 -0.028 -0.085
0.030 -0.031 -0.085
0.029 -0.033 -0.085
0.028 -0.035 -0.084
0.028 -0.038 -0.083
0.028 -0.041 -0.081
0.027 -0.044 -0.080
0.026 -0.045 -0.080
0.025 -0.045 -0.080
0.025 -0.043 -0.081
0.025 -0.041 -0.082
0.026 -0.039 -0.083
0.026 -0.037 -0.084
0.027 -0.034 -0.085
0.027 -0.032 -0.086
0.027 -0.030 -0.087
0.027 -0.028 -0.087
0.027 -0.026 -0.088
0.027 -0.024 -0.088
0.028 -0.022 -0.089
0.028 -0.020 -0.089
0.028 -0.018 -0.089
0.028 -0.017 -0.090
0.027 -0.016 -0.090
0.027 -0.015 -0.090
0.027 -0.015 -0.090
0.027 -0.015 -0.090
0.027 -0.014 -0.090
B LeftHandMiddle2
-0.004 -0.011 -0.035
-0.004 -0.011 -0.035
-0.005 -0.010 -0.035
-0.005 -0.009 -0.036
-0.006 -0.008 -0.036
-0.006 -0.008 -0.036
-0.006 -0.008 -0.036
-0.006 -0.009 -0.035
-0.007 -0.009 -0.035
-0.007 -0.010 -0.035
-0.009 -0.010 -0.035
-0.011 -0.009 -0.034
-0.011 -0.008 -0.034
-0.011 -0.008 -0.034
-0.010 -0.010 -0.034
-0.010 -0.012 -0.033
-0.012 -0.016 -0.031
-0.014 -0.019 -0.029
-0.016 -0.021 -0.026
-0.018 -0.022 -0.023
-0.020 -0.023 -0.021
-0.021 -0.023 -0.019
-0.023 -0.023 -0.018
-0.023 -0.022 -0.018
-0.023 -0.021 -0.020
-0.021 -0.020 -0.023
-0.017 -0.017 -0.028
-0.011 -0.013 -0.033
-0.006 -0.006 -0.036
-0.002 0.001 -0.037
-0.001 0.006 -0.037
-0.000 0.008 -0.036
-0.001 0.009 -0.036
-0.001 0.008 -0.036
-0.002 0.006 -0.036
-0.003 0.004 -0.037
-0.002 0.003 -0.037
-0.002 0.001 -0.037
-0.002 0.000 -0.037
-0.002 -0.000 -0.037
-0.004 -0.001 -0.037
-0.005 -0.001 -0.037
-0.005 -0.001 -0.037
-0.006 -0.002 -0.036
-0.006 -0.003 -0.036
-0.007 -0.004 -0.036
-0.007 -0.005 -0.036
-0.008 -0.005 -0.036
-0.009 -0.006 -0.036
-0.009 -0.006 -0.035
-0.009 -0.007 -0.035
-0.010 -0.008 -0.035
-0.010 -0.009 -0.034
-0.011 -0.008 -0.034
-0.011 -0.008 -0.034
-0.011 -0.007 -0.034
-0.012 -0.006 -0.035
-0.012 -0.005 -0.035
-0.012 -0.005 -0.035
-0.012 -0.004 -0.035
-0.012 -0.003 -0.035
-0.012 -0.003 -0.035
-0.012 -0.002 -0.035
-0.012 -0.001 -0.035
-0.012 -0.001 -0.035
-0.012 -0.000 -0.035
-0.013 0.000 -0.035
-0.013 0.001 -0.035
-0.013 0.001 -0.035
-0.013 0.001 -0.035
-0.013 0.001 -0.035
-0.013 0.002 -0.035
-0.013 0.002 -0.035
B LeftHandMiddle3
-0.016 -0.006 -0.024
-0.016 -0.006 -0.024
-0.016 -0.006 -0.024
-0.017 -0.005 -0.024
-0.017 -0.004 -0.024
-0.017 -0.004 -0.024
-0.017 -0.005 -0.023
-0.018 -0.005 -0.023
-0.018 -0.005 -0.023
-0.018 -0.005 -0.023
-0.019 -0.004 -0.022
-0.020 -0.002 -0.021
-0.020 0.001 -0.021
-0.020 0.002 -0.022
-0.019 0.001 -0.022
-0.020 -0.000 -0.022
-0.021 -0.002 -0.021
-0.022 -0.003 -0.019
-0.024 -0.004 -0.017
-0.024 -0.004 -0.016
-0.025 -0.003 -0.015
-0.026 -0.002 -0.014
-0.026 -0.001 -0.014
-0.026 -0.000 -0.014
-0.026 0.001 -0.014
-0.025 0.001 -0.015
-0.024 0.000 -0.017
-0.021 0.000 -0.020
-0.018 0.003 -0.024
-0.015 0.007 -0.025
-0.013 0.010 -0.025
-0.013 0.011 -0.024
-0.014 0.011 -0.024
-0.015 0.009 -0.024
-0.016 0.007 -0.024
-0.017 0.004 -0.024
-0.017 0.003 -0.024
-0.017 0.001 -0.024
-0.017 0.001 -0.024
-0.018 0.000 -0.024
-0.019 0.001 -0.023
-0.019 0.001 -0.022
-0.020 0.001 -0.022
-0.021 0.001 -0.021
-0.021 0.001 -0.021
-0.022 0.001 -0.020
-0.022 0.001 -0.019
-0.023 0.001 -0.019
-0.023 0.002 -0.018
-0.023 0.002 -0.018
-0.024 0.002 -0.018
-0.024 0.002 -0.017
-0.024 0.002 -0.017
-0.025 0.003 -0.016
-0.025 0.003 -0.015
-0.025 0.004 -0.015
-0.025 0.004 -0.015
-0.026 0.004 -0.014
-0.026 0.004 -0.014
-0.026 0.004 -0.013
-0.026 0.004 -0.013
-0.026 0.004 -0.013
-0.026 0.004 -0.012
-0.026 0.004 -0.012
-0.027 0.004 -0.012
-0.027 0.004 -0.012
-0.027 0.005 -0.012
-0.027 0.005 -0.011
-0.027 0.005 -0.011
-0.027 0.005 -0.011
-0.027 0.005 -0.011
-0.027 0.005 -0.011
-0.027 0.005 -0.011
B LeftHandMiddle4
-0.016 -0.006 -0.024
-0.016 -0.006 -0.024
-0.016 -0.006 -0.024
-0.017 -0.005 -0.024
-0.017 -0.004 -0.024
-0.017 -0.004 -0.024
-0.017 -0.005 -0.023
-0.018 -0.005 -0.023
-0.018 -0.005 -0.023
-0.018 -0.005 -0.023
-0.019 -0.004 -0.022
-0.020 -0.002 -0.021
-0.020 0.001 -0.021
-0.020 0.002 -0.022
-0.019 0.001 -0.022
-0.020 -0.000 -0.022
-0.021 -0.002 -0.021
-0.023 -0.003 -0.019
-0.024 -0.004 -0.017
-0.024 -0.004 -0.016
-0.025 -0.003 -0.015
-0.026 -0.002 -0.015
-0.026 -0.001 -0.014
-0.026 -0.000 -0.014
-0.026 0.001 -0.014
-0.026 0.001 -0.015
-0.024 0.000 -0.017
-0.021 0.000 -0.020
-0.018 0.003 -0.024
-0.015 0.007 -0.025
-0.013 0.010 -0.025
-0.013 0.011 -0.024
-0.014 0.011 -0.024
-0.015 0.009 -0.024
-0.016 0.007 -0.024
-0.017 0.004 -0.024
-0.017 0.003 -0.024
-0.017 0.001 -0.024
-0.017 0.001 -0.024
-0.018 0.000 -0.024
-0.019 0.001 -0.023
-0.019 0.001 -0.022
-0.020 0.001 -0.022
-0.021 0.001 -0.021
-0.021 0.001 -0.021
-0.022 0.001 -0.020
-0.022 0.001 -0.019
-0.023 0.001 -0.019
-0.023 0.002 -0.018
-0.023 0.002 -0.018
-0.024 0.002 -0.018
-0.024 0.002 -0.017
-0.024 0.002 -0.017
-0.025 0.003 -0.016
-0.025 0.003 -0.015
-0.025 0.004 -0.015
-0.025 0.004 -0.015
-0.026 0.004 -0.014
-0.026 0.004 -0.014
-0.026 0.004 -0.013
-0.026 0.004 -0.013
-0.026 0.004 -0.013
-0.026 0.004 -0.012
-0.027 0.004 -0.012
-0.027 0.004 -0.012
-0.027 0.004 -0.012
-0.027 0.005 -0.012
-0.027 0.005 -0.011
-0.027 0.005 -0.011
-0.027 0.005 -0.011
-0.027 0.005 -0.011
-0.027 0.005 -0.011
-0.027 0.005 -0.011
B LeftHandPinky1
0.029 0.008 -0.084
0.028 0.011 -0.084
0.027 0.013 -0.084
0.026 0.015 -0.084
0.025 0.016 -0.084
0.025 0.016 -0.084
0.025 0.015 -0.085
0.024 0.013 -0.085
0.023 0.012 -0.085
0.023 0.010 -0.086
0.022 0.007 -0.086
0.021 0.004 -0.087
0.023 -0.000 -0.086
0.027 -0.005 -0.085
0.030 -0.011 -0.084
0.030 -0.017 -0.083
0.027 -0.026 -0.081
0.023 -0.035 -0.079
0.019 -0.045 -0.075
0.015 -0.054 -0.070
0.011 -0.061 -0.065
0.006 -0.065 -0.061
0.003 -0.067 -0.059
0.001 -0.067 -0.059
0.003 -0.063 -0.063
0.009 -0.055 -0.070
0.018 -0.041 -0.078
0.027 -0.021 -0.083
0.033 0.001 -0.083
0.035 0.017 -0.080
0.036 0.027 -0.077
0.036 0.032 -0.075
0.035 0.036 -0.074
0.033 0.038 -0.074
0.030 0.037 -0.076
0.028 0.035 -0.078
0.028 0.032 -0.078
0.030 0.031 -0.079
0.031 0.029 -0.079
0.031 0.027 -0.079
0.030 0.025 -0.080
0.030 0.024 -0.081
0.030 0.022 -0.081
0.031 0.020 -0.082
0.031 0.016 -0.082
0.032 0.013 -0.083
0.032 0.010 -0.083
0.032 0.008 -0.083
0.032 0.006 -0.083
0.033 0.003 -0.083
0.033 -0.000 -0.083
0.033 -0.003 -0.083
0.033 -0.005 -0.083
0.032 -0.004 -0.083
0.032 -0.003 -0.083
0.032 -0.001 -0.083
0.032 0.001 -0.083
0.032 0.004 -0.083
0.032 0.006 -0.083
0.032 0.009 -0.083
0.032 0.011 -0.083
0.031 0.013 -0.083
0.031 0.015 -0.083
0.031 0.017 -0.082
0.031 0.019 -0.082
0.030 0.020 -0.082
0.030 0.022 -0.081
0.030 0.023 -0.081
0.030 0.024 -0.081
0.030 0.024 -0.081
0.030 0.025 -0.081
0.029 0.025 -0.081
0.029 0.026 -0.081
B LeftHandPinky2
-0.008 -0.009 -0.034
-0.008 -0.009 -0.034
-0.009 -0.008 -0.034
-0.009 -0.007 -0.034
-0.010 -0.006 -0.034
-0.010 -0.006 -0.034
-0.010 -0.007 -0.034
-0.010 -0.007 -0.034
-0.011 -0.008 -0.033
-0.011 -0.008 -0.033
-0.013 -0.007 -0.033
-0.014 -0.006 -0.033
-0.015 -0.005 -0.032
-0.014 -0.005 -0.033
-0.013 -0.007 -0.033
-0.013 -0.009 -0.032
-0.015 -0.012 -0.030
-0.017 -0.015 -0.028
-0.019 -0.017 -0.025
-0.021 -0.019 -0.023
-0.022 -0.019 -0.021
-0.024 -0.019 -0.019
-0.025 -0.019 -0.018
-0.026 -0.018 -0.018
-0.025 -0.017 -0.019
-0.023 -0.016 -0.022
-0.019 -0.015 -0.026
-0.013 -0.011 -0.032
-0.007 -0.004 -0.035
-0.003 0.003 -0.036
-0.001 0.007 -0.035
-0.000 0.009 -0.035
-0.001 0.010 -0.035
-0.002 0.009 -0.035
-0.003 0.007 -0.035
-0.003 0.005 -0.036
-0.003 0.003 -0.036
-0.003 0.002 -0.036
-0.003 0.001 -0.036
-0.004 -0.000 -0.036
-0.005 -0.001 -0.036
-0.006 -0.001 -0.035
-0.007 -0.002 -0.035
-0.008 -0.003 -0.035
-0.008 -0.004 -0.035
-0.009 -0.005 -0.034
-0.010 -0.006 -0.034
-0.011 -0.006 -0.034
-0.012 -0.007 -0.033
-0.012 -0.007 -0.033
-0.013 -0.008 -0.033
-0.013 -0.009 -0.032
-0.014 -0.009 -0.032
-0.015 -0.009 -0.032
-0.015 -0.009 -0.031
-0.015 -0.008 -0.031
-0.016 -0.008 -0.032
-0.016 -0.007 -0.032
-0.016 -0.006 -0.032
-0.016 -0.006 -0.032
-0.016 -0.005 -0.032
-0.016 -0.005 -0.032
-0.016 -0.004 -0.032
-0.016 -0.004 -0.032
-0.016 -0.003 -0.032
-0.016 -0.003 -0.032
-0.017 -0.002 -0.032
-0.017 -0.002 -0.032
-0.017 -0.002 -0.032
-0.017 -0.002 -0.032
-0.017 -0.002 -0.032
-0.017 -0.002 -0.032
-0.017 -0.002 -0.032
B LeftHandPinky3
-0.021 -0.002 -0.003
-0.021 -0.002 -0.003
-0.021 -0.002 -0.003
-0.021 -0.002 -0.002
-0.021 -0.002 -0.002
-0.021 -0.002 -0.002
-0.021 -0.002 -0.002
-0.021 -0.002 -0.002
-0.021 -0.002 -0.002
-0.021 -0.001 -0.001
-0.021 0.000 -0.001
-0.021 0.003 -0.000
-0.020 0.005 -0.000
-0.020 0.007 -0.001
-0.020 0.007 -0.002
-0.020 0.007 -0.002
-0.020 0.007 -0.001
-0.020 0.008 -0.001
-0.019 0.009 -0.001
-0.018 0.010 -0.001
-0.018 0.011 -0.002
-0.017 0.012 -0.002
-0.017 0.013 -0.002
-0.016 0.013 -0.002
-0.016 0.013 -0.001
-0.017 0.012 -0.000
-0.019 0.010 -0.001
-0.020 0.006 -0.003
-0.019 0.005 -0.007
-0.018 0.005 -0.010
-0.017 0.007 -0.011
-0.017 0.007 -0.011
-0.017 0.006 -0.011
-0.018 0.004 -0.011
-0.018 0.002 -0.010
-0.018 0.001 -0.010
-0.018 -0.001 -0.010
-0.018 -0.001 -0.010
-0.018 -0.002 -0.010
-0.019 -0.002 -0.009
-0.019 -0.001 -0.008
-0.020 -0.001 -0.007
-0.020 -0.000 -0.007
-0.020 -0.000 -0.006
-0.020 0.000 -0.005
-0.020 0.001 -0.005
-0.021 0.001 -0.004
-0.021 0.002 -0.003
-0.021 0.002 -0.002
-0.021 0.003 -0.002
-0.021 0.003 -0.002
-0.021 0.003 -0.001
-0.021 0.004 -0.001
-0.021 0.004 0.000
-0.021 0.004 0.001
-0.021 0.004 0.001
-0.021 0.004 0.001
-0.021 0.004 0.002
-0.021 0.004 0.002
-0.021 0.003 0.002
-0.021 0.003 0.002
-0.021 0.003 0.003
-0.021 0.003 0.003
-0.021 0.002 0.003
-0.021 0.002 0.003
-0.021 0.002 0.003
-0.021 0.002 0.003
-0.021 0.002 0.003
-0.021 0.001 0.003
-0.021 0.001 0.003
-0.021 0.001 0.003
-0.021 0.001 0.003
-0.021 0.001 0.003
B LeftHandPinky4
-0.021 -0.002 -0.003
-0.021 -0.002 -0.003
-0.021 -0.002 -0.003
-0.021 -0.002 -0.002
-0.021 -0.002 -0.002
-0.021 -0.002 -0.002
-0.021 -0.002 -0.002
-0.021 -0.002 -0.002
-0.021 -0.002 -0.002
-0.021 -0.001 -0.001
-0.021 0.000 -0.001
-0.021 0.003 -0.000
-0.021 0.005 -0.000
-0.020 0.007 -0.001
-0.020 0.007 -0.002
-0.020 0.007 -0.002
-0.020 0.007 -0.001
-0.020 0.008 -0.001
-0.019 0.009 -0.001
-0.019 0.010 -0.001
-0.018 0.011 -0.002
-0.017 0.012 -0.002
-0.017 0.013 -0.002
-0.016 0.013 -0.002
-0.016 0.013 -0.001
-0.017 0.012 -0.000
-0.019 0.010 -0.001
-0.020 0.006 -0.003
-0.020 0.005 -0.007
-0.018 0.006 -0.010
-0.017 0.007 -0.011
-0.017 0.007 -0.011
-0.017 0.006 -0.011
-0.018 0.004 -0.011
-0.018 0.002 -0.010
-0.019 0.001 -0.010
-0.019 -0.001 -0.010
-0.019 -0.002 -0.010
-0.019 -0.002 -0.010
-0.019 -0.002 -0.009
-0.019 -0.001 -0.008
-0.020 -0.001 -0.007
-0.020 -0.000 -0.007
-0.020 -0.000 -0.006
-0.021 0.000 -0.005
-0.021 0.001 -0.005
-0.021 0.001 -0.004
-0.021 0.002 -0.003
-0.021 0.002 -0.002
-0.021 0.003 -0.002
-0.021 0.003 -0.002
-0.021 0.004 -0.001
-0.021 0.004 -0.001
-0.021 0.004 0.000
-0.021 0.004 0.001
-0.021 0.004 0.001
-0.021 0.004 0.001
-0.021 0.004 0.002
-0.021 0.004 0.002
-0.021 0.003 0.002
-0.021 0.003 0.002
-0.021 0.003 0.003
-0.021 0.003 0.003
-0.021 0.002 0.003
-0.021 0.002 0.003
-0.021 0.002 0.003
-0.021 0.002 0.003
-0.021 0.002 0.003
-0.021 0.001 0.003
-0.021 0.001 0.003
-0.021 0.001 0.003
-0.021 0.001 0.003
-0.021 0.001 0.004
B LeftHandRing1
0.034 -0.014 -0.085
0.033 -0.011 -0.086
0.032 -0.009 -0.087
0.031 -0.007 -0.087
0.030 -0.006 -0.088
0.030 -0.006 -0.088
0.029 -0.007 -0.088
0.028 -0.008 -0.088
0.028 -0.010 -0.088
0.027 -0.012 -0.088
0.024 -0.015 -0.089
0.021 -0.018 -0.089
0.020 -0.023 -0.088
0.022 -0.027 -0.086
0.025 -0.032 -0.084
0.025 -0.039 -0.081
0.022 -0.047 -0.077
0.018 -0.056 -0.072
0.013 -0.065 -0.065
0.009 -0.072 -0.058
0.004 -0.077 -0.051
-0.001 -0.081 -0.046
-0.005 -0.082 -0.044
-0.007 -0.081 -0.044
-0.005 -0.079 -0.049
0.001 -0.073 -0.058
0.012 -0.061 -0.069
0.023 -0.042 -0.079
0.031 -0.021 -0.085
0.035 -0.004 -0.086
0.036 0.006 -0.086
0.036 0.012 -0.085
0.037 0.016 -0.084
0.036 0.018 -0.084
0.034 0.017 -0.085
0.034 0.014 -0.085
0.035 0.012 -0.085
0.037 0.011 -0.085
0.038 0.009 -0.084
0.038 0.007 -0.085
0.036 0.004 -0.085
0.035 0.003 -0.086
0.034 0.001 -0.086
0.034 -0.002 -0.086
0.035 -0.006 -0.086
0.034 -0.009 -0.086
0.034 -0.013 -0.086
0.033 -0.015 -0.086
0.033 -0.016 -0.085
0.033 -0.019 -0.085
0.033 -0.023 -0.084
0.033 -0.026 -0.083
0.032 -0.027 -0.083
0.031 -0.027 -0.083
0.031 -0.025 -0.084
0.031 -0.023 -0.084
0.032 -0.021 -0.085
0.032 -0.019 -0.085
0.032 -0.016 -0.086
0.032 -0.014 -0.086
0.032 -0.011 -0.087
0.032 -0.009 -0.087
0.032 -0.007 -0.087
0.032 -0.005 -0.087
0.032 -0.003 -0.087
0.032 -0.001 -0.087
0.031 0.000 -0.087
0.031 0.002 -0.087
0.031 0.002 -0.088
0.031 0.003 -0.087
0.031 0.004 -0.087
0.031 0.004 -0.088
0.031 0.004 -0.088
B LeftHandRing2
-0.004 -0.010 -0.030
-0.004 -0.009 -0.030
-0.004 -0.009 -0.030
-0.005 -0.008 -0.030
-0.005 -0.007 -0.030
-0.005 -0.007 -0.030
-0.006 -0.008 -0.030
-0.006 -0.008 -0.030
-0.006 -0.008 -0.030
-0.007 -0.009 -0.030
-0.008 -0.009 -0.029
-0.010 -0.008 -0.029
-0.010 -0.007 -0.029
-0.010 -0.007 -0.029
-0.009 -0.009 -0.029
-0.009 -0.011 -0.028
-0.011 -0.014 -0.026
-0.013 -0.016 -0.024
-0.014 -0.018 -0.021
-0.016 -0.019 -0.019
-0.018 -0.020 -0.017
-0.019 -0.020 -0.015
-0.020 -0.019 -0.014
-0.021 -0.019 -0.014
-0.021 -0.018 -0.016
-0.019 -0.017 -0.019
-0.015 -0.016 -0.023
-0.009 -0.012 -0.028
-0.003 -0.006 -0.031
0.000 0.000 -0.031
0.002 0.004 -0.031
0.003 0.006 -0.031
0.002 0.007 -0.031
0.002 0.006 -0.031
0.001 0.005 -0.031
0.000 0.004 -0.031
0.001 0.002 -0.031
0.001 0.001 -0.031
0.001 -0.000 -0.031
0.000 -0.001 -0.031
-0.001 -0.001 -0.031
-0.002 -0.002 -0.031
-0.003 -0.002 -0.031
-0.003 -0.003 -0.031
-0.004 -0.004 -0.031
-0.005 -0.005 -0.031
-0.006 -0.006 -0.030
-0.006 -0.007 -0.030
-0.007 -0.007 -0.030
-0.008 -0.008 -0.030
-0.008 -0.009 -0.029
-0.009 -0.009 -0.029
-0.009 -0.010 -0.029
-0.010 -0.009 -0.028
-0.010 -0.009 -0.028
-0.011 -0.008 -0.028
-0.011 -0.008 -0.029
-0.011 -0.007 -0.029
-0.011 -0.007 -0.029
-0.011 -0.006 -0.029
-0.011 -0.005 -0.029
-0.011 -0.005 -0.029
-0.011 -0.005 -0.029
-0.011 -0.004 -0.029
-0.011 -0.004 -0.029
-0.011 -0.003 -0.029
-0.012 -0.003 -0.029
-0.012 -0.002 -0.029
-0.012 -0.002 -0.029
-0.012 -0.002 -0.029
-0.012 -0.002 -0.029
-0.012 -0.002 -0.029
-0.012 -0.002 -0.029
B LeftHandRing3
-0.027 -0.005 -0.012
-0.027 -0.005 -0.011
-0.027 -0.005 -0.011
-0.027 -0.004 -0.011
-0.027 -0.004 -0.011
-0.027 -0.004 -0.011
-0.027 -0.004 -0.010
-0.027 -0.004 -0.010
-0.028 -0.004 -0.010
-0.028 -0.003 -0.009
-0.028 -0.001 -0.009
-0.028 0.002 -0.008
-0.028 0.005 -0.008
-0.027 0.007 -0.009
-0.027 0.007 -0.010
-0.027 0.007 -0.010
-0.028 0.006 -0.008
-0.028 0.006 -0.007
-0.028 0.007 -0.007
-0.028 0.008 -0.007
-0.027 0.010 -0.007
-0.027 0.011 -0.007
-0.026 0.012 -0.006
-0.026 0.013 -0.006
-0.026 0.013 -0.005
-0.026 0.012 -0.005
-0.027 0.009 -0.006
-0.027 0.005 -0.010
-0.025 0.005 -0.016
-0.021 0.007 -0.019
-0.019 0.009 -0.020
-0.019 0.010 -0.020
-0.020 0.009 -0.020
-0.021 0.007 -0.020
-0.021 0.004 -0.020
-0.022 0.002 -0.020
-0.022 -0.000 -0.020
-0.022 -0.002 -0.020
-0.022 -0.002 -0.019
-0.023 -0.002 -0.018
-0.024 -0.002 -0.017
-0.025 -0.001 -0.016
-0.025 -0.001 -0.015
-0.026 -0.001 -0.014
-0.026 -0.001 -0.013
-0.027 -0.000 -0.012
-0.027 0.000 -0.011
-0.028 0.001 -0.010
-0.028 0.002 -0.009
-0.028 0.002 -0.009
-0.028 0.002 -0.008
-0.028 0.003 -0.007
-0.029 0.003 -0.007
-0.029 0.004 -0.006
-0.029 0.004 -0.005
-0.029 0.004 -0.004
-0.029 0.004 -0.004
-0.029 0.004 -0.003
-0.029 0.004 -0.003
-0.029 0.004 -0.003
-0.029 0.004 -0.002
-0.029 0.003 -0.002
-0.029 0.003 -0.002
-0.029 0.003 -0.002
-0.029 0.002 -0.002
-0.029 0.002 -0.001
-0.029 0.002 -0.001
-0.029 0.002 -0.001
-0.029 0.002 -0.001
-0.029 0.002 -0.001
-0.029 0.002 -0.001
-0.029 0.002 -0.001
-0.029 0.002 -0.001
B LeftHandRing4
-0.024 -0.004 -0.011
-0.024 -0.005 -0.010
-0.024 -0.004 -0.010
-0.024 -0.004 -0.010
-0.024 -0.003 -0.010
-0.024 -0.003 -0.010
-0.025 -0.003 -0.009
-0.025 -0.004 -0.009
-0.025 -0.004 -0.009
-0.025 -0.003 -0.008
-0.025 -0.001 -0.008
-0.025 0.002 -0.007
-0.025 0.005 -0.007
-0.024 0.006 -0.008
-0.024 0.007 -0.009
-0.024 0.006 -0.009
-0.025 0.005 -0.008
-0.025 0.005 -0.007
-0.025 0.006 -0.006
-0.025 0.007 -0.006
-0.024 0.009 -0.006
-0.024 0.010 -0.006
-0.023 0.011 -0.006
-0.023 0.012 -0.005
-0.023 0.012 -0.005
-0.024 0.011 -0.004
-0.025 0.008 -0.006
-0.024 0.005 -0.009
-0.022 0.004 -0.014
-0.019 0.006 -0.017
-0.017 0.008 -0.018
-0.017 0.009 -0.018
-0.018 0.008 -0.018
-0.018 0.006 -0.018
-0.019 0.004 -0.018
-0.020 0.001 -0.018
-0.020 -0.000 -0.018
-0.020 -0.001 -0.018
-0.020 -0.002 -0.017
-0.021 -0.002 -0.017
-0.021 -0.002 -0.016
-0.022 -0.001 -0.014
-0.023 -0.001 -0.014
-0.023 -0.001 -0.013
-0.024 -0.001 -0.012
-0.024 -0.000 -0.011
-0.024 0.000 -0.010
-0.025 0.001 -0.009
-0.025 0.001 -0.008
-0.025 0.002 -0.008
-0.025 0.002 -0.007
-0.025 0.003 -0.007
-0.026 0.003 -0.006
-0.026 0.004 -0.005
-0.026 0.004 -0.004
-0.026 0.004 -0.004
-0.026 0.004 -0.003
-0.026 0.004 -0.003
-0.026 0.004 -0.003
-0.026 0.003 -0.002
-0.026 0.003 -0.002
-0.026 0.003 -0.002
-0.026 0.003 -0.002
-0.026 0.002 -0.001
-0.026 0.002 -0.001
-0.026 0.002 -0.001
-0.026 0.002 -0.001
-0.026 0.002 -0.001
-0.026 0.002 -0.001
-0.026 0.002 -0.001
-0.026 0.002 -0.001
-0.026 0.002 -0.001
-0.026 0.002 -0.001
B LeftHandThumb1
-0.010 -0.033 -0.019
-0.010 -0.033 -0.020
-0.010 -0.032 -0.021
-0.011 -0.032 -0.021
-0.011 -0.031 -0.022
-0.012 -0.031 -0.022
-0.012 -0.032 -0.021
-0.012 -0.032 -0.021
-0.012 -0.032 -0.020
-0.013 -0.032 -0.020
-0.016 -0.031 -0.019
-0.019 -0.029 -0.018
-0.023 -0.027 -0.018
-0.024 -0.026 -0.018
-0.023 -0.027 -0.018
-0.023 -0.028 -0.015
-0.024 -0.030 -0.011
-0.025 -0.031 -0.007
-0.026 -0.030 -0.002
-0.027 -0.029 0.001
-0.029 -0.027 0.004
-0.030 -0.025 0.007
-0.031 -0.024 0.008
-0.031 -0.023 0.008
-0.031 -0.024 0.006
-0.030 -0.026 0.002
-0.027 -0.029 -0.004
-0.023 -0.030 -0.013
-0.019 -0.028 -0.020
-0.017 -0.025 -0.026
-0.016 -0.022 -0.029
-0.015 -0.021 -0.030
-0.014 -0.021 -0.031
-0.012 -0.022 -0.031
-0.010 -0.024 -0.030
-0.009 -0.026 -0.028
-0.007 -0.028 -0.027
-0.006 -0.029 -0.027
-0.006 -0.029 -0.026
-0.006 -0.029 -0.026
-0.008 -0.029 -0.025
-0.010 -0.029 -0.025
-0.011 -0.029 -0.025
-0.011 -0.029 -0.024
-0.012 -0.030 -0.023
-0.013 -0.030 -0.022
-0.014 -0.030 -0.021
-0.015 -0.030 -0.021
-0.016 -0.030 -0.021
-0.016 -0.030 -0.020
-0.017 -0.031 -0.019
-0.017 -0.031 -0.018
-0.018 -0.031 -0.018
-0.018 -0.030 -0.018
-0.018 -0.030 -0.019
-0.018 -0.030 -0.019
-0.018 -0.030 -0.020
-0.017 -0.029 -0.021
-0.017 -0.029 -0.021
-0.017 -0.028 -0.022
-0.017 -0.028 -0.023
-0.016 -0.028 -0.023
-0.016 -0.028 -0.024
-0.016 -0.027 -0.024
-0.015 -0.027 -0.025
-0.015 -0.027 -0.025
-0.015 -0.026 -0.026
-0.015 -0.026 -0.026
-0.015 -0.026 -0.026
-0.015 -0.026 -0.026
-0.015 -0.026 -0.026
-0.015 -0.026 -0.026
-0.015 -0.025 -0.027
B LeftHandThumb2
-0.001 -0.027 -0.032
-0.002 -0.026 -0.033
-0.002 -0.025 -0.033
-0.003 -0.024 -0.034
-0.004 -0.024 -0.034
-0.004 -0.024 -0.034
-0.004 -0.025 -0.034
-0.004 -0.025 -0.033
-0.004 -0.025 -0.033
-0.006 -0.025 -0.033
-0.009 -0.024 -0.033
-0.012 -0.024 -0.032
-0.015 -0.023 -0.032
-0.014 -0.023 -0.032
-0.013 -0.024 -0.032
-0.012 -0.027 -0.030
-0.012 -0.030 -0.027
-0.014 -0.032 -0.023
-0.016 -0.034 -0.019
-0.018 -0.035 -0.015
-0.020 -0.035 -0.012
-0.022 -0.034 -0.009
-0.024 -0.034 -0.008
-0.025 -0.033 -0.008
-0.024 -0.032 -0.010
-0.022 -0.032 -0.015
-0.018 -0.031 -0.022
-0.013 -0.027 -0.030
-0.009 -0.021 -0.035
-0.008 -0.015 -0.038
-0.008 -0.012 -0.039
-0.007 -0.010 -0.040
-0.005 -0.009 -0.041
-0.004 -0.010 -0.040
-0.003 -0.013 -0.040
-0.002 -0.015 -0.039
-0.000 -0.017 -0.038
0.001 -0.018 -0.038
0.001 -0.019 -0.037
0.000 -0.019 -0.037
-0.002 -0.018 -0.038
-0.003 -0.018 -0.038
-0.004 -0.018 -0.038
-0.004 -0.018 -0.037
-0.005 -0.019 -0.037
-0.005 -0.020 -0.036
-0.006 -0.021 -0.036
-0.007 -0.021 -0.036
-0.008 -0.021 -0.036
-0.008 -0.021 -0.035
-0.008 -0.022 -0.035
-0.008 -0.022 -0.034
-0.009 -0.022 -0.034
-0.009 -0.022 -0.035
-0.009 -0.021 -0.035
-0.009 -0.020 -0.036
-0.009 -0.019 -0.036
-0.009 -0.018 -0.037
-0.009 -0.017 -0.037
-0.009 -0.016 -0.038
-0.009 -0.015 -0.038
-0.009 -0.014 -0.038
-0.009 -0.014 -0.039
-0.008 -0.013 -0.039
-0.008 -0.012 -0.039
-0.008 -0.011 -0.040
-0.008 -0.010 -0.040
-0.008 -0.010 -0.040
-0.008 -0.010 -0.040
-0.008 -0.009 -0.040
-0.008 -0.009 -0.040
-0.008 -0.009 -0.040
-0.008 -0.009 -0.040
B LeftHandThumb3
0.001 -0.018 -0.029
0.000 -0.018 -0.029
-0.001 -0.017 -0.030
-0.001 -0.016 -0.030
-0.002 -0.016 -0.030
-0.002 -0.016 -0.030
-0.002 -0.017 -0.030
-0.002 -0.017 -0.030
-0.002 -0.017 -0.030
-0.003 -0.017 -0.030
-0.006 -0.017 -0.029
-0.008 -0.016 -0.029
-0.010 -0.016 -0.029
-0.009 -0.016 -0.029
-0.007 -0.017 -0.029
-0.006 -0.019 -0.028
-0.007 -0.021 -0.026
-0.008 -0.024 -0.023
-0.010 -0.026 -0.020
-0.011 -0.027 -0.018
-0.013 -0.028 -0.015
-0.014 -0.028 -0.014
-0.016 -0.028 -0.013
-0.016 -0.027 -0.013
-0.016 -0.026 -0.015
-0.014 -0.025 -0.018
-0.011 -0.023 -0.023
-0.007 -0.019 -0.027
-0.005 -0.015 -0.030
-0.004 -0.011 -0.032
-0.004 -0.009 -0.033
-0.004 -0.007 -0.033
-0.002 -0.007 -0.033
-0.001 -0.007 -0.033
-0.001 -0.009 -0.033
0.000 -0.011 -0.032
0.001 -0.013 -0.032
0.002 -0.014 -0.031
0.002 -0.014 -0.031
0.002 -0.014 -0.031
0.000 -0.014 -0.031
-0.001 -0.013 -0.031
-0.002 -0.013 -0.031
-0.002 -0.014 -0.031
-0.002 -0.015 -0.031
-0.003 -0.016 -0.030
-0.004 -0.016 -0.030
-0.004 -0.016 -0.030
-0.005 -0.016 -0.030
-0.005 -0.016 -0.030
-0.005 -0.017 -0.029
-0.005 -0.018 -0.029
-0.006 -0.018 -0.029
-0.006 -0.017 -0.029
-0.006 -0.016 -0.029
-0.006 -0.016 -0.030
-0.006 -0.015 -0.030
-0.006 -0.014 -0.031
-0.006 -0.013 -0.031
-0.005 -0.012 -0.032
-0.005 -0.011 -0.032
-0.005 -0.011 -0.032
-0.005 -0.010 -0.032
-0.005 -0.009 -0.033
-0.005 -0.008 -0.033
-0.005 -0.008 -0.033
-0.005 -0.007 -0.033
-0.005 -0.007 -0.033
-0.005 -0.006 -0.033
-0.005 -0.006 -0.033
-0.005 -0.006 -0.033
-0.005 -0.006 -0.033
-0.005 -0.005 -0.033
B LeftHandThumb4
0.000 -0.014 -0.022
0.000 -0.014 -0.022
-0.001 -0.013 -0.022
-0.001 -0.012 -0.023
-0.001 -0.012 -0.023
-0.001 -0.012 -0.023
-0.001 -0.012 -0.023
-0.001 -0.013 -0.022
-0.002 -0.013 -0.022
-0.002 -0.013 -0.022
-0.004 -0.012 -0.022
-0.006 -0.012 -0.022
-0.007 -0.012 -0.022
-0.007 -0.012 -0.022
-0.005 -0.013 -0.022
-0.005 -0.014 -0.021
-0.005 -0.016 -0.020
-0.006 -0.018 -0.017
-0.007 -0.019 -0.015
-0.008 -0.020 -0.013
-0.010 -0.021 -0.012
-0.011 -0.021 -0.010
-0.012 -0.021 -0.010
-0.012 -0.020 -0.010
-0.012 -0.020 -0.011
-0.011 -0.019 -0.014
-0.008 -0.017 -0.017
-0.005 -0.014 -0.021
-0.004 -0.011 -0.023
-0.003 -0.008 -0.024
-0.003 -0.007 -0.025
-0.003 -0.006 -0.025
-0.002 -0.005 -0.025
-0.001 -0.005 -0.025
-0.001 -0.007 -0.025
0.000 -0.009 -0.024
0.001 -0.010 -0.024
0.002 -0.010 -0.024
0.002 -0.011 -0.023
0.001 -0.011 -0.023
0.000 -0.010 -0.024
-0.001 -0.010 -0.024
-0.001 -0.010 -0.024
-0.001 -0.011 -0.024
-0.002 -0.011 -0.023
-0.002 -0.012 -0.023
-0.003 -0.012 -0.023
-0.003 -0.012 -0.023
-0.003 -0.012 -0.023
-0.004 -0.012 -0.022
-0.004 -0.013 -0.022
-0.004 -0.013 -0.022
-0.004 -0.013 -0.022
-0.004 -0.013 -0.022
-0.005 -0.012 -0.022
-0.004 -0.012 -0.023
-0.004 -0.011 -0.023
-0.004 -0.010 -0.023
-0.004 -0.010 -0.024
-0.004 -0.009 -0.024
-0.004 -0.009 -0.024
-0.004 -0.008 -0.024
-0.004 -0.008 -0.024
-0.004 -0.007 -0.025
-0.004 -0.006 -0.025
-0.004 -0.006 -0.025
-0.004 -0.005 -0.025
-0.004 -0.005 -0.025
-0.004 -0.005 -0.025
-0.004 -0.005 -0.025
-0.004 -0.004 -0.025
-0.004 -0.004 -0.025
-0.004 -0.004 -0.025
B LeftLeg
0.085 -0.191 -0.392
0.071 -0.215 -0.382
0.060 -0.232 -0.373
0.048 -0.240 -0.370
0.031 -0.237 -0.374
0.012 -0.222 -0.384
-0.003 -0.224 -0.383
-0.009 -0.220 -0.385
-0.010 -0.209 -0.391
-0.009 -0.198 -0.397
-0.011 -0.186 -0.403
-0.013 -0.179 -0.406
-0.016 -0.170 -0.410
-0.020 -0.154 -0.416
-0.021 -0.136 -0.422
-0.021 -0.117 -0.427
-0.019 -0.098 -0.432
-0.019 -0.080 -0.436
-0.019 -0.062 -0.439
-0.021 -0.044 -0.441
-0.022 -0.025 -0.442
-0.019 -0.013 -0.443
-0.012 -0.013 -0.443
-0.002 -0.015 -0.443
0.005 -0.010 -0.444
0.009 0.004 -0.444
0.014 0.016 -0.443
0.026 0.014 -0.443
0.045 -0.008 -0.441
0.068 -0.035 -0.437
0.090 -0.064 -0.430
0.107 -0.110 -0.416
0.115 -0.151 -0.401
0.115 -0.183 -0.388
0.110 -0.202 -0.379
0.100 -0.207 -0.380
0.084 -0.199 -0.387
0.069 -0.186 -0.397
0.058 -0.173 -0.404
0.050 -0.161 -0.410
0.044 -0.148 -0.416
0.040 -0.135 -0.421
0.035 -0.122 -0.425
0.029 -0.112 -0.428
0.025 -0.103 -0.431
0.021 -0.097 -0.433
0.018 -0.090 -0.434
0.015 -0.084 -0.435
0.011 -0.077 -0.437
0.008 -0.070 -0.438
0.006 -0.065 -0.439
0.005 -0.063 -0.439
0.004 -0.064 -0.439
0.003 -0.066 -0.439
0.002 -0.068 -0.438
0.002 -0.070 -0.438
0.001 -0.071 -0.438
0.000 -0.071 -0.438
-0.000 -0.071 -0.438
-0.001 -0.070 -0.438
-0.001 -0.070 -0.438
-0.001 -0.071 -0.438
-0.001 -0.071 -0.438
-0.001 -0.070 -0.438
-0.001 -0.068 -0.438
-0.002 -0.067 -0.439
-0.002 -0.066 -0.439
-0.002 -0.065 -0.439
-0.002 -0.064 -0.439
-0.003 -0.064 -0.439
-0.003 -0.063 -0.439
-0.003 -0.063 -0.439
-0.003 -0.063 -0.439
B LeftShoulder
0.039 0.011 0.114
0.040 0.011 0.114
0.041 0.011 0.113
0.043 0.010 0.113
0.044 0.008 0.113
0.045 0.008 0.112
0.047 0.008 0.112
0.049 0.008 0.111
0.051 0.009 0.110
0.053 0.008 0.109
0.056 0.006 0.108
0.057 0.002 0.107
0.058 -0.002 0.107
0.058 -0.004 0.106
0.057 -0.005 0.107
0.056 -0.006 0.107
0.055 -0.007 0.108
0.054 -0.007 0.108
0.052 -0.007 0.109
0.051 -0.007 0.110
0.049 -0.007 0.110
0.048 -0.006 0.111
0.047 -0.005 0.111
0.047 -0.003 0.112
0.046 -0.000 0.112
0.045 0.002 0.112
0.045 0.004 0.113
0.044 0.006 0.113
0.043 0.006 0.113
0.042 0.006 0.114
0.041 0.006 0.114
0.040 0.007 0.114
0.038 0.007 0.115
0.037 0.008 0.115
0.037 0.009 0.115
0.037 0.010 0.115
0.037 0.011 0.115
0.037 0.011 0.115
0.038 0.012 0.114
0.039 0.013 0.114
0.040 0.014 0.113
0.041 0.014 0.113
0.042 0.014 0.113
0.043 0.013 0.113
0.043 0.013 0.113
0.043 0.012 0.113
0.044 0.011 0.113
0.044 0.011 0.112
0.044 0.010 0.112
0.044 0.010 0.112
0.045 0.009 0.112
0.045 0.008 0.112
0.045 0.008 0.112
0.045 0.007 0.112
0.045 0.007 0.112
0.045 0.007 0.112
0.045 0.007 0.112
0.045 0.007 0.112
0.045 0.007 0.112
0.044 0.007 0.113
0.044 0.007 0.113
0.044 0.007 0.113
0.044 0.007 0.113
0.044 0.007 0.113
0.044 0.007 0.113
0.043 0.007 0.113
0.043 0.007 0.113
0.043 0.007 0.113
0.043 0.007 0.113
0.043 0.007 0.113
0.042 0.007 0.113
0.042 0.007 0.113
0.042 0.007 0.113
B LeftToeBase
-0.003 -0.040 -0.132
0.010 -0.080 -0.112
0.018 -0.108 -0.084
0.021 -0.126 -0.051
0.022 -0.134 -0.025
0.022 -0.135 -0.019
0.026 -0.131 -0.037
0.023 -0.119 -0.067
0.018 -0.108 -0.085
0.017 -0.106 -0.087
0.018 -0.106 -0.087
0.018 -0.106 -0.087
0.017 -0.106 -0.087
0.018 -0.106 -0.087
0.018 -0.106 -0.087
0.018 -0.106 -0.087
0.018 -0.106 -0.087
0.018 -0.106 -0.087
0.017 -0.106 -0.087
0.018 -0.106 -0.087
0.017 -0.106 -0.087
0.014 -0.104 -0.090
0.012 -0.097 -0.098
0.009 -0.088 -0.107
0.006 -0.079 -0.113
0.004 -0.073 -0.117
0.001 -0.064 -0.123
-0.002 -0.050 -0.129
-0.006 -0.031 -0.134
-0.009 -0.016 -0.137
-0.007 -0.009 -0.138
-0.002 -0.005 -0.138
0.009 -0.016 -0.137
0.019 -0.036 -0.132
0.024 -0.060 -0.122
0.021 -0.081 -0.110
0.015 -0.097 -0.097
0.013 -0.103 -0.091
0.015 -0.105 -0.089
0.017 -0.105 -0.088
0.018 -0.106 -0.087
0.018 -0.106 -0.087
0.018 -0.106 -0.087
0.018 -0.106 -0.087
0.018 -0.106 -0.087
0.018 -0.106 -0.087
0.018 -0.106 -0.087
0.018 -0.106 -0.087
0.018 -0.106 -0.087
0.018 -0.106 -0.087
0.018 -0.106 -0.087
0.018 -0.106 -0.087
0.018 -0.106 -0.087
0.018 -0.106 -0.087
0.018 -0.106 -0.087
0.018 -0.106 -0.087
0.018 -0.106 -0.087
0.018 -0.106 -0.087
0.018 -0.106 -0.087
0.018 -0.106 -0.087
0.018 -0.106 -0.087
0.018 -0.106 -0.087
0.018 -0.106 -0.087
0.018 -0.106 -0.087
0.018 -0.106 -0.087
0.018 -0.106 -0.087
0.018 -0.106 -0.087
0.018 -0.106 -0.087
0.018 -0.106 -0.087
0.018 -0.106 -0.087
0.018 -0.106 -0.087
0.018 -0.106 -0.087
0.018 -0.106 -0.087
B LeftToe_End
0.011 -0.078 -0.049
0.017 -0.089 -0.018
0.019 -0.090 0.010
0.022 -0.084 0.033
0.025 -0.075 0.048
0.026 -0.073 0.051
0.020 -0.080 0.043
0.017 -0.088 0.024
0.015 -0.091 0.008
0.015 -0.092 0.003
0.015 -0.092 0.001
0.015 -0.092 0.001
0.015 -0.092 0.001
0.015 -0.092 0.001
0.015 -0.092 0.001
0.015 -0.092 0.001
0.015 -0.092 0.002
0.015 -0.092 0.002
0.015 -0.092 0.002
0.015 -0.092 0.002
0.015 -0.091 0.003
0.015 -0.091 0.003
0.015 -0.092 0.001
0.015 -0.091 -0.002
0.017 -0.091 -0.002
0.018 -0.091 -0.002
0.019 -0.091 -0.004
0.020 -0.090 -0.009
0.022 -0.088 -0.019
0.023 -0.085 -0.030
0.024 -0.079 -0.042
0.024 -0.070 -0.056
0.025 -0.068 -0.058
0.029 -0.073 -0.050
0.030 -0.081 -0.033
0.025 -0.088 -0.015
0.019 -0.091 -0.003
0.016 -0.091 0.001
0.015 -0.092 0.001
0.015 -0.091 0.001
0.015 -0.091 0.002
0.015 -0.091 0.003
0.015 -0.091 0.004
0.015 -0.091 0.004
0.015 -0.091 0.005
0.015 -0.091 0.005
0.015 -0.091 0.005
0.015 -0.091 0.005
0.015 -0.091 0.005
0.015 -0.091 0.005
0.015 -0.091 0.005
0.015 -0.091 0.005
0.015 -0.091 0.004
0.015 -0.091 0.003
0.015 -0.091 0.002
0.015 -0.091 0.001
0.015 -0.091 0.000
0.015 -0.091 0.000
0.015 -0.091 0.000
0.015 -0.091 0.000
0.015 -0.091 0.000
0.015 -0.091 0.000
0.015 -0.091 0.000
0.015 -0.091 0.000
0.015 -0.091 0.000
0.015 -0.091 0.000
0.015 -0.091 0.000
0.015 -0.091 0.000
0.015 -0.091 0.000
0.015 -0.091 0.000
0.015 -0.091 -0.000
0.015 -0.091 -0.000
0.015 -0.091 -0.000
B LeftUpLeg
0.079 0.016 -0.039
0.080 0.014 -0.039
0.079 0.014 -0.040
0.079 0.014 -0.041
0.078 0.014 -0.042
0.078 0.013 -0.043
0.078 0.011 -0.043
0.079 0.008 -0.042
0.080 0.005 -0.041
0.081 0.004 -0.038
0.082 0.002 -0.036
0.083 0.000 -0.035
0.083 -0.002 -0.035
0.082 -0.002 -0.036
0.082 -0.001 -0.036
0.082 0.000 -0.037
0.081 0.001 -0.038
0.081 0.003 -0.038
0.081 0.004 -0.038
0.082 0.005 -0.037
0.083 0.006 -0.035
0.083 0.007 -0.034
0.083 0.009 -0.033
0.083 0.011 -0.033
0.082 0.014 -0.033
0.082 0.016 -0.034
0.081 0.016 -0.036
0.080 0.016 -0.038
0.080 0.017 -0.038
0.079 0.018 -0.038
0.079 0.019 -0.039
0.079 0.020 -0.039
0.079 0.020 -0.039
0.079 0.019 -0.038
0.080 0.019 -0.037
0.080 0.018 -0.036
0.081 0.017 -0.036
0.081 0.017 -0.036
0.080 0.016 -0.037
0.080 0.015 -0.038
0.080 0.014 -0.038
0.081 0.013 -0.037
0.081 0.012 -0.037
0.081 0.010 -0.037
0.081 0.009 -0.037
0.082 0.008 -0.037
0.082 0.007 -0.037
0.082 0.007 -0.037
0.082 0.006 -0.037
0.082 0.006 -0.037
0.082 0.005 -0.037
0.082 0.005 -0.037
0.082 0.005 -0.037
0.082 0.004 -0.037
0.082 0.004 -0.037
0.082 0.004 -0.037
0.082 0.004 -0.037
0.082 0.003 -0.037
0.082 0.004 -0.037
0.082 0.004 -0.037
0.082 0.004 -0.036
0.082 0.004 -0.036
0.082 0.005 -0.036
0.082 0.005 -0.036
0.082 0.005 -0.036
0.082 0.006 -0.036
0.082 0.006 -0.036
0.082 0.006 -0.036
0.082 0.006 -0.036
0.082 0.006 -0.036
0.082 0.006 -0.036
0.082 0.006 -0.036
0.082 0.006 -0.036
B Neck
-0.007 -0.005 0.168
-0.006 -0.006 0.168
-0.004 -0.006 0.168
-0.002 -0.007 0.168
-0.000 -0.009 0.168
0.002 -0.009 0.168
0.004 -0.009 0.168
0.006 -0.007 0.168
0.009 -0.004 0.168
0.012 -0.002 0.168
0.015 -0.002 0.168
0.017 -0.004 0.168
0.018 -0.006 0.168
0.018 -0.007 0.168
0.017 -0.007 0.168
0.015 -0.007 0.168
0.014 -0.007 0.168
0.012 -0.007 0.168
0.009 -0.007 0.168
0.007 -0.007 0.168
0.005 -0.006 0.168
0.003 -0.006 0.169
0.001 -0.005 0.169
0.000 -0.004 0.169
-0.001 -0.002 0.169
-0.002 0.000 0.169
-0.003 0.002 0.169
-0.004 0.003 0.169
-0.005 0.002 0.169
-0.006 -0.001 0.169
-0.007 -0.003 0.168
-0.008 -0.005 0.168
-0.010 -0.006 0.168
-0.011 -0.006 0.168
-0.011 -0.006 0.168
-0.011 -0.006 0.168
-0.011 -0.006 0.168
-0.010 -0.004 0.168
-0.009 -0.002 0.168
-0.008 0.001 0.168
-0.007 0.004 0.168
-0.006 0.005 0.168
-0.005 0.007 0.168
-0.005 0.007 0.168
-0.004 0.008 0.168
-0.004 0.008 0.168
-0.004 0.008 0.168
-0.003 0.008 0.168
-0.003 0.008 0.168
-0.003 0.008 0.168
-0.002 0.008 0.168
-0.002 0.007 0.168
-0.002 0.006 0.169
-0.002 0.006 0.169
-0.002 0.006 0.169
-0.002 0.006 0.169
-0.002 0.006 0.169
-0.002 0.006 0.169
-0.003 0.006 0.169
-0.003 0.005 0.169
-0.003 0.005 0.169
-0.003 0.004 0.169
-0.003 0.004 0.169
-0.004 0.004 0.169
-0.004 0.004 0.169
-0.004 0.004 0.169
-0.004 0.004 0.169
-0.005 0.004 0.169
-0.005 0.003 0.169
-0.005 0.003 0.169
-0.006 0.003 0.169
-0.006 0.003 0.169
-0.006 0.002 0.169
B RightArm
-0.108 0.008 0.006
-0.108 0.006 0.007
-0.108 0.004 0.007
-0.108 0.003 0.008
-0.108 0.003 0.010
-0.108 0.004 0.011
-0.108 0.006 0.012
-0.107 0.010 0.013
-0.106 0.015 0.015
-0.105 0.020 0.018
-0.103 0.026 0.021
-0.101 0.032 0.024
-0.098 0.038 0.025
-0.096 0.042 0.026
-0.095 0.046 0.026
-0.093 0.049 0.025
-0.092 0.051 0.024
-0.092 0.052 0.023
-0.092 0.053 0.022
-0.093 0.052 0.020
-0.093 0.052 0.019
-0.095 0.050 0.017
-0.096 0.048 0.016
-0.097 0.046 0.015
-0.098 0.044 0.013
-0.100 0.041 0.012
-0.101 0.038 0.010
-0.102 0.034 0.009
-0.104 0.030 0.007
-0.105 0.026 0.007
-0.106 0.020 0.006
-0.107 0.015 0.005
-0.108 0.009 0.003
-0.108 0.004 0.002
-0.108 0.000 0.002
-0.108 -0.003 0.001
-0.108 -0.004 0.001
-0.108 -0.003 0.001
-0.108 -0.002 0.001
-0.108 0.000 0.001
-0.108 0.003 0.001
-0.108 0.006 0.000
-0.108 0.009 0.001
-0.108 0.011 0.001
-0.108 0.014 0.001
-0.107 0.016 0.001
-0.107 0.017 0.001
-0.107 0.019 0.001
-0.107 0.020 0.001
-0.106 0.021 0.002
-0.106 0.022 0.002
-0.106 0.022 0.002
-0.106 0.022 0.002
-0.106 0.022 0.002
-0.106 0.022 0.001
-0.106 0.021 0.001
-0.106 0.021 -0.000
-0.107 0.020 -0.001
-0.107 0.019 -0.001
-0.107 0.019 -0.002
-0.107 0.018 -0.002
-0.107 0.017 -0.002
-0.107 0.017 -0.002
-0.107 0.016 -0.003
-0.107 0.016 -0.003
-0.107 0.015 -0.003
-0.107 0.015 -0.003
-0.107 0.015 -0.003
-0.107 0.014 -0.004
-0.107 0.014 -0.004
-0.107 0.014 -0.004
-0.107 0.014 -0.004
-0.107 0.014 -0.004
B RightFoot
0.047 0.146 -0.418
0.050 0.160 -0.413
0.050 0.166 -0.410
0.049 0.171 -0.408
0.048 0.179 -0.405
0.047 0.191 -0.399
0.046 0.209 -0.391
0.046 0.233 -0.377
0.048 0.262 -0.357
0.058 0.296 -0.327
0.075 0.326 -0.294
0.091 0.345 -0.267
0.097 0.351 -0.257
0.090 0.342 -0.270
0.078 0.319 -0.301
0.062 0.277 -0.343
0.043 0.215 -0.388
0.025 0.135 -0.424
0.007 0.047 -0.443
-0.010 -0.037 -0.444
-0.022 -0.107 -0.432
-0.022 -0.140 -0.422
-0.012 -0.131 -0.426
0.003 -0.101 -0.434
0.015 -0.071 -0.439
0.022 -0.047 -0.442
0.030 -0.027 -0.443
0.039 -0.005 -0.444
0.045 0.017 -0.443
0.048 0.038 -0.441
0.051 0.058 -0.438
0.054 0.073 -0.436
0.055 0.084 -0.434
0.056 0.090 -0.432
0.057 0.097 -0.431
0.057 0.103 -0.429
0.057 0.109 -0.428
0.055 0.114 -0.427
0.053 0.118 -0.426
0.048 0.121 -0.426
0.043 0.123 -0.426
0.037 0.122 -0.427
0.032 0.119 -0.428
0.027 0.117 -0.429
0.024 0.115 -0.429
0.022 0.115 -0.430
0.019 0.114 -0.430
0.017 0.111 -0.431
0.014 0.107 -0.432
0.012 0.101 -0.434
0.010 0.096 -0.435
0.009 0.093 -0.435
0.008 0.092 -0.436
0.009 0.092 -0.435
0.009 0.093 -0.435
0.010 0.093 -0.435
0.011 0.093 -0.435
0.011 0.091 -0.436
0.011 0.088 -0.436
0.010 0.086 -0.437
0.010 0.084 -0.437
0.010 0.083 -0.437
0.011 0.082 -0.437
0.010 0.081 -0.438
0.010 0.079 -0.438
0.009 0.077 -0.439
0.008 0.075 -0.439
0.007 0.073 -0.439
0.007 0.073 -0.439
0.007 0.072 -0.439
0.007 0.072 -0.439
0.007 0.071 -0.439
0.006 0.071 -0.439
B RightForeArm
-0.101 0.062 -0.252
-0.113 0.066 -0.246
-0.122 0.068 -0.241
-0.128 0.067 -0.238
-0.131 0.067 -0.236
-0.131 0.067 -0.236
-0.128 0.070 -0.237
-0.121 0.074 -0.240
-0.112 0.077 -0.243
-0.104 0.076 -0.247
-0.100 0.078 -0.248
-0.100 0.086 -0.245
-0.102 0.096 -0.240
-0.103 0.107 -0.236
-0.100 0.114 -0.233
-0.097 0.118 -0.233
-0.093 0.120 -0.234
-0.089 0.118 -0.236
-0.084 0.112 -0.240
-0.080 0.100 -0.247
-0.075 0.087 -0.254
-0.070 0.080 -0.257
-0.068 0.079 -0.258
-0.070 0.081 -0.257
-0.072 0.081 -0.257
-0.076 0.074 -0.257
-0.079 0.065 -0.259
-0.084 0.056 -0.260
-0.088 0.051 -0.259
-0.093 0.049 -0.258
-0.100 0.045 -0.256
-0.107 0.036 -0.255
-0.110 0.025 -0.254
-0.111 0.012 -0.255
-0.111 0.001 -0.255
-0.111 -0.006 -0.255
-0.111 -0.012 -0.255
-0.110 -0.016 -0.255
-0.108 -0.021 -0.256
-0.103 -0.023 -0.257
-0.096 -0.023 -0.260
-0.089 -0.018 -0.263
-0.085 -0.011 -0.265
-0.083 -0.002 -0.266
-0.082 0.009 -0.266
-0.081 0.020 -0.266
-0.080 0.029 -0.265
-0.079 0.037 -0.264
-0.079 0.043 -0.263
-0.081 0.048 -0.262
-0.082 0.051 -0.261
-0.083 0.053 -0.260
-0.084 0.054 -0.260
-0.084 0.055 -0.260
-0.085 0.057 -0.259
-0.085 0.059 -0.259
-0.084 0.060 -0.259
-0.084 0.060 -0.259
-0.083 0.060 -0.259
-0.082 0.058 -0.260
-0.081 0.056 -0.260
-0.081 0.054 -0.261
-0.080 0.051 -0.262
-0.079 0.047 -0.263
-0.077 0.043 -0.264
-0.075 0.039 -0.265
-0.073 0.035 -0.267
-0.071 0.031 -0.267
-0.069 0.029 -0.268
-0.068 0.027 -0.269
-0.067 0.025 -0.269
-0.066 0.024 -0.269
-0.065 0.023 -0.270
B RightHand
-0.033 -0.072 -0.272
-0.019 -0.101 -0.264
-0.009 -0.119 -0.257
-0.006 -0.127 -0.253
-0.007 -0.128 -0.253
-0.009 -0.124 -0.255
-0.013 -0.115 -0.258
-0.023 -0.101 -0.264
-0.038 -0.080 -0.269
-0.055 -0.055 -0.272
-0.068 -0.029 -0.273
-0.077 -0.011 -0.272
-0.084 -0.001 -0.271
-0.089 0.005 -0.269
-0.094 0.015 -0.267
-0.097 0.027 -0.265
-0.096 0.039 -0.264
-0.093 0.052 -0.263
-0.088 0.064 -0.261
-0.083 0.073 -0.261
-0.077 0.075 -0.262
-0.071 0.070 -0.265
-0.068 0.059 -0.268
-0.067 0.045 -0.271
-0.067 0.029 -0.274
-0.067 0.014 -0.275
-0.067 -0.002 -0.275
-0.067 -0.020 -0.274
-0.064 -0.040 -0.273
-0.058 -0.061 -0.271
-0.049 -0.082 -0.267
-0.039 -0.101 -0.262
-0.030 -0.114 -0.257
-0.024 -0.127 -0.252
-0.018 -0.139 -0.246
-0.010 -0.152 -0.239
0.000 -0.163 -0.232
0.009 -0.172 -0.225
0.016 -0.178 -0.220
0.017 -0.182 -0.217
0.016 -0.183 -0.216
0.013 -0.182 -0.217
0.012 -0.180 -0.219
0.012 -0.178 -0.220
0.009 -0.174 -0.223
0.003 -0.168 -0.228
-0.007 -0.160 -0.234
-0.016 -0.152 -0.239
-0.024 -0.143 -0.244
-0.032 -0.132 -0.249
-0.038 -0.119 -0.254
-0.043 -0.106 -0.259
-0.047 -0.094 -0.263
-0.050 -0.083 -0.266
-0.051 -0.075 -0.268
-0.051 -0.071 -0.269
-0.049 -0.070 -0.270
-0.047 -0.071 -0.270
-0.044 -0.073 -0.270
-0.040 -0.076 -0.270
-0.036 -0.080 -0.269
-0.031 -0.084 -0.269
-0.027 -0.087 -0.268
-0.022 -0.091 -0.267
-0.017 -0.095 -0.266
-0.013 -0.099 -0.265
-0.009 -0.103 -0.264
-0.005 -0.105 -0.263
-0.002 -0.107 -0.262
0.001 -0.108 -0.262
0.003 -0.109 -0.261
0.005 -0.110 -0.261
0.006 -0.111 -0.261
B RightHandIndex1
-0.010 -0.042 -0.083
-0.008 -0.050 -0.079
-0.006 -0.055 -0.076
-0.004 -0.058 -0.074
-0.004 -0.059 -0.073
-0.004 -0.057 -0.075
-0.004 -0.054 -0.077
-0.005 -0.053 -0.077
-0.005 -0.055 -0.076
-0.003 -0.058 -0.074
-0.002 -0.057 -0.075
-0.002 -0.053 -0.078
-0.005 -0.047 -0.081
-0.009 -0.040 -0.084
-0.015 -0.033 -0.087
-0.020 -0.023 -0.089
-0.021 -0.013 -0.091
-0.021 -0.005 -0.092
-0.019 0.000 -0.092
-0.018 0.002 -0.092
-0.017 0.001 -0.092
-0.016 0.000 -0.093
-0.015 -0.000 -0.093
-0.014 -0.000 -0.093
-0.014 -0.001 -0.093
-0.015 -0.003 -0.093
-0.016 -0.005 -0.092
-0.017 -0.007 -0.092
-0.017 -0.008 -0.092
-0.016 -0.013 -0.092
-0.014 -0.020 -0.091
-0.010 -0.029 -0.089
-0.006 -0.036 -0.087
-0.002 -0.042 -0.084
0.001 -0.048 -0.081
0.004 -0.056 -0.075
0.010 -0.064 -0.068
0.017 -0.071 -0.059
0.023 -0.076 -0.050
0.026 -0.079 -0.044
0.027 -0.081 -0.040
0.026 -0.081 -0.040
0.026 -0.081 -0.040
0.027 -0.080 -0.041
0.026 -0.080 -0.041
0.024 -0.080 -0.043
0.019 -0.079 -0.047
0.014 -0.078 -0.051
0.010 -0.075 -0.056
0.006 -0.072 -0.061
0.003 -0.068 -0.065
-0.001 -0.063 -0.070
-0.004 -0.056 -0.075
-0.008 -0.048 -0.081
-0.011 -0.038 -0.085
-0.014 -0.030 -0.088
-0.015 -0.026 -0.089
-0.016 -0.026 -0.089
-0.016 -0.028 -0.088
-0.015 -0.031 -0.087
-0.014 -0.035 -0.086
-0.013 -0.038 -0.085
-0.012 -0.041 -0.084
-0.011 -0.043 -0.083
-0.011 -0.044 -0.082
-0.011 -0.045 -0.082
-0.011 -0.044 -0.082
-0.011 -0.044 -0.082
-0.011 -0.043 -0.083
-0.011 -0.043 -0.083
-0.011 -0.043 -0.083
-0.010 -0.043 -0.083
-0.010 -0.044 -0.083
B RightHandIndex2
0.008 -0.003 -0.036
0.009 -0.006 -0.035
0.010 -0.008 -0.035
0.010 -0.010 -0.034
0.010 -0.010 -0.034
0.009 -0.009 -0.035
0.009 -0.008 -0.035
0.008 -0.008 -0.035
0.007 -0.009 -0.035
0.006 -0.010 -0.035
0.006 -0.009 -0.035
0.005 -0.008 -0.036
0.004 -0.006 -0.036
0.003 -0.004 -0.037
0.002 -0.001 -0.037
0.000 0.002 -0.037
0.000 0.006 -0.037
0.001 0.008 -0.036
0.002 0.010 -0.035
0.002 0.011 -0.035
0.003 0.011 -0.035
0.003 0.010 -0.035
0.004 0.010 -0.035
0.004 0.010 -0.035
0.005 0.010 -0.035
0.005 0.010 -0.035
0.005 0.009 -0.036
0.005 0.009 -0.036
0.005 0.009 -0.036
0.006 0.008 -0.036
0.007 0.006 -0.036
0.008 0.003 -0.036
0.010 0.001 -0.036
0.011 -0.001 -0.035
0.012 -0.003 -0.035
0.013 -0.005 -0.034
0.016 -0.009 -0.032
0.019 -0.012 -0.030
0.021 -0.013 -0.027
0.022 -0.015 -0.026
0.023 -0.016 -0.025
0.023 -0.016 -0.024
0.022 -0.016 -0.025
0.022 -0.016 -0.025
0.020 -0.017 -0.026
0.018 -0.018 -0.027
0.015 -0.018 -0.028
0.012 -0.018 -0.030
0.010 -0.017 -0.031
0.007 -0.016 -0.032
0.006 -0.015 -0.033
0.004 -0.013 -0.035
0.003 -0.010 -0.036
0.002 -0.006 -0.037
0.002 -0.001 -0.037
0.001 0.002 -0.037
0.001 0.004 -0.037
0.001 0.004 -0.037
0.001 0.003 -0.037
0.001 0.002 -0.037
0.001 0.001 -0.037
0.001 0.000 -0.037
0.002 -0.001 -0.037
0.002 -0.001 -0.037
0.002 -0.001 -0.037
0.002 -0.001 -0.037
0.002 -0.001 -0.037
0.001 -0.000 -0.037
0.001 0.000 -0.037
0.001 0.001 -0.037
0.001 0.001 -0.037
0.001 0.001 -0.037
0.001 0.001 -0.037
B RightHandIndex3
0.017 0.002 -0.023
0.017 0.000 -0.023
0.017 -0.001 -0.023
0.017 -0.002 -0.023
0.017 -0.002 -0.023
0.017 -0.002 -0.023
0.016 -0.001 -0.024
0.015 -0.001 -0.024
0.014 -0.002 -0.025
0.013 -0.002 -0.025
0.012 -0.002 -0.026
0.012 -0.002 -0.026
0.011 -0.001 -0.026
0.010 0.000 -0.027
0.009 0.001 -0.027
0.008 0.002 -0.027
0.008 0.005 -0.027
0.008 0.006 -0.026
0.009 0.008 -0.026
0.010 0.008 -0.026
0.010 0.008 -0.025
0.011 0.007 -0.025
0.012 0.007 -0.025
0.013 0.008 -0.024
0.014 0.007 -0.024
0.014 0.007 -0.024
0.015 0.007 -0.023
0.015 0.007 -0.023
0.016 0.008 -0.022
0.017 0.007 -0.022
0.018 0.007 -0.021
0.019 0.006 -0.021
0.020 0.005 -0.020
0.021 0.006 -0.019
0.021 0.005 -0.018
0.022 0.005 -0.017
0.023 0.004 -0.016
0.025 0.003 -0.014
0.025 0.004 -0.013
0.026 0.004 -0.012
0.026 0.003 -0.011
0.026 0.003 -0.011
0.026 0.003 -0.011
0.026 0.002 -0.012
0.025 0.001 -0.013
0.024 -0.000 -0.015
0.023 -0.002 -0.017
0.021 -0.004 -0.019
0.019 -0.005 -0.021
0.017 -0.005 -0.022
0.016 -0.005 -0.023
0.015 -0.004 -0.024
0.015 -0.002 -0.024
0.014 -0.000 -0.025
0.014 0.002 -0.025
0.014 0.004 -0.024
0.014 0.005 -0.024
0.015 0.006 -0.024
0.015 0.006 -0.024
0.015 0.005 -0.024
0.016 0.005 -0.023
0.016 0.005 -0.023
0.016 0.005 -0.023
0.017 0.006 -0.022
0.017 0.006 -0.022
0.017 0.007 -0.022
0.017 0.008 -0.022
0.016 0.009 -0.022
0.016 0.009 -0.021
0.016 0.010 -0.021
0.016 0.010 -0.021
0.016 0.011 -0.021
0.016 0.011 -0.021
B RightHandIndex4
0.016 0.002 -0.022
0.017 0.000 -0.022
0.017 -0.001 -0.022
0.017 -0.002 -0.022
0.017 -0.002 -0.022
0.016 -0.002 -0.023
0.015 -0.001 -0.023
0.015 -0.001 -0.024
0.013 -0.002 -0.024
0.013 -0.002 -0.025
0.012 -0.002 -0.025
0.011 -0.001 -0.025
0.011 -0.001 -0.026
0.010 0.000 -0.026
0.009 0.001 -0.026
0.008 0.002 -0.026
0.008 0.004 -0.026
0.008 0.006 -0.026
0.009 0.007 -0.025
0.009 0.008 -0.025
0.010 0.007 -0.025
0.011 0.007 -0.024
0.012 0.007 -0.024
0.012 0.007 -0.024
0.013 0.007 -0.023
0.014 0.007 -0.023
0.014 0.007 -0.023
0.015 0.007 -0.022
0.015 0.007 -0.022
0.016 0.007 -0.021
0.017 0.006 -0.021
0.018 0.005 -0.020
0.019 0.005 -0.019
0.020 0.005 -0.018
0.021 0.005 -0.018
0.022 0.004 -0.017
0.023 0.004 -0.015
0.024 0.003 -0.014
0.025 0.003 -0.012
0.025 0.004 -0.011
0.025 0.003 -0.011
0.026 0.003 -0.010
0.025 0.003 -0.011
0.025 0.002 -0.012
0.024 0.001 -0.013
0.023 -0.000 -0.015
0.022 -0.002 -0.017
0.020 -0.004 -0.019
0.018 -0.005 -0.020
0.017 -0.005 -0.021
0.016 -0.005 -0.022
0.015 -0.004 -0.023
0.014 -0.002 -0.024
0.014 -0.000 -0.024
0.014 0.002 -0.024
0.014 0.004 -0.024
0.014 0.005 -0.023
0.014 0.005 -0.023
0.014 0.005 -0.023
0.015 0.005 -0.023
0.015 0.005 -0.023
0.016 0.005 -0.022
0.016 0.005 -0.022
0.016 0.006 -0.022
0.016 0.006 -0.022
0.016 0.007 -0.021
0.016 0.008 -0.021
0.016 0.008 -0.021
0.016 0.009 -0.021
0.016 0.010 -0.021
0.016 0.010 -0.020
0.016 0.010 -0.020
0.016 0.010 -0.020
B RightHandMiddle1
-0.023 -0.023 -0.090
-0.021 -0.032 -0.087
-0.019 -0.038 -0.085
-0.017 -0.042 -0.084
-0.017 -0.042 -0.084
-0.017 -0.040 -0.085
-0.017 -0.037 -0.086
-0.018 -0.036 -0.086
-0.018 -0.038 -0.085
-0.018 -0.042 -0.084
-0.017 -0.041 -0.084
-0.017 -0.036 -0.086
-0.019 -0.029 -0.089
-0.021 -0.021 -0.090
-0.025 -0.012 -0.091
-0.028 -0.001 -0.091
-0.028 0.010 -0.091
-0.027 0.018 -0.090
-0.025 0.023 -0.089
-0.023 0.025 -0.089
-0.022 0.024 -0.090
-0.021 0.023 -0.090
-0.021 0.023 -0.090
-0.020 0.022 -0.090
-0.021 0.021 -0.091
-0.022 0.019 -0.091
-0.023 0.017 -0.091
-0.025 0.016 -0.091
-0.026 0.014 -0.091
-0.026 0.009 -0.091
-0.024 0.001 -0.092
-0.021 -0.009 -0.093
-0.018 -0.017 -0.092
-0.015 -0.024 -0.091
-0.013 -0.031 -0.089
-0.010 -0.040 -0.086
-0.004 -0.050 -0.081
0.004 -0.060 -0.074
0.010 -0.067 -0.067
0.014 -0.071 -0.062
0.015 -0.073 -0.059
0.015 -0.073 -0.059
0.014 -0.073 -0.059
0.014 -0.073 -0.060
0.014 -0.073 -0.060
0.011 -0.072 -0.061
0.006 -0.070 -0.064
0.000 -0.067 -0.067
-0.004 -0.063 -0.071
-0.007 -0.059 -0.075
-0.010 -0.053 -0.078
-0.013 -0.047 -0.082
-0.017 -0.039 -0.085
-0.020 -0.029 -0.089
-0.023 -0.018 -0.091
-0.025 -0.009 -0.092
-0.026 -0.005 -0.092
-0.027 -0.005 -0.091
-0.028 -0.008 -0.091
-0.028 -0.012 -0.090
-0.027 -0.016 -0.090
-0.027 -0.019 -0.089
-0.026 -0.023 -0.089
-0.026 -0.025 -0.088
-0.026 -0.027 -0.088
-0.027 -0.028 -0.087
-0.027 -0.028 -0.087
-0.028 -0.028 -0.087
-0.028 -0.028 -0.087
-0.029 -0.028 -0.087
-0.028 -0.028 -0.087
-0.028 -0.028 -0.087
-0.028 -0.029 -0.087
B RightHandMiddle2
0.016 -0.001 -0.033
0.017 -0.004 -0.033
0.017 -0.006 -0.032
0.017 -0.007 -0.032
0.017 -0.007 -0.032
0.017 -0.007 -0.032
0.016 -0.006 -0.033
0.015 -0.005 -0.033
0.014 -0.006 -0.034
0.014 -0.007 -0.034
0.013 -0.006 -0.034
0.013 -0.005 -0.034
0.012 -0.003 -0.035
0.011 -0.002 -0.035
0.010 -0.000 -0.036
0.009 0.002 -0.036
0.008 0.005 -0.036
0.009 0.007 -0.035
0.010 0.009 -0.035
0.010 0.009 -0.034
0.011 0.009 -0.034
0.012 0.009 -0.034
0.012 0.009 -0.034
0.013 0.009 -0.034
0.013 0.009 -0.034
0.013 0.008 -0.034
0.013 0.008 -0.034
0.013 0.008 -0.034
0.013 0.008 -0.034
0.014 0.007 -0.034
0.015 0.006 -0.034
0.016 0.003 -0.033
0.017 0.002 -0.033
0.018 0.001 -0.032
0.019 -0.001 -0.032
0.021 -0.003 -0.031
0.023 -0.006 -0.029
0.025 -0.008 -0.026
0.027 -0.009 -0.024
0.028 -0.010 -0.022
0.029 -0.011 -0.021
0.029 -0.011 -0.020
0.028 -0.012 -0.021
0.026 -0.013 -0.022
0.024 -0.015 -0.024
0.021 -0.017 -0.026
0.018 -0.018 -0.027
0.015 -0.018 -0.029
0.013 -0.016 -0.030
0.013 -0.015 -0.031
0.013 -0.013 -0.032
0.012 -0.011 -0.033
0.011 -0.008 -0.034
0.010 -0.005 -0.035
0.009 -0.001 -0.036
0.007 0.002 -0.036
0.006 0.003 -0.036
0.004 0.003 -0.037
0.003 0.003 -0.037
0.002 0.001 -0.037
0.002 0.000 -0.037
0.002 -0.001 -0.037
0.002 -0.002 -0.037
0.002 -0.003 -0.037
0.002 -0.003 -0.037
0.003 -0.002 -0.037
0.004 -0.001 -0.037
0.005 0.000 -0.037
0.007 0.001 -0.036
0.008 0.002 -0.036
0.009 0.003 -0.036
0.009 0.004 -0.036
0.010 0.004 -0.036
B RightHandMiddle3
0.018 0.001 -0.023
0.018 -0.001 -0.023
0.019 -0.002 -0.023
0.019 -0.003 -0.023
0.018 -0.003 -0.023
0.018 -0.003 -0.023
0.017 -0.002 -0.024
0.016 -0.002 -0.025
0.015 -0.002 -0.025
0.014 -0.002 -0.026
0.014 -0.002 -0.026
0.013 -0.001 -0.026
0.012 0.000 -0.027
0.012 0.001 -0.027
0.011 0.002 -0.027
0.010 0.004 -0.027
0.010 0.006 -0.027
0.011 0.007 -0.026
0.012 0.009 -0.026
0.013 0.009 -0.025
0.013 0.008 -0.025
0.014 0.008 -0.024
0.015 0.008 -0.024
0.016 0.008 -0.023
0.017 0.007 -0.023
0.018 0.007 -0.022
0.019 0.006 -0.022
0.019 0.007 -0.021
0.020 0.007 -0.021
0.021 0.007 -0.020
0.022 0.006 -0.019
0.023 0.005 -0.017
0.024 0.005 -0.016
0.025 0.006 -0.015
0.026 0.006 -0.014
0.026 0.005 -0.012
0.027 0.005 -0.010
0.028 0.006 -0.008
0.028 0.007 -0.007
0.028 0.007 -0.005
0.028 0.007 -0.004
0.028 0.007 -0.004
0.028 0.006 -0.005
0.028 0.005 -0.008
0.027 0.003 -0.012
0.025 -0.000 -0.016
0.023 -0.003 -0.019
0.021 -0.003 -0.020
0.021 -0.003 -0.021
0.021 -0.001 -0.020
0.022 0.000 -0.019
0.023 0.001 -0.019
0.023 0.002 -0.019
0.022 0.003 -0.019
0.021 0.005 -0.020
0.020 0.006 -0.020
0.019 0.007 -0.021
0.018 0.008 -0.022
0.017 0.008 -0.023
0.016 0.007 -0.024
0.015 0.007 -0.024
0.015 0.007 -0.024
0.015 0.007 -0.025
0.015 0.007 -0.024
0.016 0.007 -0.023
0.018 0.008 -0.022
0.019 0.009 -0.021
0.020 0.010 -0.019
0.022 0.011 -0.017
0.023 0.012 -0.015
0.023 0.012 -0.013
0.024 0.013 -0.012
0.024 0.013 -0.011
B RightHandMiddle4
0.018 0.001 -0.023
0.018 -0.001 -0.023
0.019 -0.002 -0.023
0.019 -0.003 -0.023
0.018 -0.003 -0.023
0.018 -0.003 -0.023
0.017 -0.002 -0.024
0.016 -0.002 -0.025
0.015 -0.002 -0.025
0.014 -0.002 -0.026
0.014 -0.002 -0.026
0.013 -0.001 -0.026
0.012 0.000 -0.027
0.012 0.001 -0.027
0.011 0.002 -0.027
0.010 0.004 -0.027
0.010 0.006 -0.027
0.011 0.007 -0.026
0.012 0.009 -0.026
0.013 0.009 -0.025
0.013 0.008 -0.025
0.014 0.008 -0.024
0.015 0.008 -0.024
0.016 0.008 -0.023
0.017 0.007 -0.023
0.018 0.007 -0.022
0.019 0.006 -0.022
0.019 0.007 -0.021
0.020 0.007 -0.021
0.021 0.007 -0.020
0.022 0.006 -0.019
0.023 0.005 -0.017
0.024 0.005 -0.016
0.025 0.006 -0.015
0.025 0.006 -0.014
0.026 0.005 -0.012
0.027 0.005 -0.010
0.028 0.006 -0.008
0.028 0.007 -0.007
0.028 0.007 -0.005
0.028 0.007 -0.004
0.028 0.007 -0.004
0.028 0.006 -0.005
0.028 0.005 -0.008
0.027 0.003 -0.012
0.025 -0.000 -0.016
0.023 -0.003 -0.019
0.021 -0.003 -0.020
0.021 -0.003 -0.021
0.021 -0.001 -0.020
0.022 0.000 -0.019
0.023 0.001 -0.019
0.022 0.002 -0.019
0.022 0.003 -0.019
0.021 0.005 -0.020
0.020 0.006 -0.020
0.019 0.007 -0.021
0.018 0.008 -0.022
0.017 0.008 -0.023
0.016 0.007 -0.023
0.015 0.007 -0.024
0.015 0.007 -0.024
0.015 0.007 -0.025
0.015 0.007 -0.024
0.016 0.007 -0.023
0.017 0.008 -0.022
0.019 0.009 -0.021
0.020 0.010 -0.019
0.022 0.011 -0.017
0.023 0.012 -0.015
0.023 0.012 -0.013
0.024 0.013 -0.012
0.024 0.013 -0.011
B RightHandPinky1
-0.026 0.017 -0.084
-0.025 0.009 -0.085
-0.023 0.003 -0.086
-0.022 -0.001 -0.087
-0.022 -0.002 -0.087
-0.022 0.000 -0.087
-0.023 0.004 -0.086
-0.024 0.005 -0.086
-0.025 0.002 -0.086
-0.026 -0.002 -0.085
-0.026 -0.002 -0.085
-0.026 0.004 -0.085
-0.025 0.011 -0.085
-0.024 0.019 -0.084
-0.024 0.028 -0.082
-0.022 0.038 -0.078
-0.020 0.046 -0.074
-0.018 0.053 -0.070
-0.015 0.057 -0.067
-0.014 0.058 -0.067
-0.013 0.057 -0.067
-0.013 0.056 -0.068
-0.013 0.056 -0.068
-0.013 0.056 -0.068
-0.013 0.055 -0.069
-0.015 0.054 -0.070
-0.017 0.052 -0.071
-0.019 0.051 -0.071
-0.022 0.049 -0.071
-0.023 0.046 -0.073
-0.024 0.039 -0.077
-0.023 0.031 -0.081
-0.022 0.023 -0.084
-0.022 0.017 -0.085
-0.021 0.009 -0.086
-0.018 -0.000 -0.087
-0.013 -0.011 -0.088
-0.007 -0.022 -0.086
-0.001 -0.031 -0.084
0.003 -0.037 -0.082
0.004 -0.039 -0.080
0.005 -0.040 -0.080
0.004 -0.039 -0.080
0.004 -0.039 -0.080
0.002 -0.039 -0.080
-0.001 -0.038 -0.081
-0.006 -0.035 -0.082
-0.010 -0.031 -0.083
-0.013 -0.026 -0.085
-0.016 -0.020 -0.086
-0.017 -0.014 -0.087
-0.019 -0.007 -0.087
-0.021 0.002 -0.087
-0.022 0.012 -0.086
-0.023 0.023 -0.083
-0.024 0.030 -0.081
-0.026 0.034 -0.079
-0.027 0.034 -0.078
-0.028 0.031 -0.079
-0.030 0.028 -0.080
-0.030 0.024 -0.081
-0.031 0.020 -0.081
-0.032 0.017 -0.082
-0.033 0.015 -0.082
-0.034 0.013 -0.082
-0.036 0.012 -0.081
-0.037 0.011 -0.080
-0.039 0.011 -0.080
-0.040 0.011 -0.079
-0.040 0.011 -0.079
-0.041 0.010 -0.079
-0.041 0.010 -0.079
-0.041 0.010 -0.079
B RightHandPinky2
0.021 0.001 -0.029
0.021 -0.001 -0.029
0.022 -0.003 -0.029
0.022 -0.004 -0.028
0.022 -0.004 -0.029
0.021 -0.003 -0.029
0.021 -0.002 -0.029
0.020 -0.002 -0.030
0.019 -0.002 -0.031
0.018 -0.002 -0.031
0.018 -0.002 -0.031
0.017 -0.001 -0.032
0.017 0.000 -0.032
0.016 0.001 -0.032
0.015 0.002 -0.032
0.014 0.003 -0.033
0.014 0.006 -0.033
0.015 0.008 -0.032
0.015 0.009 -0.031
0.016 0.009 -0.031
0.016 0.009 -0.031
0.017 0.008 -0.031
0.018 0.008 -0.030
0.018 0.008 -0.030
0.018 0.008 -0.030
0.018 0.008 -0.030
0.018 0.007 -0.030
0.018 0.007 -0.030
0.018 0.008 -0.030
0.019 0.007 -0.030
0.020 0.005 -0.030
0.021 0.004 -0.029
0.022 0.002 -0.028
0.023 0.002 -0.028
0.024 0.001 -0.027
0.025 -0.001 -0.026
0.027 -0.004 -0.024
0.029 -0.005 -0.021
0.030 -0.006 -0.019
0.031 -0.006 -0.017
0.031 -0.007 -0.016
0.031 -0.008 -0.016
0.031 -0.008 -0.016
0.031 -0.008 -0.017
0.030 -0.008 -0.018
0.029 -0.009 -0.020
0.027 -0.010 -0.022
0.025 -0.011 -0.024
0.023 -0.011 -0.025
0.021 -0.011 -0.027
0.020 -0.010 -0.028
0.018 -0.009 -0.030
0.016 -0.007 -0.031
0.014 -0.005 -0.033
0.012 -0.001 -0.034
0.010 0.001 -0.035
0.008 0.003 -0.035
0.007 0.003 -0.035
0.005 0.002 -0.036
0.004 0.001 -0.036
0.003 -0.000 -0.036
0.003 -0.001 -0.036
0.003 -0.002 -0.036
0.004 -0.003 -0.036
0.005 -0.003 -0.036
0.006 -0.002 -0.035
0.008 -0.001 -0.035
0.009 -0.000 -0.035
0.011 0.001 -0.034
0.013 0.002 -0.034
0.014 0.003 -0.033
0.015 0.003 -0.033
0.015 0.004 -0.032
B RightHandPinky3
0.019 0.001 -0.008
0.020 0.000 -0.008
0.020 0.000 -0.008
0.020 -0.000 -0.008
0.019 -0.000 -0.008
0.019 -0.000 -0.008
0.019 0.000 -0.009
0.019 0.000 -0.010
0.018 0.000 -0.011
0.018 0.001 -0.011
0.017 0.001 -0.012
0.017 0.001 -0.012
0.017 0.001 -0.012
0.017 0.000 -0.013
0.016 -0.001 -0.013
0.016 -0.001 -0.014
0.015 -0.000 -0.014
0.016 0.000 -0.014
0.016 0.000 -0.014
0.016 0.000 -0.013
0.017 -0.000 -0.013
0.017 -0.000 -0.012
0.018 -0.000 -0.012
0.018 -0.001 -0.011
0.018 -0.001 -0.010
0.019 -0.001 -0.010
0.019 -0.001 -0.009
0.019 -0.001 -0.008
0.020 -0.001 -0.008
0.020 -0.000 -0.007
0.020 -0.000 -0.005
0.021 0.000 -0.004
0.021 0.001 -0.002
0.021 0.002 -0.001
0.021 0.003 0.000
0.021 0.004 0.001
0.020 0.005 0.003
0.020 0.006 0.004
0.019 0.008 0.005
0.018 0.009 0.006
0.018 0.009 0.006
0.018 0.009 0.006
0.018 0.009 0.006
0.018 0.009 0.006
0.019 0.009 0.005
0.019 0.008 0.004
0.020 0.006 0.002
0.020 0.005 0.001
0.021 0.003 -0.001
0.021 0.002 -0.002
0.021 0.001 -0.003
0.021 -0.000 -0.004
0.020 -0.001 -0.006
0.020 -0.001 -0.007
0.019 -0.001 -0.009
0.018 -0.001 -0.011
0.017 -0.000 -0.012
0.016 0.000 -0.013
0.015 0.000 -0.014
0.015 0.000 -0.015
0.014 0.000 -0.015
0.014 0.000 -0.016
0.014 0.000 -0.016
0.015 0.000 -0.015
0.016 0.001 -0.014
0.017 0.002 -0.012
0.018 0.003 -0.010
0.019 0.004 -0.008
0.020 0.005 -0.006
0.020 0.005 -0.003
0.020 0.006 -0.001
0.020 0.006 -0.000
0.020 0.006 0.001
B RightHandPinky4
0.020 0.001 -0.008
0.020 0.000 -0.008
0.020 0.000 -0.008
0.020 -0.000 -0.008
0.020 -0.000 -0.008
0.019 -0.000 -0.008
0.019 0.000 -0.009
0.019 0.000 -0.010
0.018 0.000 -0.011
0.018 0.001 -0.011
0.018 0.001 -0.012
0.017 0.001 -0.012
0.017 0.001 -0.012
0.017 0.000 -0.013
0.016 -0.001 -0.013
0.016 -0.001 -0.014
0.016 -0.000 -0.014
0.016 0.000 -0.014
0.016 0.000 -0.014
0.016 0.000 -0.013
0.017 -0.000 -0.013
0.017 -0.000 -0.012
0.018 -0.000 -0.012
0.018 -0.001 -0.011
0.018 -0.001 -0.010
0.019 -0.001 -0.010
0.019 -0.001 -0.009
0.019 -0.001 -0.009
0.020 -0.001 -0.008
0.020 -0.000 -0.007
0.020 -0.000 -0.005
0.021 0.000 -0.004
0.021 0.001 -0.002
0.021 0.002 -0.001
0.021 0.003 0.000
0.021 0.004 0.001
0.020 0.005 0.003
0.020 0.006 0.004
0.019 0.008 0.005
0.018 0.009 0.006
0.018 0.009 0.006
0.018 0.009 0.006
0.018 0.009 0.006
0.018 0.009 0.006
0.019 0.009 0.005
0.019 0.008 0.004
0.020 0.006 0.002
0.021 0.005 0.001
0.021 0.003 -0.001
0.021 0.002 -0.002
0.021 0.001 -0.003
0.021 -0.000 -0.004
0.020 -0.001 -0.006
0.020 -0.001 -0.007
0.019 -0.001 -0.009
0.018 -0.001 -0.011
0.017 -0.000 -0.012
0.016 0.000 -0.013
0.016 0.000 -0.014
0.015 0.000 -0.015
0.014 0.000 -0.016
0.014 0.000 -0.016
0.014 0.000 -0.016
0.015 0.000 -0.015
0.016 0.001 -0.014
0.017 0.002 -0.012
0.018 0.003 -0.010
0.019 0.004 -0.008
0.020 0.005 -0.006
0.020 0.006 -0.003
0.020 0.006 -0.001
0.020 0.006 -0.000
0.020 0.006 0.001
B RightHandRing1
-0.027 -0.004 -0.089
-0.025 -0.013 -0.088
-0.023 -0.019 -0.088
-0.022 -0.023 -0.087
-0.022 -0.024 -0.087
-0.022 -0.022 -0.088
-0.022 -0.019 -0.088
-0.023 -0.018 -0.088
-0.024 -0.020 -0.087
-0.024 -0.024 -0.086
-0.024 -0.024 -0.087
-0.024 -0.018 -0.088
-0.024 -0.011 -0.089
-0.025 -0.002 -0.089
-0.027 0.007 -0.089
-0.028 0.018 -0.087
-0.027 0.028 -0.084
-0.025 0.036 -0.082
-0.023 0.040 -0.081
-0.021 0.042 -0.080
-0.020 0.041 -0.081
-0.020 0.040 -0.082
-0.019 0.040 -0.082
-0.019 0.040 -0.082
-0.020 0.039 -0.082
-0.021 0.037 -0.083
-0.023 0.035 -0.083
-0.025 0.033 -0.083
-0.026 0.031 -0.084
-0.027 0.027 -0.085
-0.027 0.019 -0.087
-0.025 0.010 -0.089
-0.022 0.002 -0.090
-0.021 -0.005 -0.090
-0.019 -0.013 -0.090
-0.016 -0.022 -0.089
-0.010 -0.033 -0.086
-0.003 -0.044 -0.082
0.003 -0.052 -0.077
0.007 -0.057 -0.073
0.008 -0.059 -0.071
0.008 -0.060 -0.071
0.008 -0.059 -0.071
0.008 -0.059 -0.071
0.006 -0.059 -0.071
0.003 -0.058 -0.072
-0.002 -0.056 -0.074
-0.006 -0.052 -0.077
-0.010 -0.047 -0.079
-0.013 -0.042 -0.082
-0.016 -0.036 -0.084
-0.018 -0.029 -0.086
-0.021 -0.021 -0.088
-0.023 -0.010 -0.089
-0.026 0.001 -0.089
-0.027 0.009 -0.088
-0.028 0.013 -0.087
-0.030 0.013 -0.087
-0.031 0.011 -0.087
-0.031 0.007 -0.087
-0.031 0.003 -0.087
-0.031 -0.001 -0.087
-0.031 -0.004 -0.087
-0.032 -0.007 -0.087
-0.033 -0.009 -0.087
-0.034 -0.010 -0.086
-0.035 -0.011 -0.086
-0.036 -0.011 -0.085
-0.036 -0.010 -0.085
-0.037 -0.011 -0.085
-0.037 -0.011 -0.085
-0.037 -0.011 -0.085
-0.036 -0.012 -0.085
B RightHandRing2
0.017 -0.000 -0.029
0.017 -0.003 -0.029
0.018 -0.004 -0.028
0.018 -0.005 -0.028
0.018 -0.006 -0.028
0.017 -0.005 -0.029
0.017 -0.004 -0.029
0.016 -0.004 -0.030
0.015 -0.004 -0.030
0.014 -0.005 -0.030
0.014 -0.004 -0.030
0.014 -0.003 -0.031
0.013 -0.002 -0.031
0.012 -0.001 -0.031
0.011 0.000 -0.032
0.010 0.002 -0.032
0.010 0.005 -0.032
0.010 0.007 -0.031
0.011 0.008 -0.031
0.012 0.008 -0.031
0.012 0.008 -0.030
0.013 0.008 -0.030
0.013 0.008 -0.030
0.014 0.008 -0.030
0.014 0.008 -0.030
0.014 0.007 -0.030
0.014 0.007 -0.030
0.014 0.007 -0.030
0.014 0.007 -0.030
0.015 0.006 -0.030
0.015 0.005 -0.030
0.017 0.003 -0.029
0.018 0.002 -0.029
0.019 0.001 -0.028
0.020 -0.001 -0.028
0.021 -0.003 -0.026
0.023 -0.005 -0.025
0.025 -0.007 -0.022
0.026 -0.008 -0.020
0.027 -0.008 -0.018
0.028 -0.009 -0.017
0.028 -0.009 -0.017
0.027 -0.010 -0.017
0.026 -0.011 -0.019
0.024 -0.012 -0.020
0.022 -0.014 -0.022
0.019 -0.015 -0.024
0.017 -0.015 -0.025
0.016 -0.014 -0.026
0.015 -0.013 -0.027
0.014 -0.011 -0.028
0.014 -0.010 -0.029
0.013 -0.008 -0.030
0.011 -0.005 -0.031
0.010 -0.002 -0.032
0.008 0.001 -0.033
0.007 0.002 -0.033
0.006 0.002 -0.033
0.005 0.001 -0.033
0.004 0.000 -0.034
0.003 -0.001 -0.034
0.003 -0.002 -0.034
0.003 -0.003 -0.034
0.003 -0.003 -0.033
0.004 -0.003 -0.033
0.005 -0.003 -0.033
0.006 -0.002 -0.033
0.007 -0.001 -0.033
0.008 0.000 -0.033
0.009 0.001 -0.032
0.010 0.002 -0.032
0.011 0.002 -0.032
0.011 0.003 -0.032
B RightHandRing3
0.020 0.001 -0.021
0.020 -0.001 -0.021
0.020 -0.002 -0.020
0.020 -0.002 -0.020
0.020 -0.003 -0.021
0.020 -0.002 -0.021
0.019 -0.002 -0.022
0.018 -0.002 -0.022
0.017 -0.002 -0.023
0.016 -0.002 -0.024
0.016 -0.002 -0.024
0.015 -0.001 -0.024
0.015 -0.001 -0.025
0.014 -0.000 -0.025
0.013 0.000 -0.026
0.012 0.001 -0.026
0.012 0.003 -0.026
0.013 0.005 -0.026
0.014 0.005 -0.025
0.014 0.006 -0.025
0.015 0.005 -0.024
0.016 0.005 -0.024
0.017 0.005 -0.023
0.018 0.004 -0.022
0.019 0.004 -0.022
0.019 0.004 -0.021
0.020 0.003 -0.021
0.021 0.003 -0.020
0.021 0.004 -0.019
0.022 0.004 -0.018
0.023 0.003 -0.017
0.024 0.003 -0.015
0.025 0.003 -0.013
0.026 0.004 -0.012
0.026 0.004 -0.011
0.027 0.004 -0.009
0.028 0.005 -0.007
0.028 0.005 -0.005
0.028 0.007 -0.003
0.028 0.008 -0.002
0.028 0.008 -0.001
0.028 0.007 -0.001
0.028 0.007 -0.002
0.028 0.005 -0.004
0.028 0.003 -0.007
0.027 0.000 -0.010
0.026 -0.002 -0.013
0.025 -0.004 -0.014
0.024 -0.004 -0.015
0.024 -0.003 -0.015
0.024 -0.003 -0.015
0.024 -0.002 -0.015
0.024 -0.002 -0.016
0.023 -0.001 -0.017
0.023 -0.000 -0.018
0.021 0.001 -0.019
0.020 0.002 -0.021
0.019 0.002 -0.022
0.018 0.002 -0.023
0.017 0.001 -0.023
0.016 0.001 -0.024
0.016 0.001 -0.024
0.016 0.000 -0.024
0.017 0.001 -0.024
0.018 0.002 -0.023
0.019 0.003 -0.021
0.021 0.005 -0.020
0.022 0.006 -0.017
0.023 0.008 -0.015
0.024 0.009 -0.013
0.025 0.010 -0.011
0.025 0.010 -0.010
0.025 0.010 -0.009
B RightHandRing4
0.018 0.001 -0.019
0.019 -0.001 -0.019
0.019 -0.002 -0.019
0.019 -0.002 -0.019
0.018 -0.002 -0.019
0.018 -0.002 -0.019
0.017 -0.002 -0.020
0.017 -0.002 -0.020
0.016 -0.002 -0.021
0.015 -0.002 -0.022
0.015 -0.002 -0.022
0.014 -0.001 -0.022
0.014 -0.000 -0.023
0.013 -0.000 -0.023
0.012 0.000 -0.023
0.011 0.001 -0.024
0.011 0.003 -0.024
0.012 0.004 -0.023
0.012 0.005 -0.023
0.013 0.005 -0.022
0.014 0.005 -0.022
0.015 0.004 -0.022
0.015 0.004 -0.021
0.016 0.004 -0.020
0.017 0.004 -0.020
0.018 0.003 -0.019
0.018 0.003 -0.019
0.019 0.003 -0.018
0.020 0.003 -0.017
0.020 0.003 -0.016
0.021 0.003 -0.015
0.022 0.003 -0.014
0.023 0.003 -0.012
0.024 0.003 -0.011
0.024 0.004 -0.010
0.025 0.004 -0.008
0.025 0.004 -0.006
0.026 0.005 -0.005
0.025 0.006 -0.003
0.025 0.007 -0.002
0.025 0.007 -0.001
0.025 0.007 -0.001
0.026 0.006 -0.002
0.026 0.005 -0.004
0.025 0.003 -0.006
0.025 0.000 -0.009
0.024 -0.002 -0.011
0.023 -0.003 -0.013
0.022 -0.003 -0.014
0.022 -0.003 -0.014
0.022 -0.003 -0.014
0.022 -0.002 -0.014
0.022 -0.002 -0.015
0.021 -0.001 -0.015
0.021 -0.000 -0.017
0.020 0.001 -0.018
0.019 0.001 -0.019
0.017 0.002 -0.020
0.016 0.002 -0.021
0.015 0.001 -0.021
0.015 0.001 -0.022
0.014 0.001 -0.022
0.015 0.000 -0.022
0.015 0.001 -0.022
0.016 0.002 -0.021
0.018 0.003 -0.019
0.019 0.004 -0.018
0.020 0.006 -0.016
0.021 0.007 -0.014
0.022 0.008 -0.012
0.023 0.009 -0.010
0.023 0.009 -0.009
0.023 0.010 -0.008
B RightHandThumb1
0.017 -0.027 -0.023
0.017 -0.029 -0.020
0.018 -0.030 -0.018
0.019 -0.031 -0.017
0.019 -0.031 -0.016
0.019 -0.030 -0.017
0.019 -0.030 -0.018
0.019 -0.029 -0.019
0.019 -0.029 -0.019
0.020 -0.029 -0.018
0.021 -0.028 -0.018
0.021 -0.027 -0.020
0.019 -0.027 -0.022
0.017 -0.027 -0.024
0.013 -0.027 -0.026
0.010 -0.025 -0.029
0.008 -0.023 -0.031
0.008 -0.021 -0.033
0.008 -0.019 -0.034
0.008 -0.019 -0.034
0.009 -0.019 -0.034
0.009 -0.019 -0.033
0.010 -0.019 -0.033
0.010 -0.019 -0.033
0.010 -0.020 -0.033
0.010 -0.020 -0.033
0.010 -0.020 -0.032
0.011 -0.020 -0.032
0.012 -0.020 -0.032
0.013 -0.021 -0.031
0.014 -0.023 -0.029
0.016 -0.024 -0.027
0.018 -0.026 -0.024
0.020 -0.026 -0.022
0.021 -0.027 -0.020
0.022 -0.028 -0.017
0.024 -0.029 -0.012
0.026 -0.029 -0.007
0.027 -0.029 -0.002
0.028 -0.028 0.001
0.028 -0.028 0.002
0.027 -0.029 0.003
0.027 -0.029 0.003
0.028 -0.028 0.002
0.028 -0.028 0.001
0.028 -0.029 0.000
0.026 -0.030 -0.002
0.025 -0.030 -0.004
0.024 -0.031 -0.007
0.023 -0.031 -0.009
0.021 -0.032 -0.011
0.020 -0.031 -0.014
0.018 -0.031 -0.017
0.017 -0.029 -0.021
0.015 -0.027 -0.024
0.014 -0.025 -0.027
0.014 -0.024 -0.028
0.014 -0.024 -0.028
0.014 -0.024 -0.028
0.015 -0.025 -0.027
0.016 -0.025 -0.026
0.016 -0.026 -0.026
0.017 -0.026 -0.025
0.018 -0.026 -0.025
0.018 -0.025 -0.024
0.019 -0.025 -0.025
0.019 -0.024 -0.025
0.019 -0.024 -0.026
0.019 -0.023 -0.026
0.019 -0.023 -0.026
0.020 -0.022 -0.026
0.020 -0.022 -0.026
0.020 -0.022 -0.026
B RightHandThumb2
0.011 -0.022 -0.034
0.012 -0.025 -0.032
0.013 -0.027 -0.030
0.013 -0.028 -0.029
0.014 -0.028 -0.028
0.014 -0.027 -0.029
0.014 -0.026 -0.030
0.013 -0.025 -0.031
0.014 -0.026 -0.030
0.014 -0.026 -0.030
0.015 -0.025 -0.030
0.015 -0.024 -0.031
0.014 -0.022 -0.033
0.012 -0.021 -0.034
0.009 -0.019 -0.036
0.006 -0.017 -0.038
0.005 -0.013 -0.039
0.005 -0.010 -0.040
0.006 -0.008 -0.041
0.006 -0.008 -0.041
0.007 -0.008 -0.041
0.007 -0.008 -0.040
0.008 -0.008 -0.040
0.008 -0.008 -0.040
0.009 -0.008 -0.040
0.008 -0.009 -0.040
0.008 -0.009 -0.040
0.008 -0.009 -0.040
0.009 -0.010 -0.040
0.009 -0.011 -0.039
0.011 -0.013 -0.038
0.013 -0.016 -0.037
0.015 -0.018 -0.035
0.016 -0.019 -0.033
0.017 -0.021 -0.032
0.019 -0.024 -0.029
0.021 -0.026 -0.025
0.024 -0.028 -0.020
0.026 -0.029 -0.016
0.027 -0.029 -0.013
0.028 -0.030 -0.011
0.027 -0.030 -0.011
0.027 -0.030 -0.011
0.028 -0.029 -0.012
0.028 -0.029 -0.012
0.027 -0.029 -0.014
0.025 -0.029 -0.016
0.024 -0.030 -0.018
0.022 -0.029 -0.020
0.021 -0.029 -0.022
0.019 -0.028 -0.024
0.018 -0.027 -0.027
0.017 -0.025 -0.029
0.015 -0.022 -0.032
0.014 -0.019 -0.035
0.013 -0.016 -0.037
0.012 -0.014 -0.038
0.012 -0.014 -0.038
0.012 -0.014 -0.037
0.013 -0.015 -0.037
0.013 -0.016 -0.037
0.014 -0.017 -0.036
0.014 -0.017 -0.036
0.015 -0.017 -0.035
0.015 -0.017 -0.035
0.015 -0.017 -0.035
0.015 -0.016 -0.036
0.014 -0.016 -0.036
0.014 -0.015 -0.036
0.014 -0.015 -0.037
0.014 -0.014 -0.037
0.015 -0.014 -0.037
0.015 -0.014 -0.037
B RightHandThumb3
0.007 -0.014 -0.030
0.007 -0.017 -0.029
0.008 -0.019 -0.027
0.009 -0.019 -0.027
0.009 -0.020 -0.026
0.009 -0.019 -0.027
0.009 -0.018 -0.028
0.009 -0.018 -0.028
0.009 -0.018 -0.028
0.009 -0.018 -0.027
0.010 -0.018 -0.027
0.010 -0.016 -0.028
0.009 -0.015 -0.029
0.008 -0.013 -0.030
0.006 -0.012 -0.032
0.004 -0.009 -0.033
0.003 -0.006 -0.033
0.003 -0.004 -0.034
0.004 -0.002 -0.034
0.004 -0.002 -0.034
0.005 -0.002 -0.034
0.005 -0.002 -0.034
0.006 -0.002 -0.034
0.006 -0.002 -0.034
0.006 -0.003 -0.034
0.006 -0.003 -0.034
0.006 -0.004 -0.034
0.005 -0.004 -0.034
0.006 -0.004 -0.033
0.006 -0.005 -0.033
0.007 -0.007 -0.033
0.008 -0.010 -0.032
0.010 -0.012 -0.031
0.011 -0.013 -0.030
0.012 -0.015 -0.028
0.013 -0.017 -0.026
0.015 -0.020 -0.023
0.018 -0.022 -0.020
0.020 -0.023 -0.016
0.021 -0.023 -0.014
0.021 -0.024 -0.013
0.021 -0.024 -0.012
0.021 -0.024 -0.013
0.021 -0.024 -0.013
0.021 -0.023 -0.013
0.020 -0.024 -0.014
0.019 -0.024 -0.016
0.017 -0.024 -0.018
0.016 -0.023 -0.019
0.015 -0.022 -0.021
0.014 -0.022 -0.023
0.013 -0.020 -0.024
0.012 -0.019 -0.026
0.010 -0.016 -0.028
0.009 -0.013 -0.030
0.009 -0.010 -0.031
0.008 -0.009 -0.032
0.008 -0.009 -0.032
0.008 -0.009 -0.032
0.008 -0.010 -0.032
0.009 -0.011 -0.031
0.009 -0.012 -0.031
0.009 -0.012 -0.031
0.010 -0.012 -0.030
0.010 -0.012 -0.030
0.010 -0.012 -0.030
0.009 -0.012 -0.031
0.009 -0.011 -0.031
0.009 -0.011 -0.031
0.009 -0.011 -0.031
0.009 -0.010 -0.031
0.009 -0.010 -0.031
0.009 -0.010 -0.031
B RightHandThumb4
0.005 -0.011 -0.023
0.006 -0.013 -0.022
0.006 -0.014 -0.021
0.007 -0.015 -0.020
0.007 -0.015 -0.020
0.007 -0.014 -0.020
0.007 -0.014 -0.021
0.007 -0.013 -0.021
0.007 -0.013 -0.021
0.007 -0.014 -0.021
0.007 -0.013 -0.021
0.007 -0.012 -0.021
0.007 -0.011 -0.022
0.006 -0.010 -0.023
0.004 -0.009 -0.024
0.003 -0.007 -0.025
0.002 -0.005 -0.025
0.003 -0.003 -0.025
0.003 -0.002 -0.026
0.003 -0.001 -0.026
0.004 -0.001 -0.025
0.004 -0.002 -0.025
0.004 -0.002 -0.025
0.004 -0.002 -0.025
0.005 -0.002 -0.025
0.004 -0.002 -0.025
0.004 -0.003 -0.025
0.004 -0.003 -0.025
0.004 -0.003 -0.025
0.005 -0.004 -0.025
0.005 -0.005 -0.025
0.006 -0.007 -0.024
0.007 -0.009 -0.023
0.008 -0.010 -0.022
0.009 -0.011 -0.021
0.010 -0.013 -0.020
0.012 -0.015 -0.018
0.013 -0.016 -0.015
0.015 -0.017 -0.012
0.016 -0.018 -0.011
0.016 -0.018 -0.010
0.016 -0.018 -0.009
0.016 -0.018 -0.009
0.016 -0.018 -0.010
0.016 -0.018 -0.010
0.015 -0.018 -0.011
0.014 -0.018 -0.012
0.013 -0.018 -0.013
0.012 -0.017 -0.015
0.011 -0.017 -0.016
0.010 -0.016 -0.017
0.010 -0.015 -0.018
0.009 -0.014 -0.020
0.008 -0.012 -0.021
0.007 -0.010 -0.023
0.006 -0.008 -0.024
0.006 -0.007 -0.024
0.006 -0.007 -0.024
0.006 -0.007 -0.024
0.006 -0.008 -0.024
0.006 -0.008 -0.024
0.007 -0.009 -0.023
0.007 -0.009 -0.023
0.007 -0.009 -0.023
0.007 -0.009 -0.023
0.007 -0.009 -0.023
0.007 -0.009 -0.023
0.007 -0.009 -0.023
0.007 -0.008 -0.023
0.007 -0.008 -0.023
0.007 -0.008 -0.024
0.007 -0.008 -0.024
0.007 -0.008 -0.023
B RightLeg
0.023 -0.112 -0.429
0.020 -0.094 -0.433
0.021 -0.068 -0.438
0.023 -0.040 -0.441
0.023 -0.014 -0.443
0.022 0.013 -0.443
0.020 0.037 -0.442
0.016 0.057 -0.440
0.007 0.062 -0.439
-0.012 0.031 -0.442
-0.041 -0.023 -0.441
-0.070 -0.080 -0.431
-0.088 -0.129 -0.415
-0.092 -0.168 -0.400
-0.089 -0.199 -0.387
-0.082 -0.221 -0.376
-0.073 -0.234 -0.370
-0.064 -0.238 -0.369
-0.055 -0.237 -0.371
-0.045 -0.232 -0.376
-0.036 -0.223 -0.382
-0.028 -0.217 -0.386
-0.018 -0.224 -0.383
-0.008 -0.233 -0.377
-0.003 -0.239 -0.374
-0.002 -0.238 -0.374
-0.002 -0.232 -0.378
-0.001 -0.224 -0.383
0.002 -0.219 -0.386
0.005 -0.217 -0.387
0.007 -0.217 -0.387
0.007 -0.213 -0.389
0.007 -0.206 -0.393
0.006 -0.196 -0.398
0.005 -0.186 -0.403
0.003 -0.177 -0.407
-0.000 -0.166 -0.411
-0.002 -0.155 -0.416
-0.004 -0.142 -0.420
-0.004 -0.130 -0.424
-0.003 -0.118 -0.428
-0.003 -0.105 -0.431
-0.003 -0.091 -0.434
-0.005 -0.080 -0.436
-0.007 -0.072 -0.438
-0.009 -0.065 -0.439
-0.010 -0.060 -0.440
-0.011 -0.054 -0.440
-0.012 -0.047 -0.441
-0.013 -0.040 -0.442
-0.013 -0.035 -0.442
-0.013 -0.033 -0.442
-0.014 -0.034 -0.442
-0.015 -0.036 -0.442
-0.017 -0.039 -0.442
-0.018 -0.042 -0.441
-0.019 -0.044 -0.441
-0.020 -0.045 -0.441
-0.019 -0.046 -0.441
-0.019 -0.047 -0.441
-0.019 -0.048 -0.441
-0.019 -0.050 -0.441
-0.020 -0.051 -0.440
-0.020 -0.052 -0.440
-0.019 -0.052 -0.440
-0.018 -0.052 -0.440
-0.018 -0.051 -0.440
-0.017 -0.052 -0.440
-0.017 -0.052 -0.440
-0.017 -0.053 -0.440
-0.017 -0.053 -0.440
-0.017 -0.054 -0.440
-0.017 -0.054 -0.440
B RightShoulder
-0.051 -0.002 0.110
-0.050 -0.002 0.110
-0.049 -0.003 0.111
-0.048 -0.003 0.111
-0.046 -0.004 0.112
-0.045 -0.004 0.112
-0.044 -0.003 0.113
-0.042 -0.001 0.114
-0.040 0.002 0.114
-0.038 0.006 0.115
-0.036 0.008 0.116
-0.034 0.009 0.116
-0.032 0.009 0.116
-0.032 0.011 0.116
-0.032 0.012 0.116
-0.033 0.013 0.116
-0.034 0.013 0.116
-0.035 0.014 0.115
-0.036 0.014 0.115
-0.038 0.014 0.114
-0.040 0.014 0.114
-0.041 0.014 0.113
-0.042 0.014 0.113
-0.043 0.014 0.112
-0.044 0.014 0.112
-0.045 0.014 0.111
-0.046 0.015 0.111
-0.047 0.014 0.111
-0.048 0.012 0.110
-0.050 0.009 0.110
-0.050 0.006 0.110
-0.051 0.003 0.110
-0.053 0.001 0.109
-0.053 -0.001 0.109
-0.054 -0.002 0.109
-0.054 -0.002 0.109
-0.053 -0.002 0.109
-0.053 -0.001 0.109
-0.052 0.001 0.109
-0.052 0.004 0.110
-0.051 0.007 0.110
-0.050 0.009 0.110
-0.049 0.011 0.110
-0.049 0.013 0.110
-0.048 0.014 0.110
-0.048 0.015 0.110
-0.048 0.015 0.110
-0.047 0.016 0.110
-0.047 0.017 0.111
-0.047 0.017 0.111
-0.046 0.017 0.111
-0.046 0.017 0.111
-0.046 0.017 0.111
-0.046 0.017 0.111
-0.046 0.017 0.111
-0.046 0.017 0.111
-0.046 0.017 0.111
-0.046 0.017 0.111
-0.046 0.016 0.111
-0.046 0.016 0.111
-0.047 0.016 0.111
-0.047 0.015 0.111
-0.047 0.015 0.111
-0.047 0.015 0.111
-0.047 0.014 0.111
-0.048 0.014 0.111
-0.048 0.014 0.110
-0.048 0.014 0.110
-0.048 0.013 0.110
-0.049 0.013 0.110
-0.049 0.013 0.110
-0.049 0.013 0.110
-0.049 0.013 0.110
B RightToeBase
-0.009 -0.107 -0.087
-0.008 -0.106 -0.088
-0.008 -0.105 -0.089
-0.008 -0.104 -0.090
-0.007 -0.103 -0.092
-0.006 -0.100 -0.095
-0.005 -0.096 -0.100
-0.004 -0.088 -0.106
-0.004 -0.074 -0.117
-0.002 -0.047 -0.130
0.004 -0.010 -0.138
0.008 0.020 -0.137
0.008 0.027 -0.135
0.002 0.014 -0.137
-0.004 -0.009 -0.138
-0.009 -0.035 -0.133
-0.016 -0.061 -0.123
-0.026 -0.085 -0.106
-0.035 -0.103 -0.085
-0.040 -0.116 -0.065
-0.042 -0.123 -0.047
-0.044 -0.126 -0.036
-0.047 -0.125 -0.037
-0.049 -0.119 -0.051
-0.050 -0.109 -0.068
-0.050 -0.100 -0.081
-0.050 -0.095 -0.087
-0.050 -0.094 -0.088
-0.050 -0.095 -0.087
-0.050 -0.095 -0.087
-0.050 -0.095 -0.087
-0.050 -0.095 -0.087
-0.050 -0.095 -0.087
-0.050 -0.095 -0.087
-0.049 -0.095 -0.087
-0.049 -0.095 -0.087
-0.049 -0.095 -0.087
-0.049 -0.095 -0.087
-0.049 -0.095 -0.087
-0.049 -0.095 -0.087
-0.049 -0.095 -0.087
-0.049 -0.095 -0.087
-0.049 -0.095 -0.087
-0.048 -0.096 -0.087
-0.048 -0.096 -0.087
-0.048 -0.096 -0.087
-0.048 -0.096 -0.087
-0.048 -0.096 -0.087
-0.048 -0.096 -0.087
-0.048 -0.096 -0.087
-0.048 -0.096 -0.087
-0.048 -0.096 -0.087
-0.047 -0.096 -0.087
-0.047 -0.096 -0.087
-0.047 -0.096 -0.087
-0.047 -0.096 -0.087
-0.047 -0.096 -0.087
-0.047 -0.096 -0.087
-0.047 -0.096 -0.087
-0.047 -0.096 -0.087
-0.047 -0.096 -0.087
-0.046 -0.097 -0.087
-0.046 -0.097 -0.087
-0.046 -0.097 -0.087
-0.046 -0.097 -0.087
-0.046 -0.097 -0.087
-0.046 -0.097 -0.087
-0.046 -0.097 -0.087
-0.046 -0.097 -0.087
-0.046 -0.097 -0.087
-0.045 -0.097 -0.087
-0.045 -0.097 -0.087
-0.045 -0.097 -0.087
B RightToe_End
-0.008 -0.092 0.009
-0.008 -0.092 0.008
-0.008 -0.092 0.008
-0.008 -0.092 0.007
-0.008 -0.092 0.006
-0.008 -0.092 0.004
-0.008 -0.092 0.001
-0.008 -0.092 -0.001
-0.010 -0.092 -0.005
-0.011 -0.090 -0.018
-0.012 -0.082 -0.042
-0.012 -0.068 -0.062
-0.014 -0.061 -0.069
-0.017 -0.066 -0.063
-0.018 -0.075 -0.052
-0.018 -0.083 -0.038
-0.020 -0.088 -0.023
-0.025 -0.089 -0.005
-0.028 -0.087 0.013
-0.029 -0.083 0.029
-0.031 -0.077 0.042
-0.033 -0.072 0.048
-0.034 -0.072 0.048
-0.033 -0.077 0.040
-0.036 -0.081 0.027
-0.040 -0.082 0.016
-0.043 -0.082 0.008
-0.044 -0.082 0.006
-0.044 -0.082 0.005
-0.043 -0.082 0.005
-0.043 -0.082 0.005
-0.043 -0.082 0.005
-0.043 -0.082 0.005
-0.043 -0.082 0.005
-0.043 -0.082 0.004
-0.043 -0.082 0.004
-0.043 -0.082 0.004
-0.043 -0.082 0.004
-0.043 -0.082 0.004
-0.043 -0.082 0.004
-0.043 -0.082 0.004
-0.042 -0.082 0.004
-0.042 -0.082 0.004
-0.042 -0.082 0.005
-0.042 -0.083 0.005
-0.042 -0.083 0.004
-0.042 -0.083 0.004
-0.042 -0.083 0.004
-0.042 -0.083 0.004
-0.042 -0.083 0.004
-0.042 -0.083 0.004
-0.041 -0.083 0.003
-0.041 -0.083 0.003
-0.041 -0.083 0.003
-0.041 -0.083 0.003
-0.041 -0.083 0.002
-0.041 -0.083 0.002
-0.041 -0.083 0.002
-0.041 -0.083 0.001
-0.041 -0.083 0.001
-0.041 -0.083 0.001
-0.041 -0.083 0.001
-0.040 -0.084 0.001
-0.040 -0.084 0.000
-0.040 -0.084 0.000
-0.040 -0.084 0.000
-0.040 -0.084 0.000
-0.040 -0.084 0.000
-0.040 -0.084 0.000
-0.040 -0.084 0.000
-0.040 -0.084 0.000
-0.040 -0.084 0.000
-0.039 -0.084 0.000
B RightUpLeg
-0.084 0.000 -0.032
-0.084 0.002 -0.032
-0.084 0.004 -0.031
-0.085 0.005 -0.029
-0.085 0.007 -0.027
-0.085 0.008 -0.026
-0.085 0.010 -0.026
-0.084 0.013 -0.027
-0.083 0.016 -0.029
-0.082 0.017 -0.032
-0.081 0.018 -0.034
-0.080 0.018 -0.035
-0.080 0.019 -0.036
-0.080 0.018 -0.035
-0.081 0.017 -0.035
-0.082 0.016 -0.034
-0.082 0.015 -0.033
-0.082 0.014 -0.033
-0.082 0.014 -0.033
-0.082 0.014 -0.034
-0.081 0.014 -0.035
-0.081 0.014 -0.036
-0.081 0.013 -0.036
-0.081 0.011 -0.036
-0.082 0.009 -0.036
-0.082 0.008 -0.035
-0.083 0.007 -0.033
-0.084 0.006 -0.031
-0.084 0.006 -0.031
-0.084 0.004 -0.031
-0.084 0.002 -0.031
-0.084 0.001 -0.030
-0.084 0.001 -0.031
-0.084 0.002 -0.031
-0.084 0.002 -0.032
-0.083 0.003 -0.033
-0.083 0.004 -0.034
-0.083 0.005 -0.033
-0.083 0.006 -0.033
-0.083 0.006 -0.032
-0.083 0.007 -0.032
-0.083 0.008 -0.032
-0.083 0.010 -0.032
-0.083 0.011 -0.032
-0.083 0.013 -0.032
-0.082 0.014 -0.032
-0.082 0.015 -0.032
-0.082 0.016 -0.032
-0.082 0.017 -0.032
-0.082 0.018 -0.032
-0.082 0.019 -0.032
-0.082 0.019 -0.032
-0.082 0.020 -0.032
-0.081 0.020 -0.032
-0.081 0.021 -0.032
-0.081 0.021 -0.032
-0.081 0.022 -0.032
-0.081 0.022 -0.032
-0.081 0.022 -0.032
-0.081 0.022 -0.032
-0.081 0.022 -0.032
-0.081 0.022 -0.032
-0.081 0.022 -0.032
-0.081 0.022 -0.032
-0.081 0.021 -0.032
-0.081 0.021 -0.032
-0.081 0.021 -0.032
-0.081 0.021 -0.032
-0.081 0.021 -0.032
-0.081 0.021 -0.032
-0.081 0.021 -0.032
-0.081 0.020 -0.032
-0.081 0.020 -0.032
B Spine
0.003 0.033 0.133
0.004 0.032 0.133
0.006 0.030 0.133
0.009 0.027 0.134
0.012 0.025 0.134
0.013 0.024 0.134
0.014 0.023 0.134
0.013 0.023 0.134
0.011 0.023 0.134
0.007 0.024 0.134
0.004 0.026 0.134
0.003 0.028 0.134
0.004 0.030 0.134
0.004 0.032 0.133
0.005 0.032 0.133
0.006 0.032 0.133
0.007 0.032 0.133
0.007 0.031 0.133
0.006 0.029 0.134
0.004 0.027 0.134
0.002 0.025 0.135
-0.001 0.023 0.135
-0.002 0.022 0.135
-0.003 0.021 0.135
-0.003 0.020 0.135
-0.001 0.019 0.136
0.002 0.019 0.135
0.004 0.020 0.135
0.005 0.021 0.135
0.005 0.021 0.135
0.005 0.022 0.135
0.005 0.023 0.135
0.004 0.024 0.135
0.003 0.024 0.135
0.002 0.023 0.135
0.001 0.023 0.135
0.000 0.022 0.135
0.001 0.022 0.135
0.002 0.023 0.135
0.003 0.024 0.135
0.003 0.024 0.135
0.004 0.023 0.135
0.004 0.023 0.135
0.005 0.022 0.135
0.005 0.021 0.135
0.005 0.021 0.135
0.005 0.020 0.135
0.005 0.020 0.135
0.005 0.019 0.135
0.005 0.018 0.136
0.006 0.017 0.136
0.006 0.017 0.136
0.006 0.016 0.136
0.006 0.016 0.136
0.006 0.016 0.136
0.006 0.015 0.136
0.006 0.015 0.136
0.006 0.014 0.136
0.006 0.014 0.136
0.006 0.013 0.136
0.006 0.013 0.136
0.005 0.013 0.136
0.005 0.012 0.136
0.005 0.012 0.136
0.005 0.012 0.136
0.005 0.012 0.136
0.005 0.012 0.136
0.005 0.012 0.136
0.005 0.012 0.136
0.004 0.012 0.136
0.004 0.012 0.136
0.004 0.012 0.136
0.004 0.012 0.136
B Spine1
-0.001 0.031 0.095
-0.001 0.030 0.095
0.001 0.029 0.096
0.003 0.028 0.096
0.005 0.026 0.096
0.006 0.025 0.097
0.007 0.025 0.097
0.007 0.025 0.096
0.007 0.026 0.096
0.006 0.027 0.096
0.005 0.027 0.096
0.005 0.028 0.096
0.006 0.029 0.096
0.007 0.030 0.095
0.007 0.031 0.095
0.007 0.030 0.095
0.007 0.030 0.095
0.007 0.030 0.095
0.006 0.029 0.096
0.005 0.028 0.096
0.003 0.027 0.096
0.001 0.026 0.097
0.000 0.025 0.097
-0.001 0.024 0.097
-0.001 0.024 0.097
-0.001 0.024 0.097
0.000 0.024 0.097
0.002 0.025 0.097
0.002 0.025 0.097
0.001 0.025 0.097
0.001 0.025 0.097
-0.000 0.025 0.097
-0.001 0.026 0.097
-0.002 0.025 0.097
-0.003 0.025 0.097
-0.003 0.025 0.097
-0.003 0.025 0.097
-0.002 0.025 0.097
-0.001 0.026 0.097
-0.000 0.026 0.096
0.000 0.027 0.096
0.001 0.027 0.096
0.001 0.027 0.096
0.002 0.026 0.096
0.002 0.026 0.097
0.002 0.026 0.097
0.003 0.025 0.097
0.003 0.025 0.097
0.003 0.025 0.097
0.003 0.024 0.097
0.004 0.024 0.097
0.004 0.023 0.097
0.004 0.023 0.097
0.004 0.023 0.097
0.004 0.022 0.097
0.004 0.022 0.097
0.004 0.022 0.097
0.004 0.022 0.098
0.004 0.021 0.098
0.004 0.021 0.098
0.004 0.021 0.098
0.004 0.021 0.098
0.004 0.020 0.098
0.003 0.020 0.098
0.003 0.020 0.098
0.003 0.020 0.098
0.003 0.020 0.098
0.003 0.020 0.098
0.003 0.020 0.098
0.003 0.020 0.098
0.003 0.020 0.098
0.003 0.020 0.098
0.003 0.020 0.098
B Spine2
-0.003 0.014 0.092
-0.002 0.014 0.092
-0.001 0.013 0.092
0.000 0.012 0.092
0.002 0.011 0.093
0.003 0.011 0.093
0.004 0.011 0.093
0.005 0.011 0.092
0.006 0.012 0.092
0.006 0.013 0.092
0.006 0.014 0.092
0.007 0.013 0.092
0.008 0.013 0.092
0.008 0.013 0.092
0.008 0.014 0.092
0.008 0.014 0.092
0.008 0.014 0.092
0.007 0.013 0.092
0.006 0.013 0.092
0.005 0.012 0.092
0.003 0.012 0.092
0.002 0.012 0.092
0.001 0.011 0.093
0.000 0.012 0.092
-0.000 0.012 0.092
-0.000 0.012 0.092
-0.000 0.013 0.092
0.000 0.014 0.092
-0.000 0.013 0.092
-0.001 0.012 0.092
-0.001 0.012 0.092
-0.002 0.012 0.092
-0.003 0.012 0.092
-0.004 0.011 0.092
-0.004 0.011 0.092
-0.005 0.011 0.092
-0.005 0.011 0.092
-0.004 0.012 0.092
-0.003 0.013 0.092
-0.003 0.014 0.092
-0.002 0.015 0.092
-0.001 0.015 0.092
-0.001 0.015 0.092
-0.000 0.016 0.092
-0.000 0.016 0.092
0.000 0.015 0.092
0.000 0.015 0.092
0.001 0.015 0.092
0.001 0.015 0.092
0.001 0.015 0.092
0.001 0.014 0.092
0.001 0.014 0.092
0.001 0.014 0.092
0.002 0.013 0.092
0.002 0.013 0.092
0.002 0.013 0.092
0.002 0.013 0.092
0.001 0.013 0.092
0.001 0.013 0.092
0.001 0.012 0.092
0.001 0.012 0.092
0.001 0.012 0.092
0.001 0.012 0.092
0.001 0.012 0.092
0.000 0.012 0.092
0.000 0.012 0.092
0.000 0.012 0.092
0.000 0.012 0.092
0.000 0.012 0.093
-0.000 0.011 0.093
-0.000 0.011 0.093
-0.000 0.011 0.093
-0.000 0.011 0.093
