# Blender v2.79 (sub 0) OBJ File: 'Walking.blend'
# www.blender.org
B Head
0.004 -0.021 0.095
0.003 -0.023 0.095
0.003 -0.025 0.094
0.002 -0.027 0.094
0.001 -0.026 0.094
0.001 -0.023 0.095
0.002 -0.021 0.095
0.003 -0.020 0.095
0.004 -0.019 0.096
0.005 -0.021 0.095
0.005 -0.022 0.095
0.004 -0.025 0.094
0.003 -0.026 0.094
B HeadTop_End
0.003 -0.094 0.213
0.005 -0.096 0.212
0.006 -0.098 0.211
0.006 -0.100 0.210
0.005 -0.099 0.211
0.002 -0.095 0.213
-0.000 -0.090 0.215
-0.001 -0.086 0.216
-0.000 -0.087 0.216
0.001 -0.091 0.214
0.001 -0.097 0.212
-0.001 -0.099 0.210
-0.004 -0.100 0.210
B Hips
0.000 -0.000 -0.000
0.000 -0.000 -0.000
0.000 -0.000 -0.000
0.000 -0.000 -0.000
0.000 -0.000 -0.000
0.000 -0.000 -0.000
0.000 -0.000 -0.000
0.000 -0.000 -0.000
0.000 -0.000 -0.000
0.000 -0.000 -0.000
0.000 -0.000 -0.000
0.000 -0.000 -0.000
0.000 -0.000 -0.000
B LeftArm
0.102 0.009 -0.036
0.101 0.012 -0.037
0.101 0.014 -0.037
0.101 0.014 -0.037
0.100 0.016 -0.038
0.099 0.017 -0.039
0.099 0.015 -0.042
0.099 0.014 -0.042
0.098 0.007 -0.046
0.098 0.002 -0.046
0.099 0.000 -0.044
0.100 -0.001 -0.042
0.101 -0.003 -0.039
B LeftFoot
-0.028 0.210 -0.392
-0.015 0.096 -0.434
-0.003 -0.021 -0.445
0.008 -0.111 -0.431
0.011 -0.135 -0.424
0.002 -0.106 -0.432
-0.004 -0.059 -0.441
-0.008 -0.003 -0.445
-0.013 0.058 -0.441
-0.015 0.087 -0.436
-0.019 0.101 -0.433
-0.022 0.112 -0.430
-0.026 0.122 -0.427
B LeftForeArm
0.089 0.023 -0.263
0.080 0.054 -0.261
0.068 0.079 -0.258
0.055 0.097 -0.255
0.044 0.111 -0.251
0.037 0.128 -0.244
0.034 0.134 -0.242
0.035 0.125 -0.246
0.043 0.119 -0.248
0.051 0.093 -0.258
0.058 0.062 -0.265
0.069 0.039 -0.267
0.085 0.027 -0.264
B LeftHand
0.024 -0.111 -0.260
0.022 -0.080 -0.271
0.019 -0.048 -0.279
0.017 -0.019 -0.282
0.015 -0.004 -0.283
0.013 -0.013 -0.283
0.011 -0.026 -0.282
0.012 -0.042 -0.280
0.013 -0.059 -0.277
0.016 -0.058 -0.277
0.018 -0.064 -0.275
0.014 -0.088 -0.269
0.002 -0.127 -0.253
B LeftHandIndex1
-0.007 -0.069 -0.064
-0.005 -0.062 -0.071
-0.006 -0.055 -0.076
-0.009 -0.048 -0.080
-0.011 -0.038 -0.086
-0.011 -0.025 -0.090
-0.010 -0.019 -0.092
-0.009 -0.015 -0.092
-0.009 -0.014 -0.093
-0.009 -0.018 -0.092
-0.010 -0.027 -0.089
-0.014 -0.038 -0.085
-0.020 -0.050 -0.077
B LeftHandIndex2
-0.015 -0.008 -0.033
-0.015 -0.006 -0.033
-0.015 -0.004 -0.034
-0.015 -0.002 -0.034
-0.015 0.002 -0.034
-0.016 0.006 -0.033
-0.017 0.008 -0.032
-0.018 0.010 -0.031
-0.018 0.011 -0.031
-0.017 0.010 -0.031
-0.016 0.008 -0.032
-0.017 0.004 -0.033
-0.018 -0.000 -0.033
B LeftHandIndex3
-0.021 0.019 -0.001
-0.023 0.017 -0.001
-0.024 0.015 -0.002
-0.024 0.015 -0.003
-0.024 0.015 -0.003
-0.024 0.015 -0.002
-0.025 0.014 0.001
-0.025 0.013 0.004
-0.024 0.014 0.004
-0.024 0.016 0.004
-0.022 0.017 0.002
-0.021 0.019 -0.000
-0.020 0.020 -0.002
B LeftHandIndex4
-0.021 0.018 -0.001
-0.022 0.016 -0.001
-0.023 0.015 -0.002
-0.023 0.015 -0.003
-0.023 0.015 -0.003
-0.024 0.014 -0.002
-0.024 0.014 0.001
-0.024 0.013 0.003
-0.024 0.014 0.004
-0.023 0.015 0.004
-0.022 0.017 0.002
-0.021 0.018 -0.000
-0.020 0.019 -0.002
B LeftHandMiddle1
0.013 -0.060 -0.073
0.014 -0.051 -0.079
0.012 -0.043 -0.084
0.009 -0.035 -0.088
0.007 -0.024 -0.092
0.007 -0.011 -0.094
0.008 -0.003 -0.095
0.008 0.001 -0.095
0.009 0.001 -0.095
0.010 -0.004 -0.095
0.009 -0.014 -0.094
0.006 -0.027 -0.091
0.001 -0.041 -0.086
B LeftHandMiddle2
-0.025 0.000 -0.027
-0.025 0.001 -0.027
-0.025 0.002 -0.027
-0.025 0.004 -0.027
-0.025 0.006 -0.026
-0.026 0.009 -0.025
-0.027 0.011 -0.023
-0.028 0.012 -0.022
-0.027 0.013 -0.021
-0.026 0.013 -0.022
-0.026 0.013 -0.024
-0.025 0.011 -0.025
-0.026 0.008 -0.025
B LeftHandMiddle3
-0.012 0.021 0.017
-0.015 0.019 0.017
-0.017 0.017 0.017
-0.018 0.016 0.016
-0.019 0.014 0.017
-0.020 0.012 0.018
-0.020 0.009 0.020
-0.018 0.008 0.022
-0.018 0.008 0.022
-0.017 0.010 0.022
-0.016 0.013 0.021
-0.015 0.017 0.019
-0.013 0.020 0.017
B LeftHandMiddle4
-0.012 0.021 0.017
-0.015 0.019 0.017
-0.017 0.017 0.017
-0.018 0.016 0.016
-0.019 0.014 0.017
-0.020 0.012 0.018
-0.020 0.009 0.020
-0.018 0.008 0.022
-0.018 0.008 0.022
-0.017 0.010 0.022
-0.016 0.013 0.021
-0.015 0.017 0.019
-0.013 0.020 0.017
B LeftHandPinky1
0.034 -0.025 -0.079
0.032 -0.014 -0.082
0.030 -0.006 -0.084
0.027 0.001 -0.085
0.026 0.012 -0.085
0.025 0.025 -0.082
0.024 0.032 -0.080
0.024 0.036 -0.079
0.025 0.035 -0.078
0.028 0.029 -0.080
0.030 0.019 -0.082
0.029 0.006 -0.085
0.025 -0.008 -0.085
B LeftHandPinky2
-0.027 0.004 -0.023
-0.028 0.004 -0.023
-0.028 0.006 -0.022
-0.028 0.007 -0.022
-0.028 0.010 -0.021
-0.028 0.012 -0.019
-0.029 0.012 -0.017
-0.030 0.013 -0.015
-0.030 0.014 -0.015
-0.029 0.015 -0.016
-0.028 0.015 -0.018
-0.027 0.014 -0.019
-0.027 0.012 -0.020
B LeftHandPinky3
-0.009 0.012 0.015
-0.011 0.010 0.015
-0.013 0.009 0.014
-0.014 0.008 0.014
-0.015 0.006 0.014
-0.015 0.004 0.014
-0.015 0.002 0.015
-0.013 0.001 0.016
-0.013 0.001 0.016
-0.013 0.003 0.016
-0.013 0.005 0.016
-0.012 0.008 0.015
-0.011 0.011 0.014
B LeftHandPinky4
-0.009 0.012 0.015
-0.011 0.010 0.015
-0.013 0.009 0.014
-0.014 0.008 0.014
-0.015 0.006 0.014
-0.015 0.004 0.014
-0.015 0.002 0.015
-0.014 0.001 0.016
-0.013 0.001 0.017
-0.013 0.003 0.017
-0.013 0.005 0.016
-0.012 0.008 0.016
-0.011 0.011 0.014
B LeftHandRing1
0.025 -0.046 -0.077
0.025 -0.036 -0.082
0.023 -0.027 -0.086
0.020 -0.020 -0.089
0.018 -0.008 -0.091
0.018 0.005 -0.091
0.017 0.013 -0.090
0.018 0.017 -0.090
0.019 0.017 -0.089
0.021 0.011 -0.090
0.021 0.000 -0.091
0.019 -0.013 -0.090
0.014 -0.027 -0.088
B LeftHandRing2
-0.021 0.001 -0.024
-0.021 0.001 -0.023
-0.021 0.003 -0.023
-0.021 0.004 -0.023
-0.021 0.007 -0.022
-0.021 0.009 -0.021
-0.022 0.011 -0.020
-0.023 0.011 -0.018
-0.023 0.012 -0.018
-0.022 0.012 -0.019
-0.021 0.012 -0.020
-0.021 0.010 -0.021
-0.021 0.008 -0.022
B LeftHandRing3
-0.012 0.018 0.020
-0.015 0.016 0.020
-0.017 0.014 0.019
-0.019 0.013 0.019
-0.020 0.011 0.019
-0.020 0.008 0.020
-0.020 0.006 0.021
-0.018 0.004 0.023
-0.018 0.004 0.023
-0.017 0.006 0.023
-0.017 0.010 0.022
-0.016 0.014 0.021
-0.014 0.017 0.019
B LeftHandRing4
-0.011 0.016 0.018
-0.014 0.014 0.018
-0.016 0.013 0.017
-0.017 0.012 0.017
-0.018 0.010 0.017
-0.018 0.007 0.018
-0.018 0.005 0.019
-0.017 0.003 0.020
-0.016 0.004 0.021
-0.016 0.006 0.021
-0.015 0.009 0.020
-0.014 0.012 0.019
-0.013 0.016 0.017
B LeftHandThumb1
-0.026 -0.025 -0.017
-0.025 -0.024 -0.018
-0.026 -0.023 -0.020
-0.026 -0.021 -0.021
-0.027 -0.018 -0.023
-0.027 -0.015 -0.025
-0.026 -0.014 -0.026
-0.026 -0.013 -0.027
-0.026 -0.012 -0.027
-0.026 -0.012 -0.027
-0.027 -0.013 -0.026
-0.029 -0.015 -0.023
-0.030 -0.017 -0.020
B LeftHandThumb2
-0.022 -0.019 -0.030
-0.022 -0.017 -0.031
-0.022 -0.015 -0.032
-0.023 -0.012 -0.033
-0.024 -0.007 -0.033
-0.024 -0.003 -0.034
-0.024 -0.001 -0.034
-0.024 -0.000 -0.034
-0.024 0.001 -0.035
-0.023 0.000 -0.035
-0.023 -0.002 -0.035
-0.024 -0.005 -0.034
-0.026 -0.009 -0.032
B LeftHandThumb3
-0.015 -0.014 -0.027
-0.015 -0.012 -0.028
-0.016 -0.009 -0.029
-0.016 -0.007 -0.029
-0.017 -0.003 -0.029
-0.017 0.001 -0.030
-0.017 0.002 -0.029
-0.017 0.003 -0.029
-0.017 0.004 -0.030
-0.016 0.003 -0.030
-0.016 0.001 -0.030
-0.017 -0.002 -0.030
-0.018 -0.005 -0.029
B LeftHandThumb4
-0.011 -0.011 -0.021
-0.011 -0.009 -0.021
-0.012 -0.007 -0.022
-0.012 -0.005 -0.022
-0.013 -0.002 -0.022
-0.013 0.000 -0.022
-0.013 0.002 -0.022
-0.013 0.003 -0.022
-0.013 0.003 -0.022
-0.012 0.003 -0.023
-0.012 0.001 -0.023
-0.013 -0.001 -0.022
-0.014 -0.004 -0.022
B LeftLeg
0.040 -0.215 -0.386
0.030 -0.234 -0.376
0.022 -0.247 -0.368
0.012 -0.262 -0.357
0.005 -0.284 -0.340
0.003 -0.288 -0.337
0.000 -0.277 -0.346
-0.000 -0.266 -0.355
-0.002 -0.249 -0.367
-0.006 -0.205 -0.394
-0.005 -0.148 -0.418
-0.004 -0.088 -0.435
-0.002 -0.033 -0.442
B LeftShoulder
0.047 0.021 0.110
0.048 0.021 0.109
0.049 0.020 0.109
0.049 0.021 0.109
0.050 0.021 0.108
0.051 0.022 0.108
0.051 0.024 0.107
0.052 0.027 0.106
0.052 0.026 0.106
0.052 0.023 0.107
0.051 0.021 0.108
0.050 0.020 0.108
0.049 0.018 0.109
B LeftToeBase
0.016 -0.067 -0.120
0.022 -0.099 -0.093
0.023 -0.118 -0.068
0.017 -0.129 -0.047
0.009 -0.134 -0.032
0.004 -0.135 -0.030
-0.003 -0.125 -0.058
-0.003 -0.107 -0.087
-0.003 -0.107 -0.087
-0.003 -0.107 -0.087
-0.003 -0.107 -0.087
-0.002 -0.106 -0.088
-0.002 -0.105 -0.090
B LeftToe_End
0.021 -0.087 -0.024
0.022 -0.090 0.003
0.016 -0.088 0.023
0.017 -0.082 0.040
0.014 -0.076 0.052
0.007 -0.071 0.060
0.005 -0.083 0.041
0.004 -0.093 0.005
0.004 -0.093 0.005
0.004 -0.093 0.005
0.004 -0.093 0.006
0.004 -0.092 0.007
0.004 -0.092 0.007
B LeftUpLeg
0.079 0.019 -0.070
0.079 0.017 -0.071
0.080 0.015 -0.071
0.080 0.014 -0.070
0.080 0.013 -0.070
0.081 0.011 -0.070
0.081 0.011 -0.069
0.082 0.012 -0.068
0.082 0.013 -0.068
0.082 0.014 -0.068
0.081 0.014 -0.069
0.081 0.018 -0.069
0.080 0.022 -0.068
B Neck
0.003 0.014 0.168
0.004 0.013 0.168
0.006 0.012 0.168
0.007 0.012 0.168
0.009 0.011 0.168
0.011 0.013 0.168
0.011 0.016 0.168
0.012 0.020 0.167
0.012 0.020 0.167
0.011 0.018 0.167
0.009 0.017 0.168
0.007 0.016 0.168
0.006 0.014 0.168
B RightArm
-0.103 0.001 -0.032
-0.104 -0.001 -0.029
-0.105 -0.002 -0.027
-0.106 -0.005 -0.024
-0.106 -0.007 -0.020
-0.107 -0.009 -0.017
-0.107 -0.008 -0.016
-0.107 -0.006 -0.019
-0.107 -0.003 -0.019
-0.106 0.001 -0.022
-0.105 0.005 -0.026
-0.104 0.010 -0.031
-0.102 0.014 -0.034
B RightFoot
0.033 0.130 -0.425
0.040 0.157 -0.415
0.046 0.187 -0.401
0.051 0.222 -0.383
0.053 0.258 -0.359
0.053 0.300 -0.325
0.049 0.333 -0.291
0.046 0.358 -0.261
0.045 0.375 -0.236
0.045 0.371 -0.242
0.040 0.345 -0.279
0.029 0.287 -0.339
0.014 0.192 -0.401
B RightForeArm
-0.095 0.042 -0.258
-0.108 0.009 -0.257
-0.114 -0.029 -0.252
-0.113 -0.065 -0.246
-0.108 -0.089 -0.241
-0.110 -0.089 -0.240
-0.110 -0.074 -0.245
-0.110 -0.045 -0.252
-0.102 -0.013 -0.259
-0.087 0.012 -0.264
-0.074 0.033 -0.266
-0.063 0.043 -0.268
-0.058 0.050 -0.268
B RightHand
-0.017 -0.125 -0.254
-0.012 -0.170 -0.226
-0.010 -0.201 -0.200
-0.011 -0.219 -0.180
-0.014 -0.227 -0.168
-0.008 -0.237 -0.155
-0.000 -0.242 -0.148
0.002 -0.242 -0.148
-0.007 -0.230 -0.165
-0.022 -0.202 -0.197
-0.036 -0.161 -0.231
-0.047 -0.107 -0.258
-0.051 -0.052 -0.274
B RightHandIndex1
0.003 -0.054 -0.077
0.001 -0.062 -0.070
-0.002 -0.071 -0.061
-0.003 -0.081 -0.048
-0.003 -0.088 -0.033
-0.001 -0.092 -0.018
0.002 -0.093 -0.010
0.003 -0.094 -0.009
0.003 -0.093 -0.014
0.001 -0.091 -0.025
-0.002 -0.085 -0.040
-0.006 -0.076 -0.055
-0.009 -0.064 -0.068
B RightHandIndex2
0.016 -0.000 -0.033
0.015 -0.003 -0.034
0.014 -0.007 -0.034
0.012 -0.011 -0.033
0.011 -0.016 -0.032
0.010 -0.020 -0.029
0.011 -0.022 -0.028
0.012 -0.022 -0.027
0.013 -0.020 -0.028
0.014 -0.016 -0.030
0.015 -0.011 -0.032
0.017 -0.006 -0.032
0.017 -0.003 -0.033
B RightHandIndex3
0.025 0.014 0.000
0.024 0.015 -0.001
0.024 0.016 -0.003
0.023 0.016 -0.006
0.021 0.016 -0.009
0.020 0.016 -0.013
0.019 0.016 -0.014
0.019 0.016 -0.013
0.020 0.017 -0.012
0.020 0.018 -0.008
0.021 0.018 -0.004
0.023 0.017 0.001
0.025 0.013 0.004
B RightHandIndex4
0.024 0.013 0.000
0.024 0.014 -0.001
0.023 0.015 -0.003
0.022 0.016 -0.006
0.021 0.016 -0.009
0.020 0.015 -0.012
0.019 0.015 -0.013
0.019 0.016 -0.013
0.019 0.017 -0.011
0.020 0.018 -0.008
0.021 0.018 -0.003
0.022 0.016 0.001
0.024 0.013 0.003
B RightHandMiddle1
-0.015 -0.041 -0.085
-0.018 -0.050 -0.079
-0.021 -0.061 -0.070
-0.024 -0.073 -0.057
-0.025 -0.082 -0.041
-0.023 -0.089 -0.027
-0.020 -0.091 -0.018
-0.019 -0.092 -0.017
-0.019 -0.091 -0.023
-0.021 -0.086 -0.034
-0.023 -0.078 -0.049
-0.025 -0.066 -0.064
-0.027 -0.051 -0.076
B RightHandMiddle2
0.021 0.002 -0.031
0.020 -0.001 -0.031
0.018 -0.004 -0.032
0.017 -0.008 -0.032
0.016 -0.012 -0.031
0.015 -0.016 -0.030
0.016 -0.018 -0.028
0.016 -0.018 -0.028
0.017 -0.016 -0.029
0.018 -0.013 -0.030
0.019 -0.008 -0.031
0.020 -0.004 -0.031
0.022 -0.001 -0.030
B RightHandMiddle3
0.025 0.014 0.008
0.024 0.016 0.007
0.023 0.017 0.004
0.023 0.019 0.001
0.021 0.020 -0.003
0.020 0.020 -0.007
0.019 0.021 -0.008
0.019 0.021 -0.008
0.019 0.022 -0.006
0.020 0.022 -0.002
0.021 0.021 0.003
0.022 0.018 0.008
0.024 0.014 0.011
B RightHandMiddle4
0.025 0.014 0.008
0.024 0.016 0.007
0.023 0.017 0.004
0.022 0.019 0.001
0.021 0.020 -0.003
0.020 0.020 -0.007
0.019 0.021 -0.008
0.019 0.021 -0.008
0.019 0.022 -0.006
0.020 0.022 -0.002
0.021 0.021 0.003
0.022 0.018 0.008
0.024 0.014 0.011
B RightHandPinky1
-0.031 -0.003 -0.084
-0.035 -0.013 -0.081
-0.040 -0.025 -0.076
-0.044 -0.039 -0.068
-0.047 -0.051 -0.057
-0.047 -0.061 -0.045
-0.045 -0.067 -0.039
-0.044 -0.067 -0.039
-0.044 -0.065 -0.043
-0.044 -0.058 -0.053
-0.043 -0.046 -0.063
-0.042 -0.030 -0.073
-0.040 -0.012 -0.079
B RightHandPinky2
0.019 -0.002 -0.030
0.018 -0.004 -0.031
0.017 -0.008 -0.031
0.016 -0.012 -0.030
0.015 -0.016 -0.029
0.015 -0.019 -0.027
0.015 -0.021 -0.025
0.016 -0.020 -0.025
0.016 -0.019 -0.026
0.017 -0.016 -0.028
0.017 -0.012 -0.029
0.018 -0.008 -0.030
0.019 -0.005 -0.030
B RightHandPinky3
0.014 0.013 0.008
0.014 0.014 0.007
0.013 0.016 0.004
0.012 0.017 0.002
0.011 0.018 -0.001
0.010 0.018 -0.004
0.009 0.018 -0.006
0.009 0.018 -0.005
0.009 0.019 -0.004
0.009 0.019 -0.001
0.010 0.018 0.002
0.012 0.016 0.006
0.013 0.014 0.009
B RightHandPinky4
0.014 0.013 0.008
0.014 0.015 0.007
0.013 0.016 0.005
0.012 0.017 0.002
0.011 0.018 -0.001
0.010 0.018 -0.004
0.009 0.018 -0.006
0.009 0.019 -0.005
0.009 0.019 -0.004
0.009 0.019 -0.001
0.011 0.018 0.002
0.012 0.016 0.006
0.014 0.014 0.009
B RightHandRing1
-0.025 -0.024 -0.086
-0.028 -0.034 -0.082
-0.032 -0.046 -0.074
-0.036 -0.059 -0.062
-0.037 -0.070 -0.049
-0.037 -0.078 -0.035
-0.034 -0.082 -0.027
-0.033 -0.083 -0.027
-0.033 -0.081 -0.032
-0.034 -0.075 -0.043
-0.035 -0.065 -0.056
-0.036 -0.051 -0.069
-0.035 -0.034 -0.079
B RightHandRing2
0.019 0.001 -0.028
0.018 -0.001 -0.029
0.017 -0.004 -0.029
0.015 -0.008 -0.029
0.014 -0.012 -0.028
0.014 -0.016 -0.027
0.014 -0.017 -0.025
0.015 -0.017 -0.025
0.015 -0.016 -0.026
0.016 -0.013 -0.027
0.017 -0.009 -0.028
0.018 -0.005 -0.028
0.019 -0.002 -0.028
B RightHandRing3
0.021 0.017 0.010
0.021 0.018 0.008
0.020 0.020 0.006
0.019 0.022 0.002
0.017 0.023 -0.002
0.016 0.023 -0.006
0.015 0.024 -0.008
0.014 0.024 -0.007
0.014 0.024 -0.006
0.015 0.025 -0.002
0.016 0.024 0.003
0.018 0.021 0.008
0.020 0.017 0.012
B RightHandRing4
0.019 0.015 0.009
0.019 0.017 0.008
0.018 0.019 0.005
0.017 0.020 0.002
0.016 0.021 -0.002
0.015 0.021 -0.005
0.013 0.022 -0.007
0.013 0.022 -0.007
0.013 0.022 -0.005
0.014 0.022 -0.001
0.015 0.022 0.003
0.016 0.019 0.007
0.018 0.016 0.011
B RightHandThumb1
0.024 -0.024 -0.021
0.024 -0.025 -0.019
0.023 -0.027 -0.017
0.023 -0.029 -0.014
0.023 -0.030 -0.010
0.024 -0.031 -0.007
0.025 -0.031 -0.004
0.026 -0.030 -0.003
0.025 -0.030 -0.005
0.025 -0.030 -0.007
0.024 -0.030 -0.011
0.022 -0.029 -0.015
0.020 -0.028 -0.019
B RightHandThumb2
0.016 -0.021 -0.032
0.017 -0.024 -0.030
0.017 -0.028 -0.027
0.017 -0.031 -0.023
0.017 -0.034 -0.018
0.018 -0.035 -0.014
0.018 -0.036 -0.012
0.017 -0.036 -0.012
0.016 -0.036 -0.014
0.017 -0.035 -0.017
0.016 -0.033 -0.020
0.014 -0.031 -0.025
0.010 -0.029 -0.029
B RightHandThumb3
0.012 -0.008 -0.031
0.012 -0.011 -0.030
0.011 -0.015 -0.029
0.011 -0.019 -0.026
0.011 -0.023 -0.023
0.012 -0.026 -0.018
0.012 -0.027 -0.017
0.011 -0.027 -0.018
0.010 -0.026 -0.019
0.010 -0.024 -0.022
0.011 -0.021 -0.025
0.009 -0.017 -0.028
0.008 -0.013 -0.031
B RightHandThumb4
0.009 -0.006 -0.023
0.009 -0.008 -0.023
0.009 -0.011 -0.022
0.008 -0.014 -0.020
0.008 -0.017 -0.017
0.009 -0.020 -0.014
0.009 -0.021 -0.013
0.008 -0.021 -0.013
0.008 -0.020 -0.014
0.008 -0.018 -0.016
0.008 -0.016 -0.019
0.007 -0.013 -0.021
0.006 -0.010 -0.023
B RightLeg
0.011 -0.051 -0.441
0.007 -0.010 -0.444
0.002 0.028 -0.443
-0.004 0.058 -0.440
-0.009 0.084 -0.436
-0.014 0.107 -0.430
-0.018 0.122 -0.426
-0.022 0.115 -0.428
-0.029 0.074 -0.436
-0.036 0.007 -0.442
-0.035 -0.073 -0.436
-0.029 -0.137 -0.421
-0.019 -0.184 -0.403
B RightShoulder
-0.045 0.013 0.112
-0.043 0.013 0.113
-0.042 0.012 0.113
-0.041 0.011 0.113
-0.040 0.010 0.114
-0.039 0.010 0.114
-0.039 0.012 0.114
-0.038 0.015 0.114
-0.038 0.016 0.114
-0.039 0.016 0.114
-0.040 0.017 0.113
-0.041 0.017 0.113
-0.042 0.016 0.113
B RightToeBase
0.002 -0.102 -0.093
0.001 -0.097 -0.099
0.000 -0.091 -0.104
0.000 -0.080 -0.113
0.000 -0.064 -0.123
0.001 -0.038 -0.133
0.003 0.005 -0.138
0.004 0.055 -0.127
-0.001 0.079 -0.114
-0.012 0.068 -0.120
-0.021 0.030 -0.133
-0.025 -0.021 -0.134
-0.025 -0.068 -0.118
B RightToe_End
0.002 -0.093 0.003
0.000 -0.093 -0.000
-0.001 -0.093 -0.000
-0.002 -0.093 -0.001
-0.004 -0.093 -0.004
-0.006 -0.092 -0.014
-0.008 -0.089 -0.023
-0.012 -0.079 -0.047
-0.014 -0.047 -0.079
-0.017 -0.034 -0.085
-0.019 -0.052 -0.074
-0.017 -0.075 -0.052
-0.013 -0.090 -0.020
B RightUpLeg
-0.085 0.016 -0.064
-0.085 0.017 -0.064
-0.084 0.018 -0.064
-0.084 0.020 -0.064
-0.083 0.021 -0.064
-0.083 0.022 -0.065
-0.082 0.023 -0.065
-0.082 0.023 -0.066
-0.082 0.022 -0.066
-0.082 0.021 -0.066
-0.083 0.020 -0.066
-0.084 0.017 -0.065
-0.084 0.014 -0.066
B Spine
0.004 -0.003 0.102
0.004 -0.003 0.102
0.004 -0.002 0.102
0.004 -0.003 0.102
0.003 -0.003 0.102
0.003 -0.003 0.102
0.002 -0.003 0.102
0.001 -0.004 0.102
0.001 -0.004 0.102
0.001 -0.003 0.102
0.002 -0.003 0.102
0.002 -0.003 0.102
0.002 -0.004 0.102
B Spine1
0.002 0.013 0.099
0.003 0.013 0.099
0.004 0.013 0.099
0.004 0.013 0.099
0.004 0.012 0.099
0.004 0.013 0.099
0.004 0.013 0.099
0.003 0.012 0.099
0.002 0.012 0.099
0.002 0.013 0.099
0.003 0.013 0.099
0.003 0.013 0.099
0.002 0.012 0.099
B Spine2
0.002 0.011 0.093
0.003 0.011 0.093
0.003 0.011 0.093
0.004 0.010 0.093
0.004 0.010 0.093
0.005 0.010 0.093
0.005 0.011 0.092
0.005 0.012 0.092
0.004 0.012 0.092
0.004 0.012 0.092
0.004 0.012 0.092
0.003 0.011 0.092
0.002 0.011 0.093
